<?xml version="1.0" encoding="utf-8"?>
<!-- Generator: Adobe Illustrator 22.1.0, SVG Export Plug-In . SVG Version: 6.00 Build 0)  -->
<svg version="1.1" xmlns="http://www.w3.org/2000/svg" xmlns:xlink="http://www.w3.org/1999/xlink" x="0px" y="0px" width="425px"
	 height="2875px" viewBox="0 0 425 2875" style="enable-background:new 0 0 425 2875;" xml:space="preserve">
<style type="text/css">
	.st0{clip-path:url(#SVGID_3_);}
	.st1{clip-path:url(#SVGID_7_);}
	.st2{clip-path:url(#SVGID_12_);}
	.st3{clip-path:url(#SVGID_13_);}
	.st4{clip-path:url(#SVGID_14_);fill:#F3F3F3;}
	.st5{clip-path:url(#SVGID_17_);}
	.st6{clip-path:url(#SVGID_18_);fill:#FFFFFF;}
	.st7{fill:#424242;}
	.st8{fill-rule:evenodd;clip-rule:evenodd;fill:#FFFFFF;}
	.st9{fill:#F3F3F3;}
	.st10{fill:#E5E5E5;}
	.st11{fill:#333333;}
	.st12{opacity:0.36;}
	.st13{fill:#2DD086;}
	.st14{fill:#E26154;}
	.st15{fill:#FFCC00;}
	.st16{fill:#29AB70;}
	.st17{fill:#BDBDBD;}
	.st18{fill:#C14437;}
	.st19{fill:#E2A62A;}
	.st20{fill:#FFFFFF;}
	.st21{fill-rule:evenodd;clip-rule:evenodd;fill:#2DB4D0;}
	.st22{clip-path:url(#SVGID_30_);fill:#BDBDBD;}
	.st23{clip-path:url(#SVGID_32_);fill:#BDBDBD;}
	.st24{clip-path:url(#SVGID_34_);fill:#BDBDBD;}
	.st25{clip-path:url(#SVGID_36_);fill:#BDBDBD;}
	.st26{clip-path:url(#SVGID_38_);fill:#BDBDBD;}
	.st27{clip-path:url(#SVGID_40_);fill:#BDBDBD;}
	.st28{clip-path:url(#SVGID_42_);fill:#BDBDBD;}
	.st29{clip-path:url(#SVGID_44_);fill:#BDBDBD;}
</style>
<g id="Layer_1">
	<g id="plane_bgr_1_">
		<g>
			<defs>
				<polygon id="SVGID_1_" points="120,1196.6 304,1200.7 304,-6.1 120,-10.2 				"/>
			</defs>
			<defs>
				<polygon id="SVGID_2_" points="120.1,-10.2 304,-6 304,1200.7 120.1,1196.6 				"/>
			</defs>
			<clipPath id="SVGID_3_">
				<use xlink:href="#SVGID_1_"  style="overflow:visible;"/>
			</clipPath>
			<clipPath id="SVGID_4_" class="st0">
				<use xlink:href="#SVGID_2_"  style="overflow:visible;"/>
			</clipPath>
		</g>
		<g>
			<defs>
				<polygon id="SVGID_5_" points="120,1196.6 304,1200.7 304,-6.1 120,-10.2 				"/>
			</defs>
			<defs>
				<polygon id="SVGID_6_" points="120.1,-10.2 304,-6 304,1200.7 120.1,1196.6 				"/>
			</defs>
			<clipPath id="SVGID_7_">
				<use xlink:href="#SVGID_5_"  style="overflow:visible;"/>
			</clipPath>
			<clipPath id="SVGID_8_" class="st1">
				<use xlink:href="#SVGID_6_"  style="overflow:visible;"/>
			</clipPath>
		</g>
		<g>
			<defs>
				<polygon id="SVGID_9_" points="120,1196.6 304,1200.7 304,-6.1 120,-10.2 				"/>
			</defs>
			<defs>
				<path id="SVGID_10_" d="M131.3,211.7C161.1,106.9,195.9,30,212.3,30c16.2,0,50.4,78.5,80.9,181.7l0,0c1,4,1.6,8.1,1.6,12.3
					v700.5l0,0c0,4.1-0.5,8.1-1.5,12.1c-39.9,156.9-66.9,246.6-81,246.6c-14,0-41-89.7-81-246.6l0,0c-1-4-1.5-8-1.5-12.1V223.9l0,0
					C129.8,219.8,130.3,215.7,131.3,211.7L131.3,211.7z"/>
			</defs>
			<defs>
				<polygon id="SVGID_11_" points="120.1,-10.2 304,-6 304,1200.7 120.1,1196.6 				"/>
			</defs>
			<clipPath id="SVGID_12_">
				<use xlink:href="#SVGID_9_"  style="overflow:visible;"/>
			</clipPath>
			<clipPath id="SVGID_13_" class="st2">
				<use xlink:href="#SVGID_10_"  style="overflow:visible;"/>
			</clipPath>
			<clipPath id="SVGID_14_" class="st3">
				<use xlink:href="#SVGID_11_"  style="overflow:visible;"/>
			</clipPath>
			<rect x="127.3" y="-8.5" class="st4" width="169.9" height="1203.6"/>
		</g>
		<g>
			<defs>
				<polygon id="SVGID_15_" points="120,1194.3 304,1198.5 304.7,-8.3 120.7,-12.4 				"/>
			</defs>
			<defs>
				<path id="SVGID_16_" d="M133.7,232.2L133.7,232.2v678.6c23,113.3,49.2,149.2,78.5,149.2c29.4,0,55.6-35.9,78.5-149.2V232.1
					c0,0,0-15.2-4.2-26c0,0-19.2-8-75.2-8c0,0-61.6,1.1-74.1,9C137.2,207.1,132.5,224,133.7,232.2z"/>
			</defs>
			<clipPath id="SVGID_17_">
				<use xlink:href="#SVGID_15_"  style="overflow:visible;"/>
			</clipPath>
			<clipPath id="SVGID_18_" class="st5">
				<use xlink:href="#SVGID_16_"  style="overflow:visible;"/>
			</clipPath>
			<rect x="132.5" y="116.1" class="st6" width="162" height="967.1"/>
		</g>
		<g>
			<defs>
				<rect id="SVGID_19_" x="120" y="-10" width="184" height="1206.8"/>
			</defs>
			<clipPath id="SVGID_20_">
				<use xlink:href="#SVGID_19_"  style="overflow:visible;"/>
			</clipPath>
		</g>
		<g>
		</g>
	</g>
	<g>
		<path class="st7" d="M167,1201.9c-0.4-0.4-0.6-0.9-0.6-1.5c0-0.6,0.2-1.1,0.6-1.5c0.4-0.4,0.9-0.6,1.5-0.6c0.6,0,1.1,0.2,1.5,0.6
			s0.6,0.9,0.6,1.5c0,0.6-0.2,1.1-0.6,1.5s-0.9,0.6-1.5,0.6C167.9,1202.5,167.4,1202.3,167,1201.9z M169.6,1201.5
			c0.3-0.3,0.5-0.7,0.5-1.2c0-0.5-0.2-0.8-0.5-1.2c-0.3-0.3-0.7-0.5-1.2-0.5s-0.8,0.2-1.2,0.5c-0.3,0.3-0.5,0.7-0.5,1.2
			c0,0.5,0.2,0.8,0.5,1.2c0.3,0.3,0.7,0.5,1.2,0.5S169.3,1201.9,169.6,1201.5z M168.9,1200.1c0-0.1-0.1-0.2-0.1-0.2
			c-0.1-0.1-0.1-0.1-0.2-0.1c-0.1,0-0.2,0-0.3,0.1c-0.1,0.1-0.1,0.2-0.1,0.4c0,0.2,0,0.3,0.1,0.4c0.1,0.1,0.2,0.1,0.3,0.1
			c0.2,0,0.3-0.1,0.3-0.3h0.6c0,0.2-0.1,0.4-0.3,0.6c-0.2,0.1-0.4,0.2-0.6,0.2c-0.3,0-0.6-0.1-0.7-0.3c-0.2-0.2-0.3-0.4-0.3-0.8
			c0-0.3,0.1-0.6,0.3-0.8c0.2-0.2,0.4-0.3,0.7-0.3c0.3,0,0.5,0.1,0.6,0.2c0.2,0.1,0.3,0.3,0.3,0.6H168.9z"/>
		<path class="st7" d="M172,1199.5c0-0.4,0.1-0.7,0.4-0.9c0.3-0.2,0.6-0.4,1.1-0.4c0.4,0,0.8,0.1,1,0.3c0.3,0.2,0.4,0.5,0.4,0.8
			c0,0.2-0.1,0.4-0.2,0.6c-0.1,0.2-0.4,0.5-0.7,0.8l-0.6,0.6v0.1h1.6v0.8H172v-0.7l1.2-1.1c0.3-0.3,0.5-0.5,0.6-0.6
			c0.1-0.1,0.1-0.2,0.1-0.4c0-0.1,0-0.3-0.1-0.3c-0.1-0.1-0.2-0.1-0.4-0.1c-0.2,0-0.3,0.1-0.4,0.2c-0.1,0.1-0.2,0.2-0.2,0.4v0
			L172,1199.5L172,1199.5z"/>
		<path class="st7" d="M176.9,1201.7c-0.3-0.4-0.4-0.9-0.4-1.5c0-0.6,0.1-1.1,0.4-1.5c0.3-0.4,0.7-0.5,1.2-0.5
			c0.5,0,0.9,0.2,1.2,0.5c0.3,0.4,0.4,0.9,0.4,1.5c0,0.6-0.1,1.1-0.4,1.5c-0.3,0.4-0.7,0.5-1.2,0.5
			C177.6,1202.3,177.2,1202.1,176.9,1201.7z M178.5,1201.2c0.1-0.2,0.2-0.5,0.2-1c0-0.4-0.1-0.7-0.2-1c-0.1-0.2-0.3-0.3-0.5-0.3
			s-0.3,0.1-0.5,0.3c-0.1,0.2-0.2,0.5-0.2,1c0,0.4,0.1,0.7,0.2,1c0.1,0.2,0.3,0.3,0.5,0.3S178.4,1201.4,178.5,1201.2z"/>
		<path class="st7" d="M182.2,1199.2L182.2,1199.2l-1,0.6v-0.8l1-0.7h1v3.9h-1V1199.2z"/>
		<path class="st7" d="M185.5,1201.9c-0.3-0.2-0.5-0.5-0.5-0.8c0-0.2,0.1-0.4,0.2-0.6c0.2-0.2,0.4-0.3,0.6-0.4v-0.1
			c-0.2,0-0.4-0.1-0.5-0.3c-0.1-0.2-0.2-0.3-0.2-0.5c0-0.3,0.1-0.6,0.4-0.8c0.3-0.2,0.6-0.3,1.1-0.3s0.8,0.1,1.1,0.3
			c0.3,0.2,0.4,0.5,0.4,0.8c0,0.2-0.1,0.4-0.2,0.5c-0.1,0.2-0.3,0.3-0.5,0.3v0.1c0.3,0,0.5,0.2,0.6,0.3c0.2,0.2,0.2,0.4,0.2,0.6
			c0,0.3-0.2,0.6-0.5,0.8c-0.3,0.2-0.7,0.3-1.2,0.3C186.2,1202.3,185.8,1202.2,185.5,1201.9z M187.1,1201.4c0.1-0.1,0.2-0.2,0.2-0.4
			s-0.1-0.3-0.2-0.4c-0.1-0.1-0.3-0.1-0.4-0.1c-0.2,0-0.3,0-0.4,0.1c-0.1,0.1-0.2,0.2-0.2,0.4s0.1,0.3,0.2,0.4
			c0.1,0.1,0.3,0.1,0.4,0.1S187,1201.5,187.1,1201.4z M187,1199.7c0.1-0.1,0.1-0.2,0.1-0.3c0-0.1,0-0.3-0.1-0.3
			c-0.1-0.1-0.2-0.1-0.4-0.1c-0.2,0-0.3,0-0.4,0.1c-0.1,0.1-0.1,0.2-0.1,0.3c0,0.1,0,0.3,0.1,0.3c0.1,0.1,0.2,0.1,0.4,0.1
			S186.9,1199.8,187,1199.7z"/>
		<path class="st7" d="M193,1202.2v-3.1h-1.1v-0.8h3.2v0.8H194v3.1H193z"/>
		<path class="st7" d="M197.6,1202.2h-1v-3.9h1.7c0.5,0,0.8,0.1,1.1,0.3c0.3,0.2,0.4,0.5,0.4,0.9c0,0.2-0.1,0.5-0.2,0.7
			c-0.1,0.2-0.3,0.3-0.5,0.4l0.8,1.5h-1.1l-0.7-1.3h-0.5V1202.2z M197.6,1200.1h0.6c0.2,0,0.3,0,0.4-0.1s0.2-0.2,0.2-0.4
			c0-0.2-0.1-0.3-0.2-0.4c-0.1-0.1-0.2-0.1-0.4-0.1h-0.6V1200.1z"/>
		<path class="st7" d="M201.4,1202.2v-3.9h1v3.9H201.4z"/>
		<path class="st7" d="M205.9,1198.3c0.4,0,0.8,0.1,1,0.4c0.3,0.2,0.4,0.6,0.4,1c0,0.4-0.1,0.7-0.4,1c-0.3,0.2-0.6,0.4-1,0.4h-0.6
			v1.1h-1v-3.9H205.9z M205.1,1200.3h0.4c0.2,0,0.4-0.1,0.5-0.2c0.1-0.1,0.2-0.3,0.2-0.5c0-0.2-0.1-0.4-0.2-0.5
			c-0.1-0.1-0.3-0.2-0.5-0.2h-0.4V1200.3z"/>
		<path class="st7" d="M211,1201.3h-1.3l-0.2,0.8h-1l1.3-3.9h1.2l1.3,3.9h-1.1L211,1201.3z M210,1200.6h0.9l-0.4-1.4h-0.1
			L210,1200.6z"/>
		<path class="st7" d="M215.5,1198.3c0.6,0,1,0.2,1.3,0.5c0.3,0.3,0.5,0.8,0.5,1.4c0,0.6-0.2,1.1-0.5,1.5c-0.3,0.3-0.8,0.5-1.3,0.5
			h-1.6v-3.9H215.5z M214.8,1201.4h0.5c0.3,0,0.6-0.1,0.7-0.3c0.2-0.2,0.3-0.5,0.3-0.9c0-0.4-0.1-0.6-0.3-0.8
			c-0.2-0.2-0.4-0.3-0.7-0.3h-0.5V1201.4z"/>
		<path class="st7" d="M219.8,1202.2l-1.2-3.9h1.1l0.7,2.8h0.1l0.7-2.8h1.1l-1.2,3.9H219.8z"/>
		<path class="st7" d="M223.8,1202.2v-3.9h1v3.9H223.8z"/>
		<path class="st7" d="M227.3,1201.1c0,0.1,0.1,0.3,0.2,0.3c0.1,0.1,0.3,0.1,0.5,0.1c0.2,0,0.3,0,0.4-0.1c0.1-0.1,0.2-0.2,0.2-0.3
			c0-0.1,0-0.2-0.1-0.3c-0.1-0.1-0.2-0.1-0.5-0.2l-0.5-0.1c-0.7-0.1-1.1-0.5-1.1-1.1c0-0.4,0.1-0.7,0.4-0.9c0.3-0.2,0.6-0.3,1.1-0.3
			c0.5,0,0.8,0.1,1.1,0.3c0.3,0.2,0.4,0.5,0.4,0.9h-0.9c0-0.1-0.1-0.2-0.2-0.3c-0.1-0.1-0.3-0.1-0.4-0.1s-0.3,0-0.4,0.1
			c-0.1,0.1-0.2,0.2-0.2,0.3c0,0.2,0.2,0.3,0.6,0.4l0.5,0.1c0.4,0.1,0.7,0.2,0.8,0.4c0.2,0.2,0.3,0.4,0.3,0.7c0,0.4-0.1,0.7-0.4,0.9
			c-0.3,0.2-0.7,0.3-1.2,0.3c-0.5,0-0.9-0.1-1.2-0.3c-0.3-0.2-0.4-0.5-0.4-0.9H227.3z"/>
		<path class="st7" d="M234.3,1198.7c0.3,0.4,0.5,0.9,0.5,1.5c0,0.6-0.2,1.1-0.5,1.5c-0.3,0.4-0.8,0.5-1.4,0.5c-0.6,0-1-0.2-1.4-0.5
			c-0.3-0.4-0.5-0.9-0.5-1.5c0-0.6,0.2-1.1,0.5-1.5c0.3-0.4,0.8-0.5,1.4-0.5C233.5,1198.2,233.9,1198.4,234.3,1198.7z M232.2,1199.3
			c-0.2,0.2-0.2,0.5-0.2,0.9c0,0.4,0.1,0.7,0.2,0.9c0.2,0.2,0.4,0.3,0.7,0.3c0.3,0,0.5-0.1,0.7-0.3c0.2-0.2,0.2-0.5,0.2-0.9
			c0-0.4-0.1-0.7-0.2-0.9c-0.2-0.2-0.4-0.3-0.7-0.3C232.6,1199,232.4,1199.1,232.2,1199.3z"/>
		<path class="st7" d="M237.3,1202.2h-1v-3.9h1.7c0.5,0,0.8,0.1,1.1,0.3c0.3,0.2,0.4,0.5,0.4,0.9c0,0.2-0.1,0.5-0.2,0.7
			c-0.1,0.2-0.3,0.3-0.5,0.4l0.8,1.5h-1.1l-0.7-1.3h-0.5V1202.2z M237.3,1200.1h0.6c0.2,0,0.3,0,0.4-0.1s0.2-0.2,0.2-0.4
			c0-0.2-0.1-0.3-0.2-0.4c-0.1-0.1-0.2-0.1-0.4-0.1h-0.6V1200.1z"/>
		<path class="st7" d="M245.9,1202.2h-2.6v-3.9h1v3h1.6V1202.2z"/>
		<path class="st7" d="M250.1,1202.2h-2.6v-3.9h1v3h1.6V1202.2z"/>
		<path class="st7" d="M252,1201.7c-0.3-0.4-0.5-0.9-0.5-1.5s0.2-1.1,0.5-1.5c0.3-0.4,0.8-0.5,1.4-0.5c0.5,0,0.9,0.1,1.2,0.4
			c0.3,0.3,0.5,0.7,0.5,1.1h-0.9c0-0.2-0.1-0.4-0.3-0.5c-0.1-0.1-0.3-0.2-0.5-0.2c-0.3,0-0.5,0.1-0.6,0.3c-0.2,0.2-0.2,0.5-0.2,0.9
			c0,0.4,0.1,0.7,0.2,0.9s0.4,0.3,0.6,0.3c0.2,0,0.4-0.1,0.5-0.2c0.1-0.1,0.2-0.3,0.3-0.5h0.9c0,0.4-0.2,0.8-0.5,1.1
			c-0.3,0.3-0.7,0.4-1.2,0.4C252.8,1202.3,252.3,1202.1,252,1201.7z"/>
	</g>
	<path id="nose_mobile" class="st8" d="M137.2,207.1c0,0,19.2-91.8,74.8-90.3c0,0,52.9-5.2,74.5,89.3"/>
	<g id="wings_back">
		<path class="st9" d="M121.9,1082l21.3-17.5l15.5-28.3c0,0,20.3,78.3,37.4,121.5c0,0-15.7,2.2-23.7,6.4l-50.4,23.4V1082z"/>
		<path class="st9" d="M303,1082l-21.3-17.5l-15.5-28.3c0,0-20.2,77.6-37.4,121.5c0,0,15.7,2.2,23.7,6.4l50.5,23.4V1082z"/>
	</g>
</g>
<g id="WINGS">
	<g>
		<g id="wings_4_">
			<polygon class="st10" points="131.7,516.9 10.9,560.5 10.9,875.2 131.7,839.3 			"/>
		</g>
		<g id="wings_1_">
			<polygon class="st10" points="293.3,516.9 414.1,560.5 414.1,875.2 293.3,839.3 			"/>
		</g>
	</g>
</g>
<g id="labels">
	<g>
		<path class="st11" d="M192.8,200.1h-3.5v-5.2h3.5v1.1h-2.2v1h2.1v1h-2.1v1.1h2.2V200.1z"/>
		<path class="st11" d="M195.5,199.5c-0.4-0.5-0.7-1.1-0.7-2s0.2-1.5,0.7-2c0.4-0.5,1.1-0.7,1.8-0.7c0.6,0,1.2,0.2,1.6,0.6
			c0.4,0.4,0.7,0.9,0.7,1.5h-1.3c0-0.3-0.1-0.5-0.3-0.7c-0.2-0.2-0.4-0.3-0.7-0.3c-0.4,0-0.6,0.1-0.8,0.4c-0.2,0.3-0.3,0.7-0.3,1.2
			c0,0.5,0.1,0.9,0.3,1.2c0.2,0.3,0.5,0.4,0.9,0.4c0.3,0,0.5-0.1,0.7-0.3c0.2-0.2,0.3-0.4,0.3-0.7h1.3c0,0.6-0.2,1.1-0.7,1.4
			c-0.4,0.4-1,0.6-1.6,0.6C196.5,200.2,195.9,200,195.5,199.5z"/>
		<path class="st11" d="M205.8,195.5c0.5,0.5,0.7,1.2,0.7,2c0,0.8-0.2,1.5-0.7,2c-0.5,0.5-1.1,0.7-1.9,0.7c-0.8,0-1.4-0.2-1.9-0.7
			c-0.5-0.5-0.7-1.2-0.7-2c0-0.8,0.2-1.5,0.7-2c0.5-0.5,1.1-0.7,1.9-0.7S205.4,195,205.8,195.5z M203.1,196.3
			c-0.2,0.3-0.3,0.7-0.3,1.2c0,0.5,0.1,0.9,0.3,1.2s0.5,0.4,0.9,0.4c0.4,0,0.7-0.1,0.9-0.4c0.2-0.3,0.3-0.7,0.3-1.2
			c0-0.5-0.1-0.9-0.3-1.2c-0.2-0.3-0.5-0.4-0.9-0.4C203.6,195.9,203.3,196,203.1,196.3z"/>
		<path class="st11" d="M208.6,200.1v-5.2h1l2.1,2.9h0.1v-2.9h1.2v5.2h-1l-2.2-2.9h-0.1v2.9H208.6z"/>
		<path class="st11" d="M219.5,195.5c0.5,0.5,0.7,1.2,0.7,2c0,0.8-0.2,1.5-0.7,2c-0.5,0.5-1.1,0.7-1.9,0.7c-0.8,0-1.4-0.2-1.9-0.7
			c-0.5-0.5-0.7-1.2-0.7-2c0-0.8,0.2-1.5,0.7-2c0.5-0.5,1.1-0.7,1.9-0.7S219.1,195,219.5,195.5z M216.8,196.3
			c-0.2,0.3-0.3,0.7-0.3,1.2c0,0.5,0.1,0.9,0.3,1.2s0.5,0.4,0.9,0.4c0.4,0,0.7-0.1,0.9-0.4c0.2-0.3,0.3-0.7,0.3-1.2
			c0-0.5-0.1-0.9-0.3-1.2c-0.2-0.3-0.5-0.4-0.9-0.4C217.3,195.9,217,196,216.8,196.3z"/>
		<path class="st11" d="M222.3,200.1v-5.2h1.5l1.3,3.2h0.1l1.2-3.2h1.5v5.2h-1.2v-3.3h-0.1l-1.1,2.9h-0.8l-1.2-2.9h-0.1v3.3H222.3z"
			/>
		<path class="st11" d="M231.7,200.1v-1.8l-1.8-3.4h1.4l1,2.1h0.1l1-2.1h1.4l-1.8,3.4v1.8H231.7z"/>
	</g>
</g>
<g id="Layer_10" class="st12">
	<g>
		<defs>
			<path id="SVGID_21_" d="M134.2,210.4h42.6c0.3,0,0.5,0.2,0.5,0.4v50c0,0.2-0.2,0.4-0.5,0.4h-42.6c-0.3,0-0.5-0.2-0.5-0.4l0-50
				c0-0.2,0.5-0.4,0.7-0.4H134.2z"/>
		</defs>
		<use xlink:href="#SVGID_21_"  style="overflow:visible;fill-rule:evenodd;clip-rule:evenodd;fill:#2DB4D0;"/>
		<clipPath id="SVGID_22_">
			<use xlink:href="#SVGID_21_"  style="overflow:visible;"/>
		</clipPath>
	</g>
	<g>
		<defs>
			<path id="SVGID_23_" d="M210,260.2h80.3c0.3,0,0.5,0.2,0.5,0.4V311c0,0.2-0.2,0.4-0.5,0.4H210c-0.3,0-0.5-0.2-0.5-0.4l0-50.3
				c0-0.2,0.5-0.4,0.8-0.4H210z"/>
		</defs>
		<use xlink:href="#SVGID_23_"  style="overflow:visible;fill-rule:evenodd;clip-rule:evenodd;fill:#2DB4D0;"/>
		<clipPath id="SVGID_24_">
			<use xlink:href="#SVGID_23_"  style="overflow:visible;"/>
		</clipPath>
	</g>
	<g>
		<defs>
			<path id="SVGID_25_" d="M134.2,639.9h42.6c0.3,0,0.5,0.2,0.5,0.4v50c0,0.2-0.2,0.4-0.5,0.4h-42.6c-0.3,0-0.5-0.2-0.5-0.4l0-50
				c0-0.2,0.5-0.4,0.7-0.4H134.2z"/>
		</defs>
		<use xlink:href="#SVGID_25_"  style="overflow:visible;fill-rule:evenodd;clip-rule:evenodd;fill:#2DB4D0;"/>
		<clipPath id="SVGID_26_">
			<use xlink:href="#SVGID_25_"  style="overflow:visible;"/>
		</clipPath>
	</g>
	<g>
		<defs>
			<path id="SVGID_27_" d="M210,639.9h80.3c0.3,0,0.5,0.2,0.5,0.4v50.3c0,0.2-0.2,0.4-0.5,0.4H210c-0.3,0-0.5-0.2-0.5-0.4l0-50.3
				c0-0.2,0.5-0.4,0.8-0.4H210z"/>
		</defs>
		<use xlink:href="#SVGID_27_"  style="overflow:visible;fill-rule:evenodd;clip-rule:evenodd;fill:#2DB4D0;"/>
		<clipPath id="SVGID_28_">
			<use xlink:href="#SVGID_27_"  style="overflow:visible;"/>
		</clipPath>
	</g>
</g>
<g id="colors">
	<path class="st13" d="M174.1,220.3c-0.1-0.1-0.4-2.7-3.1-2.9c-0.5-3.3-4.4-4-4.4-4s-15.6,0-21.5,0c-4.5,0-5.4,2.7-5.7,4
		c-2.8,0.3-3.1,2.9-3.1,2.9s0,24.1,0,31c0,6.9,6,7,6,7s20.6,0,26.5,0c5.9,0,5.4-6.3,5.4-6.3S174.2,220.4,174.1,220.3z"/>
	<path class="st13" d="M250.5,270.6c-0.1-0.1-0.4-2.7-3.1-2.9c-0.5-3.3-4.4-4-4.4-4s-15.6,0-21.5,0c-4.5,0-5.4,2.7-5.7,4
		c-2.8,0.3-3.1,2.9-3.1,2.9s0,24.1,0,31c0,6.9,6,7,6,7s20.6,0,26.5,0c5.9,0,5.4-6.3,5.4-6.3S250.6,270.7,250.5,270.6z"/>
	<path class="st13" d="M288.3,270.6c-0.1-0.1-0.4-2.7-3.1-2.9c-0.5-3.3-4.4-4-4.4-4s-15.6,0-21.5,0c-4.5,0-5.4,2.7-5.7,4
		c-2.8,0.3-3.1,2.9-3.1,2.9s0,24.1,0,31c0,6.9,6,7,6,7s20.6,0,26.5,0c5.9,0,5.4-6.3,5.4-6.3S288.5,270.7,288.3,270.6z"/>
	<path class="st13" d="M174.1,650.1c-0.1-0.1-0.4-2.7-3.1-2.9c-0.5-3.3-4.4-4-4.4-4s-15.6,0-21.5,0c-4.5,0-5.4,2.7-5.7,4
		c-2.8,0.3-3.1,2.9-3.1,2.9s0,24.1,0,31c0,6.9,6,7,6,7s20.6,0,26.5,0c5.9,0,5.4-6.3,5.4-6.3S174.2,650.2,174.1,650.1z"/>
	<path class="st13" d="M250.5,650.1c-0.1-0.1-0.4-2.7-3.1-2.9c-0.5-3.3-4.4-4-4.4-4s-15.6,0-21.5,0c-4.5,0-5.4,2.7-5.7,4
		c-2.8,0.3-3.1,2.9-3.1,2.9s0,24.1,0,31c0,6.9,6,7,6,7s20.6,0,26.5,0c5.9,0,5.4-6.3,5.4-6.3S250.6,650.2,250.5,650.1z"/>
	<path class="st13" d="M288.3,650.1c-0.1-0.1-0.4-2.7-3.1-2.9c-0.5-3.3-4.4-4-4.4-4s-15.6,0-21.5,0c-4.5,0-5.4,2.7-5.7,4
		c-2.8,0.3-3.1,2.9-3.1,2.9s0,24.1,0,31c0,6.9,6,7,6,7s20.6,0,26.5,0c5.9,0,5.4-6.3,5.4-6.3S288.5,650.2,288.3,650.1z"/>
	<path class="st14" d="M174.1,851.3c-0.1-0.1-0.4-2.7-3.1-2.9c-0.5-3.3-4.4-4-4.4-4s-15.6,0-21.5,0c-4.5,0-5.4,2.7-5.7,4
		c-2.8,0.3-3.1,2.9-3.1,2.9s0,24.1,0,31c0,6.9,6,7,6,7s20.6,0,26.5,0c5.9,0,5.4-6.3,5.4-6.3S174.2,851.4,174.1,851.3z"/>
	<path class="st14" d="M250.5,851.3c-0.1-0.1-0.4-2.7-3.1-2.9c-0.5-3.3-4.4-4-4.4-4s-15.6,0-21.5,0c-4.5,0-5.4,2.7-5.7,4
		c-2.8,0.3-3.1,2.9-3.1,2.9s0,24.1,0,31c0,6.9,6,7,6,7s20.6,0,26.5,0c5.9,0,5.4-6.3,5.4-6.3S250.6,851.4,250.5,851.3z"/>
	<path class="st14" d="M288.3,851.3c-0.1-0.1-0.4-2.7-3.1-2.9c-0.5-3.3-4.4-4-4.4-4s-15.6,0-21.5,0c-4.5,0-5.4,2.7-5.7,4
		c-2.8,0.3-3.1,2.9-3.1,2.9s0,24.1,0,31c0,6.9,6,7,6,7s20.6,0,26.5,0c5.9,0,5.4-6.3,5.4-6.3S288.5,851.4,288.3,851.3z"/>
	<path class="st15" d="M174.1,572.4c-0.1-0.1-0.4-2.7-3.1-2.9c-0.5-3.3-4.4-4-4.4-4s-15.6,0-21.5,0c-4.5,0-5.4,2.7-5.7,4
		c-2.8,0.3-3.1,2.9-3.1,2.9s0,24.1,0,31c0,6.9,6,7,6,7s20.6,0,26.5,0c5.9,0,5.4-6.3,5.4-6.3S174.2,572.5,174.1,572.4z"/>
	<path class="st15" d="M250.5,572.4c-0.1-0.1-0.4-2.7-3.1-2.9c-0.5-3.3-4.4-4-4.4-4s-15.6,0-21.5,0c-4.5,0-5.4,2.7-5.7,4
		c-2.8,0.3-3.1,2.9-3.1,2.9s0,24.1,0,31c0,6.9,6,7,6,7s20.6,0,26.5,0c5.9,0,5.4-6.3,5.4-6.3S250.6,572.5,250.5,572.4z"/>
	<path class="st15" d="M288.3,572.4c-0.1-0.1-0.4-2.7-3.1-2.9c-0.5-3.3-4.4-4-4.4-4s-15.6,0-21.5,0c-4.5,0-5.4,2.7-5.7,4
		c-2.8,0.3-3.1,2.9-3.1,2.9s0,24.1,0,31c0,6.9,6,7,6,7s20.6,0,26.5,0c5.9,0,5.4-6.3,5.4-6.3S288.5,572.5,288.3,572.4z"/>
</g>
<g id="seats">
	<g>
		<g>
			<path class="st16" d="M168.7,259h-26.5c-0.1,0-6.7-0.1-6.7-7.7l0-31.1c0.2-1.2,1.3-3.6,4.5-3.6c2.8,0,4.2,1.2,4.2,3.7V246
				c0.3,0.6,2.2,4.4,10.7,4.4c9.2,0,11.6-4.1,11.8-4.5v-25.7c0.1-1.3,0.9-3.7,3.9-3.7c2.1,0,3.4,1.1,4.1,3.3c0,0.1,0,0.1,0,0.1l0,0
				c0.2,0.8,0.2,4.8,0.1,32c0,0.1,0.2,3.2-1.7,5.3C172,258.4,170.5,259,168.7,259z M136.9,220.3v31c0,6.1,5.1,6.3,5.3,6.3h26.5
				c1.5,0,2.6-0.4,3.4-1.3c1.5-1.6,1.3-4.2,1.3-4.3c0-12,0.1-30,0-31.6c0-0.1,0-0.1-0.1-0.2c-0.3-1-0.9-2.3-2.7-2.3
				c-2.3,0-2.5,2.1-2.5,2.3l0,25.7c0,1.2-3.4,5.8-13.2,5.8c-10.2,0-12-5.2-12.1-5.4l0-0.1v-26c0-0.8,0-2.3-2.8-2.3
				C137.4,218,137,220,136.9,220.3z"/>
			<path class="st16" d="M138.6,218.1c0-0.1-0.1-2.1,1.4-3.7c1.1-1.2,2.8-1.8,5-1.8l21.7,0c1.7,0.3,5,1.8,5,5.4h-1.4
				c0-3.2-3.4-4-3.8-4.1H145c-1.8,0-3.1,0.5-4,1.4c-1.1,1.1-1,2.7-1,2.7L138.6,218.1z"/>
		</g>
	</g>
	<g>
		<g>
			<path class="st17" d="M168.7,309.3h-26.5c-0.1,0-6.7-0.1-6.7-7.7l0-31.1c0.2-1.2,1.3-3.6,4.5-3.6c2.8,0,4.2,1.2,4.2,3.7v25.8
				c0.3,0.6,2.2,4.4,10.7,4.4c9.2,0,11.6-4.1,11.8-4.5v-25.7c0.1-1.3,0.9-3.7,3.9-3.7c2.1,0,3.4,1.1,4.1,3.3c0,0.1,0,0.1,0,0.1l0,0
				c0.2,0.8,0.2,4.8,0.1,32c0,0.1,0.2,3.2-1.7,5.3C172,308.7,170.5,309.3,168.7,309.3z M136.9,270.6v31c0,6.1,5.1,6.3,5.3,6.3h26.5
				c1.5,0,2.6-0.4,3.4-1.3c1.5-1.6,1.3-4.2,1.3-4.3c0-12,0.1-30,0-31.6c0-0.1,0-0.1-0.1-0.2c-0.3-1-0.9-2.3-2.7-2.3
				c-2.3,0-2.5,2.1-2.5,2.3l0,25.7c0,1.2-3.4,5.8-13.2,5.8c-10.2,0-12-5.2-12.1-5.4l0-0.1v-26c0-0.8,0-2.3-2.8-2.3
				C137.4,268.3,137,270.3,136.9,270.6z"/>
			<path class="st17" d="M138.6,268.4c0-0.1-0.1-2.1,1.4-3.7c1.1-1.2,2.8-1.8,5-1.8l21.7,0c1.7,0.3,5,1.8,5,5.4h-1.4
				c0-3.2-3.4-4-3.8-4.1H145c-1.8,0-3.1,0.5-4,1.4c-1.1,1.1-1,2.7-1,2.7L138.6,268.4z"/>
		</g>
	</g>
	<g>
		<g>
			<path class="st16" d="M245.1,309.3h-26.5c-0.1,0-6.7-0.1-6.7-7.7l0-31.1c0.2-1.2,1.3-3.6,4.5-3.6c2.8,0,4.2,1.2,4.2,3.7v25.8
				c0.3,0.6,2.2,4.4,10.7,4.4c9.2,0,11.6-4.1,11.8-4.5v-25.7c0.1-1.3,0.9-3.7,3.9-3.7c2.1,0,3.4,1.1,4.1,3.3c0,0.1,0,0.1,0,0.1l0,0
				c0.2,0.8,0.2,4.8,0.1,32c0,0.1,0.2,3.2-1.7,5.3C248.4,308.7,246.9,309.3,245.1,309.3z M213.3,270.6v31c0,6.1,5.1,6.3,5.3,6.3
				h26.5c1.5,0,2.6-0.4,3.4-1.3c1.5-1.6,1.3-4.2,1.3-4.3c0-12,0.1-30,0-31.6c0-0.1,0-0.1-0.1-0.2c-0.3-1-0.9-2.3-2.7-2.3
				c-2.3,0-2.5,2.1-2.5,2.3l0,25.7c0,1.2-3.4,5.8-13.2,5.8c-10.2,0-12-5.2-12.1-5.4l0-0.1v-26c0-0.8,0-2.3-2.8-2.3
				C213.8,268.3,213.4,270.3,213.3,270.6z"/>
			<path class="st16" d="M215,268.4c0-0.1-0.1-2.1,1.4-3.7c1.1-1.2,2.8-1.8,5-1.8l21.7,0c1.7,0.3,5,1.8,5,5.4h-1.4
				c0-3.2-3.4-4-3.8-4.1h-21.5c-1.8,0-3.1,0.5-4,1.4c-1.1,1.1-1,2.7-1,2.7L215,268.4z"/>
		</g>
	</g>
	<g>
		<g>
			<path class="st16" d="M282.9,309.3h-26.5c-0.1,0-6.7-0.1-6.7-7.7l0-31.1c0.2-1.2,1.3-3.6,4.5-3.6c2.8,0,4.2,1.2,4.2,3.7v25.8
				c0.3,0.6,2.2,4.4,10.7,4.4c9.2,0,11.6-4.1,11.8-4.5v-25.7c0.1-1.3,0.9-3.7,3.9-3.7c2.1,0,3.4,1.1,4.1,3.3c0,0.1,0,0.1,0,0.1l0,0
				c0.2,0.8,0.2,4.8,0.1,32c0,0.1,0.2,3.2-1.7,5.3C286.3,308.7,284.8,309.3,282.9,309.3z M251.2,270.6v31c0,6.1,5.1,6.3,5.3,6.3
				h26.5c1.5,0,2.6-0.4,3.4-1.3c1.5-1.6,1.3-4.2,1.3-4.3c0-12,0.1-30,0-31.6c0-0.1,0-0.1-0.1-0.2c-0.3-1-0.9-2.3-2.7-2.3
				c-2.3,0-2.5,2.1-2.5,2.3l0,25.7c0,1.2-3.4,5.8-13.2,5.8c-10.2,0-12-5.2-12.1-5.4l0-0.1v-26c0-0.8,0-2.3-2.8-2.3
				C251.7,268.3,251.2,270.3,251.2,270.6z"/>
			<path class="st16" d="M252.9,268.4c0-0.1-0.1-2.1,1.4-3.7c1.1-1.2,2.8-1.8,5-1.8l21.7,0c1.7,0.3,5,1.8,5,5.4h-1.4
				c0-3.2-3.4-4-3.8-4.1h-21.5c-1.8,0-3.1,0.5-4,1.4c-1.1,1.1-1,2.7-1,2.7L252.9,268.4z"/>
		</g>
	</g>
	<g>
		<g>
			<path class="st16" d="M168.7,688.8h-26.5c-0.1,0-6.7-0.1-6.7-7.7l0-31.1c0.2-1.2,1.3-3.6,4.5-3.6c2.8,0,4.2,1.2,4.2,3.7v25.8
				c0.3,0.6,2.2,4.4,10.7,4.4c9.2,0,11.6-4.1,11.8-4.5v-25.7c0.1-1.3,0.9-3.7,3.9-3.7c2.1,0,3.4,1.1,4.1,3.3c0,0.1,0,0.1,0,0.1l0,0
				c0.2,0.8,0.2,4.8,0.1,32c0,0.1,0.2,3.2-1.7,5.3C172,688.2,170.5,688.8,168.7,688.8z M136.9,650.2v31c0,6.1,5.1,6.3,5.3,6.3h26.5
				c1.5,0,2.6-0.4,3.4-1.3c1.5-1.6,1.3-4.2,1.3-4.3c0-12,0.1-30,0-31.6c0-0.1,0-0.1-0.1-0.2c-0.3-1-0.9-2.3-2.7-2.3
				c-2.3,0-2.5,2.1-2.5,2.3l0,25.7c0,1.2-3.4,5.8-13.2,5.8c-10.2,0-12-5.2-12.1-5.4l0-0.1v-26c0-0.8,0-2.3-2.8-2.3
				C137.4,647.8,137,649.8,136.9,650.2z"/>
			<path class="st16" d="M138.6,648c0-0.1-0.1-2.1,1.4-3.7c1.1-1.2,2.8-1.8,5-1.8l21.7,0c1.7,0.3,5,1.8,5,5.4h-1.4
				c0-3.2-3.4-4-3.8-4.1H145c-1.8,0-3.1,0.5-4,1.4c-1.1,1.1-1,2.7-1,2.7L138.6,648z"/>
		</g>
	</g>
	<g>
		<g>
			<path class="st16" d="M245.1,688.8h-26.5c-0.1,0-6.7-0.1-6.7-7.7l0-31.1c0.2-1.2,1.3-3.6,4.5-3.6c2.8,0,4.2,1.2,4.2,3.7v25.8
				c0.3,0.6,2.2,4.4,10.7,4.4c9.2,0,11.6-4.1,11.8-4.5v-25.7c0.1-1.3,0.9-3.7,3.9-3.7c2.1,0,3.4,1.1,4.1,3.3c0,0.1,0,0.1,0,0.1l0,0
				c0.2,0.8,0.2,4.8,0.1,32c0,0.1,0.2,3.2-1.7,5.3C248.4,688.2,246.9,688.8,245.1,688.8z M213.3,650.2v31c0,6.1,5.1,6.3,5.3,6.3
				h26.5c1.5,0,2.6-0.4,3.4-1.3c1.5-1.6,1.3-4.2,1.3-4.3c0-12,0.1-30,0-31.6c0-0.1,0-0.1-0.1-0.2c-0.3-1-0.9-2.3-2.7-2.3
				c-2.3,0-2.5,2.1-2.5,2.3l0,25.7c0,1.2-3.4,5.8-13.2,5.8c-10.2,0-12-5.2-12.1-5.4l0-0.1v-26c0-0.8,0-2.3-2.8-2.3
				C213.8,647.8,213.4,649.8,213.3,650.2z"/>
			<path class="st16" d="M215,648c0-0.1-0.1-2.1,1.4-3.7c1.1-1.2,2.8-1.8,5-1.8l21.7,0c1.7,0.3,5,1.8,5,5.4h-1.4
				c0-3.2-3.4-4-3.8-4.1h-21.5c-1.8,0-3.1,0.5-4,1.4c-1.1,1.1-1,2.7-1,2.7L215,648z"/>
		</g>
	</g>
	<g>
		<g>
			<path class="st16" d="M282.9,688.8h-26.5c-0.1,0-6.7-0.1-6.7-7.7l0-31.1c0.2-1.2,1.3-3.6,4.5-3.6c2.8,0,4.2,1.2,4.2,3.7v25.8
				c0.3,0.6,2.2,4.4,10.7,4.4c9.2,0,11.6-4.1,11.8-4.5v-25.7c0.1-1.3,0.9-3.7,3.9-3.7c2.1,0,3.4,1.1,4.1,3.3c0,0.1,0,0.1,0,0.1l0,0
				c0.2,0.8,0.2,4.8,0.1,32c0,0.1,0.2,3.2-1.7,5.3C286.3,688.2,284.8,688.8,282.9,688.8z M251.2,650.2v31c0,6.1,5.1,6.3,5.3,6.3
				h26.5c1.5,0,2.6-0.4,3.4-1.3c1.5-1.6,1.3-4.2,1.3-4.3c0-12,0.1-30,0-31.6c0-0.1,0-0.1-0.1-0.2c-0.3-1-0.9-2.3-2.7-2.3
				c-2.3,0-2.5,2.1-2.5,2.3l0,25.7c0,1.2-3.4,5.8-13.2,5.8c-10.2,0-12-5.2-12.1-5.4l0-0.1v-26c0-0.8,0-2.3-2.8-2.3
				C251.7,647.8,251.2,649.8,251.2,650.2z"/>
			<path class="st16" d="M252.9,648c0-0.1-0.1-2.1,1.4-3.7c1.1-1.2,2.8-1.8,5-1.8l21.7,0c1.7,0.3,5,1.8,5,5.4h-1.4
				c0-3.2-3.4-4-3.8-4.1h-21.5c-1.8,0-3.1,0.5-4,1.4c-1.1,1.1-1,2.7-1,2.7L252.9,648z"/>
		</g>
	</g>
	<g>
		<g>
			<path class="st18" d="M168.7,890h-26.5c-0.1,0-6.7-0.1-6.7-7.7l0-31.1c0.2-1.2,1.3-3.6,4.5-3.6c2.8,0,4.2,1.2,4.2,3.7v25.8
				c0.3,0.6,2.2,4.4,10.7,4.4c9.2,0,11.6-4.1,11.8-4.5v-25.7c0.1-1.3,0.9-3.7,3.9-3.7c2.1,0,3.4,1.1,4.1,3.3c0,0.1,0,0.1,0,0.1l0,0
				c0.2,0.8,0.2,4.8,0.1,32c0,0.1,0.2,3.2-1.7,5.3C172,889.4,170.5,890,168.7,890z M136.9,851.4v31c0,6.1,5.1,6.3,5.3,6.3h26.5
				c1.5,0,2.6-0.4,3.4-1.3c1.5-1.6,1.3-4.2,1.3-4.3c0-12,0.1-30,0-31.6c0-0.1,0-0.1-0.1-0.2c-0.3-1-0.9-2.3-2.7-2.3
				c-2.3,0-2.5,2.1-2.5,2.3l0,25.7c0,1.2-3.4,5.8-13.2,5.8c-10.2,0-12-5.2-12.1-5.4l0-0.1v-26c0-0.8,0-2.3-2.8-2.3
				C137.4,849,137,851,136.9,851.4z"/>
			<path class="st18" d="M138.6,849.2c0-0.1-0.1-2.1,1.4-3.7c1.1-1.2,2.8-1.8,5-1.8l21.7,0c1.7,0.3,5,1.8,5,5.4h-1.4
				c0-3.2-3.4-4-3.8-4.1H145c-1.8,0-3.1,0.5-4,1.4c-1.1,1.1-1,2.7-1,2.7L138.6,849.2z"/>
		</g>
	</g>
	<g>
		<g>
			<path class="st18" d="M245.1,890h-26.5c-0.1,0-6.7-0.1-6.7-7.7l0-31.1c0.2-1.2,1.3-3.6,4.5-3.6c2.8,0,4.2,1.2,4.2,3.7v25.8
				c0.3,0.6,2.2,4.4,10.7,4.4c9.2,0,11.6-4.1,11.8-4.5v-25.7c0.1-1.3,0.9-3.7,3.9-3.7c2.1,0,3.4,1.1,4.1,3.3c0,0.1,0,0.1,0,0.1l0,0
				c0.2,0.8,0.2,4.8,0.1,32c0,0.1,0.2,3.2-1.7,5.3C248.4,889.4,246.9,890,245.1,890z M213.3,851.4v31c0,6.1,5.1,6.3,5.3,6.3h26.5
				c1.5,0,2.6-0.4,3.4-1.3c1.5-1.6,1.3-4.2,1.3-4.3c0-12,0.1-30,0-31.6c0-0.1,0-0.1-0.1-0.2c-0.3-1-0.9-2.3-2.7-2.3
				c-2.3,0-2.5,2.1-2.5,2.3l0,25.7c0,1.2-3.4,5.8-13.2,5.8c-10.2,0-12-5.2-12.1-5.4l0-0.1v-26c0-0.8,0-2.3-2.8-2.3
				C213.8,849,213.4,851,213.3,851.4z"/>
			<path class="st18" d="M215,849.2c0-0.1-0.1-2.1,1.4-3.7c1.1-1.2,2.8-1.8,5-1.8l21.7,0c1.7,0.3,5,1.8,5,5.4h-1.4
				c0-3.2-3.4-4-3.8-4.1h-21.5c-1.8,0-3.1,0.5-4,1.4c-1.1,1.1-1,2.7-1,2.7L215,849.2z"/>
		</g>
	</g>
	<g>
		<g>
			<path class="st18" d="M282.9,890h-26.5c-0.1,0-6.7-0.1-6.7-7.7l0-31.1c0.2-1.2,1.3-3.6,4.5-3.6c2.8,0,4.2,1.2,4.2,3.7v25.8
				c0.3,0.6,2.2,4.4,10.7,4.4c9.2,0,11.6-4.1,11.8-4.5v-25.7c0.1-1.3,0.9-3.7,3.9-3.7c2.1,0,3.4,1.1,4.1,3.3c0,0.1,0,0.1,0,0.1l0,0
				c0.2,0.8,0.2,4.8,0.1,32c0,0.1,0.2,3.2-1.7,5.3C286.3,889.4,284.8,890,282.9,890z M251.2,851.4v31c0,6.1,5.1,6.3,5.3,6.3h26.5
				c1.5,0,2.6-0.4,3.4-1.3c1.5-1.6,1.3-4.2,1.3-4.3c0-12,0.1-30,0-31.6c0-0.1,0-0.1-0.1-0.2c-0.3-1-0.9-2.3-2.7-2.3
				c-2.3,0-2.5,2.1-2.5,2.3l0,25.7c0,1.2-3.4,5.8-13.2,5.8c-10.2,0-12-5.2-12.1-5.4l0-0.1v-26c0-0.8,0-2.3-2.8-2.3
				C251.7,849,251.2,851,251.2,851.4z"/>
			<path class="st18" d="M252.9,849.2c0-0.1-0.1-2.1,1.4-3.7c1.1-1.2,2.8-1.8,5-1.8l21.7,0c1.7,0.3,5,1.8,5,5.4h-1.4
				c0-3.2-3.4-4-3.8-4.1h-21.5c-1.8,0-3.1,0.5-4,1.4c-1.1,1.1-1,2.7-1,2.7L252.9,849.2z"/>
		</g>
	</g>
	<g>
		<g>
			<path class="st19" d="M168.7,611.1h-26.5c-0.1,0-6.7-0.1-6.7-7.7l0-31.1c0.2-1.2,1.3-3.6,4.5-3.6c2.8,0,4.2,1.2,4.2,3.7v25.8
				c0.3,0.6,2.2,4.4,10.7,4.4c9.2,0,11.6-4.1,11.8-4.5v-25.7c0.1-1.3,0.9-3.7,3.9-3.7c2.1,0,3.4,1.1,4.1,3.3c0,0.1,0,0.1,0,0.1l0,0
				c0.2,0.8,0.2,4.8,0.1,32c0,0.1,0.2,3.2-1.7,5.3C172,610.5,170.5,611.1,168.7,611.1z M136.9,572.4v31c0,6.1,5.1,6.3,5.3,6.3h26.5
				c1.5,0,2.6-0.4,3.4-1.3c1.5-1.6,1.3-4.2,1.3-4.3c0-12,0.1-30,0-31.6c0-0.1,0-0.1-0.1-0.2c-0.3-1-0.9-2.3-2.7-2.3
				c-2.3,0-2.5,2.1-2.5,2.3l0,25.7c0,1.2-3.4,5.8-13.2,5.8c-10.2,0-12-5.2-12.1-5.4l0-0.1v-26c0-0.8,0-2.3-2.8-2.3
				C137.4,570.1,137,572.1,136.9,572.4z"/>
			<path class="st19" d="M138.6,570.2c0-0.1-0.1-2.1,1.4-3.7c1.1-1.2,2.8-1.8,5-1.8l21.7,0c1.7,0.3,5,1.8,5,5.4h-1.4
				c0-3.2-3.4-4-3.8-4.1H145c-1.8,0-3.1,0.5-4,1.4c-1.1,1.1-1,2.7-1,2.7L138.6,570.2z"/>
		</g>
	</g>
	<g>
		<g>
			<path class="st19" d="M245.1,611.1h-26.5c-0.1,0-6.7-0.1-6.7-7.7l0-31.1c0.2-1.2,1.3-3.6,4.5-3.6c2.8,0,4.2,1.2,4.2,3.7v25.8
				c0.3,0.6,2.2,4.4,10.7,4.4c9.2,0,11.6-4.1,11.8-4.5v-25.7c0.1-1.3,0.9-3.7,3.9-3.7c2.1,0,3.4,1.1,4.1,3.3c0,0.1,0,0.1,0,0.1l0,0
				c0.2,0.8,0.2,4.8,0.1,32c0,0.1,0.2,3.2-1.7,5.3C248.4,610.5,246.9,611.1,245.1,611.1z M213.3,572.4v31c0,6.1,5.1,6.3,5.3,6.3
				h26.5c1.5,0,2.6-0.4,3.4-1.3c1.5-1.6,1.3-4.2,1.3-4.3c0-12,0.1-30,0-31.6c0-0.1,0-0.1-0.1-0.2c-0.3-1-0.9-2.3-2.7-2.3
				c-2.3,0-2.5,2.1-2.5,2.3l0,25.7c0,1.2-3.4,5.8-13.2,5.8c-10.2,0-12-5.2-12.1-5.4l0-0.1v-26c0-0.8,0-2.3-2.8-2.3
				C213.8,570.1,213.4,572.1,213.3,572.4z"/>
			<path class="st19" d="M215,570.2c0-0.1-0.1-2.1,1.4-3.7c1.1-1.2,2.8-1.8,5-1.8l21.7,0c1.7,0.3,5,1.8,5,5.4h-1.4
				c0-3.2-3.4-4-3.8-4.1h-21.5c-1.8,0-3.1,0.5-4,1.4c-1.1,1.1-1,2.7-1,2.7L215,570.2z"/>
		</g>
	</g>
	<g>
		<g>
			<path class="st19" d="M282.9,611.1h-26.5c-0.1,0-6.7-0.1-6.7-7.7l0-31.1c0.2-1.2,1.3-3.6,4.5-3.6c2.8,0,4.2,1.2,4.2,3.7v25.8
				c0.3,0.6,2.2,4.4,10.7,4.4c9.2,0,11.6-4.1,11.8-4.5v-25.7c0.1-1.3,0.9-3.7,3.9-3.7c2.1,0,3.4,1.1,4.1,3.3c0,0.1,0,0.1,0,0.1l0,0
				c0.2,0.8,0.2,4.8,0.1,32c0,0.1,0.2,3.2-1.7,5.3C286.3,610.5,284.8,611.1,282.9,611.1z M251.2,572.4v31c0,6.1,5.1,6.3,5.3,6.3
				h26.5c1.5,0,2.6-0.4,3.4-1.3c1.5-1.6,1.3-4.2,1.3-4.3c0-12,0.1-30,0-31.6c0-0.1,0-0.1-0.1-0.2c-0.3-1-0.9-2.3-2.7-2.3
				c-2.3,0-2.5,2.1-2.5,2.3l0,25.7c0,1.2-3.4,5.8-13.2,5.8c-10.2,0-12-5.2-12.1-5.4l0-0.1v-26c0-0.8,0-2.3-2.8-2.3
				C251.7,570.1,251.2,572.1,251.2,572.4z"/>
			<path class="st19" d="M252.9,570.2c0-0.1-0.1-2.1,1.4-3.7c1.1-1.2,2.8-1.8,5-1.8l21.7,0c1.7,0.3,5,1.8,5,5.4h-1.4
				c0-3.2-3.4-4-3.8-4.1h-21.5c-1.8,0-3.1,0.5-4,1.4c-1.1,1.1-1,2.7-1,2.7L252.9,570.2z"/>
		</g>
	</g>
	<g>
		<g>
			<path class="st17" d="M168.7,359.6h-26.5c-0.1,0-6.7-0.1-6.7-7.7l0-31.1c0.2-1.2,1.3-3.6,4.5-3.6c2.8,0,4.2,1.2,4.2,3.7v25.8
				c0.3,0.6,2.2,4.4,10.7,4.4c9.2,0,11.6-4.1,11.8-4.5v-25.7c0.1-1.3,0.9-3.7,3.9-3.7c2.1,0,3.4,1.1,4.1,3.3c0,0.1,0,0.1,0,0.1l0,0
				c0.2,0.8,0.2,4.8,0.1,32c0,0.1,0.2,3.2-1.7,5.3C172,359,170.5,359.6,168.7,359.6z M136.9,320.9v31c0,6.1,5.1,6.3,5.3,6.3h26.5
				c1.5,0,2.6-0.4,3.4-1.3c1.5-1.6,1.3-4.2,1.3-4.3c0-12,0.1-30,0-31.6c0-0.1,0-0.1-0.1-0.2c-0.3-1-0.9-2.3-2.7-2.3
				c-2.3,0-2.5,2.1-2.5,2.3l0,25.7c0,1.2-3.4,5.8-13.2,5.8c-10.2,0-12-5.2-12.1-5.4l0-0.1v-26c0-0.8,0-2.3-2.8-2.3
				C137.4,318.6,137,320.6,136.9,320.9z"/>
			<path class="st17" d="M138.6,318.7c0-0.1-0.1-2.1,1.4-3.7c1.1-1.2,2.8-1.8,5-1.8l21.7,0c1.7,0.3,5,1.8,5,5.4h-1.4
				c0-3.2-3.4-4-3.8-4.1H145c-1.8,0-3.1,0.5-4,1.4c-1.1,1.1-1,2.7-1,2.7L138.6,318.7z"/>
		</g>
	</g>
	<g>
		<g>
			<path class="st17" d="M245.1,359.6h-26.5c-0.1,0-6.7-0.1-6.7-7.7l0-31.1c0.2-1.2,1.3-3.6,4.5-3.6c2.8,0,4.2,1.2,4.2,3.7v25.8
				c0.3,0.6,2.2,4.4,10.7,4.4c9.2,0,11.6-4.1,11.8-4.5v-25.7c0.1-1.3,0.9-3.7,3.9-3.7c2.1,0,3.4,1.1,4.1,3.3c0,0.1,0,0.1,0,0.1l0,0
				c0.2,0.8,0.2,4.8,0.1,32c0,0.1,0.2,3.2-1.7,5.3C248.4,359,246.9,359.6,245.1,359.6z M213.3,320.9v31c0,6.1,5.1,6.3,5.3,6.3h26.5
				c1.5,0,2.6-0.4,3.4-1.3c1.5-1.6,1.3-4.2,1.3-4.3c0-12,0.1-30,0-31.6c0-0.1,0-0.1-0.1-0.2c-0.3-1-0.9-2.3-2.7-2.3
				c-2.3,0-2.5,2.1-2.5,2.3l0,25.7c0,1.2-3.4,5.8-13.2,5.8c-10.2,0-12-5.2-12.1-5.4l0-0.1v-26c0-0.8,0-2.3-2.8-2.3
				C213.8,318.6,213.4,320.6,213.3,320.9z"/>
			<path class="st17" d="M215,318.7c0-0.1-0.1-2.1,1.4-3.7c1.1-1.2,2.8-1.8,5-1.8l21.7,0c1.7,0.3,5,1.8,5,5.4h-1.4
				c0-3.2-3.4-4-3.8-4.1h-21.5c-1.8,0-3.1,0.5-4,1.4c-1.1,1.1-1,2.7-1,2.7L215,318.7z"/>
		</g>
	</g>
	<g>
		<g>
			<path class="st17" d="M282.9,359.6h-26.5c-0.1,0-6.7-0.1-6.7-7.7l0-31.1c0.2-1.2,1.3-3.6,4.5-3.6c2.8,0,4.2,1.2,4.2,3.7v25.8
				c0.3,0.6,2.2,4.4,10.7,4.4c9.2,0,11.6-4.1,11.8-4.5v-25.7c0.1-1.3,0.9-3.7,3.9-3.7c2.1,0,3.4,1.1,4.1,3.3c0,0.1,0,0.1,0,0.1l0,0
				c0.2,0.8,0.2,4.8,0.1,32c0,0.1,0.2,3.2-1.7,5.3C286.3,359,284.8,359.6,282.9,359.6z M251.2,320.9v31c0,6.1,5.1,6.3,5.3,6.3h26.5
				c1.5,0,2.6-0.4,3.4-1.3c1.5-1.6,1.3-4.2,1.3-4.3c0-12,0.1-30,0-31.6c0-0.1,0-0.1-0.1-0.2c-0.3-1-0.9-2.3-2.7-2.3
				c-2.3,0-2.5,2.1-2.5,2.3l0,25.7c0,1.2-3.4,5.8-13.2,5.8c-10.2,0-12-5.2-12.1-5.4l0-0.1v-26c0-0.8,0-2.3-2.8-2.3
				C251.7,318.6,251.2,320.6,251.2,320.9z"/>
			<path class="st17" d="M252.9,318.7c0-0.1-0.1-2.1,1.4-3.7c1.1-1.2,2.8-1.8,5-1.8l21.7,0c1.7,0.3,5,1.8,5,5.4h-1.4
				c0-3.2-3.4-4-3.8-4.1h-21.5c-1.8,0-3.1,0.5-4,1.4c-1.1,1.1-1,2.7-1,2.7L252.9,318.7z"/>
		</g>
	</g>
	<g>
		<g>
			<path class="st17" d="M168.7,409.9h-26.5c-0.1,0-6.7-0.1-6.7-7.7l0-31.1c0.2-1.2,1.3-3.6,4.5-3.6c2.8,0,4.2,1.2,4.2,3.7v25.8
				c0.3,0.6,2.2,4.4,10.7,4.4c9.2,0,11.6-4.1,11.8-4.5v-25.7c0.1-1.3,0.9-3.7,3.9-3.7c2.1,0,3.4,1.1,4.1,3.3c0,0.1,0,0.1,0,0.1l0,0
				c0.2,0.8,0.2,4.8,0.1,32c0,0.1,0.2,3.2-1.7,5.3C172,409.3,170.5,409.9,168.7,409.9z M136.9,371.2v31c0,6.1,5.1,6.3,5.3,6.3h26.5
				c1.5,0,2.6-0.4,3.4-1.3c1.5-1.6,1.3-4.2,1.3-4.3c0-12,0.1-30,0-31.6c0-0.1,0-0.1-0.1-0.2c-0.3-1-0.9-2.3-2.7-2.3
				c-2.3,0-2.5,2.1-2.5,2.3l0,25.7c0,1.2-3.4,5.8-13.2,5.8c-10.2,0-12-5.2-12.1-5.4l0-0.1v-26c0-0.8,0-2.3-2.8-2.3
				C137.4,368.9,137,370.9,136.9,371.2z"/>
			<path class="st17" d="M138.6,369c0-0.1-0.1-2.1,1.4-3.7c1.1-1.2,2.8-1.8,5-1.8l21.7,0c1.7,0.3,5,1.8,5,5.4h-1.4
				c0-3.2-3.4-4-3.8-4.1H145c-1.8,0-3.1,0.5-4,1.4c-1.1,1.1-1,2.7-1,2.7L138.6,369z"/>
		</g>
	</g>
	<g>
		<g>
			<path class="st17" d="M245.1,409.9h-26.5c-0.1,0-6.7-0.1-6.7-7.7l0-31.1c0.2-1.2,1.3-3.6,4.5-3.6c2.8,0,4.2,1.2,4.2,3.7v25.8
				c0.3,0.6,2.2,4.4,10.7,4.4c9.2,0,11.6-4.1,11.8-4.5v-25.7c0.1-1.3,0.9-3.7,3.9-3.7c2.1,0,3.4,1.1,4.1,3.3c0,0.1,0,0.1,0,0.1l0,0
				c0.2,0.8,0.2,4.8,0.1,32c0,0.1,0.2,3.2-1.7,5.3C248.4,409.3,246.9,409.9,245.1,409.9z M213.3,371.2v31c0,6.1,5.1,6.3,5.3,6.3
				h26.5c1.5,0,2.6-0.4,3.4-1.3c1.5-1.6,1.3-4.2,1.3-4.3c0-12,0.1-30,0-31.6c0-0.1,0-0.1-0.1-0.2c-0.3-1-0.9-2.3-2.7-2.3
				c-2.3,0-2.5,2.1-2.5,2.3l0,25.7c0,1.2-3.4,5.8-13.2,5.8c-10.2,0-12-5.2-12.1-5.4l0-0.1v-26c0-0.8,0-2.3-2.8-2.3
				C213.8,368.9,213.4,370.9,213.3,371.2z"/>
			<path class="st17" d="M215,369c0-0.1-0.1-2.1,1.4-3.7c1.1-1.2,2.8-1.8,5-1.8l21.7,0c1.7,0.3,5,1.8,5,5.4h-1.4
				c0-3.2-3.4-4-3.8-4.1h-21.5c-1.8,0-3.1,0.5-4,1.4c-1.1,1.1-1,2.7-1,2.7L215,369z"/>
		</g>
	</g>
	<g>
		<g>
			<path class="st17" d="M282.9,409.9h-26.5c-0.1,0-6.7-0.1-6.7-7.7l0-31.1c0.2-1.2,1.3-3.6,4.5-3.6c2.8,0,4.2,1.2,4.2,3.7v25.8
				c0.3,0.6,2.2,4.4,10.7,4.4c9.2,0,11.6-4.1,11.8-4.5v-25.7c0.1-1.3,0.9-3.7,3.9-3.7c2.1,0,3.4,1.1,4.1,3.3c0,0.1,0,0.1,0,0.1l0,0
				c0.2,0.8,0.2,4.8,0.1,32c0,0.1,0.2,3.2-1.7,5.3C286.3,409.3,284.8,409.9,282.9,409.9z M251.2,371.2v31c0,6.1,5.1,6.3,5.3,6.3
				h26.5c1.5,0,2.6-0.4,3.4-1.3c1.5-1.6,1.3-4.2,1.3-4.3c0-12,0.1-30,0-31.6c0-0.1,0-0.1-0.1-0.2c-0.3-1-0.9-2.3-2.7-2.3
				c-2.3,0-2.5,2.1-2.5,2.3l0,25.7c0,1.2-3.4,5.8-13.2,5.8c-10.2,0-12-5.2-12.1-5.4l0-0.1v-26c0-0.8,0-2.3-2.8-2.3
				C251.7,368.9,251.2,370.9,251.2,371.2z"/>
			<path class="st17" d="M252.9,369c0-0.1-0.1-2.1,1.4-3.7c1.1-1.2,2.8-1.8,5-1.8l21.7,0c1.7,0.3,5,1.8,5,5.4h-1.4
				c0-3.2-3.4-4-3.8-4.1h-21.5c-1.8,0-3.1,0.5-4,1.4c-1.1,1.1-1,2.7-1,2.7L252.9,369z"/>
		</g>
	</g>
	<g>
		<g>
			<path class="st17" d="M168.7,460.2h-26.5c-0.1,0-6.7-0.1-6.7-7.7l0-31.1c0.2-1.2,1.3-3.6,4.5-3.6c2.8,0,4.2,1.2,4.2,3.7v25.8
				c0.3,0.6,2.2,4.4,10.7,4.4c9.2,0,11.6-4.1,11.8-4.5v-25.7c0.1-1.3,0.9-3.7,3.9-3.7c2.1,0,3.4,1.1,4.1,3.3c0,0.1,0,0.1,0,0.1l0,0
				c0.2,0.8,0.2,4.8,0.1,32c0,0.1,0.2,3.2-1.7,5.3C172,459.6,170.5,460.2,168.7,460.2z M136.9,421.5v31c0,6.1,5.1,6.3,5.3,6.3h26.5
				c1.5,0,2.6-0.4,3.4-1.3c1.5-1.6,1.3-4.2,1.3-4.3c0-12,0.1-30,0-31.6c0-0.1,0-0.1-0.1-0.2c-0.3-1-0.9-2.3-2.7-2.3
				c-2.3,0-2.5,2.1-2.5,2.3l0,25.7c0,1.2-3.4,5.8-13.2,5.8c-10.2,0-12-5.2-12.1-5.4l0-0.1v-26c0-0.8,0-2.3-2.8-2.3
				C137.4,419.2,137,421.2,136.9,421.5z"/>
			<path class="st17" d="M138.6,419.3c0-0.1-0.1-2.1,1.4-3.7c1.1-1.2,2.8-1.8,5-1.8l21.7,0c1.7,0.3,5,1.8,5,5.4h-1.4
				c0-3.2-3.4-4-3.8-4.1H145c-1.8,0-3.1,0.5-4,1.4c-1.1,1.1-1,2.7-1,2.7L138.6,419.3z"/>
		</g>
	</g>
	<g>
		<g>
			<path class="st17" d="M245.1,460.2h-26.5c-0.1,0-6.7-0.1-6.7-7.7l0-31.1c0.2-1.2,1.3-3.6,4.5-3.6c2.8,0,4.2,1.2,4.2,3.7v25.8
				c0.3,0.6,2.2,4.4,10.7,4.4c9.2,0,11.6-4.1,11.8-4.5v-25.7c0.1-1.3,0.9-3.7,3.9-3.7c2.1,0,3.4,1.1,4.1,3.3c0,0.1,0,0.1,0,0.1l0,0
				c0.2,0.8,0.2,4.8,0.1,32c0,0.1,0.2,3.2-1.7,5.3C248.4,459.6,246.9,460.2,245.1,460.2z M213.3,421.5v31c0,6.1,5.1,6.3,5.3,6.3
				h26.5c1.5,0,2.6-0.4,3.4-1.3c1.5-1.6,1.3-4.2,1.3-4.3c0-12,0.1-30,0-31.6c0-0.1,0-0.1-0.1-0.2c-0.3-1-0.9-2.3-2.7-2.3
				c-2.3,0-2.5,2.1-2.5,2.3l0,25.7c0,1.2-3.4,5.8-13.2,5.8c-10.2,0-12-5.2-12.1-5.4l0-0.1v-26c0-0.8,0-2.3-2.8-2.3
				C213.8,419.2,213.4,421.2,213.3,421.5z"/>
			<path class="st17" d="M215,419.3c0-0.1-0.1-2.1,1.4-3.7c1.1-1.2,2.8-1.8,5-1.8l21.7,0c1.7,0.3,5,1.8,5,5.4h-1.4
				c0-3.2-3.4-4-3.8-4.1h-21.5c-1.8,0-3.1,0.5-4,1.4c-1.1,1.1-1,2.7-1,2.7L215,419.3z"/>
		</g>
	</g>
	<g>
		<g>
			<path class="st17" d="M282.9,460.2h-26.5c-0.1,0-6.7-0.1-6.7-7.7l0-31.1c0.2-1.2,1.3-3.6,4.5-3.6c2.8,0,4.2,1.2,4.2,3.7v25.8
				c0.3,0.6,2.2,4.4,10.7,4.4c9.2,0,11.6-4.1,11.8-4.5v-25.7c0.1-1.3,0.9-3.7,3.9-3.7c2.1,0,3.4,1.1,4.1,3.3c0,0.1,0,0.1,0,0.1l0,0
				c0.2,0.8,0.2,4.8,0.1,32c0,0.1,0.2,3.2-1.7,5.3C286.3,459.6,284.8,460.2,282.9,460.2z M251.2,421.5v31c0,6.1,5.1,6.3,5.3,6.3
				h26.5c1.5,0,2.6-0.4,3.4-1.3c1.5-1.6,1.3-4.2,1.3-4.3c0-12,0.1-30,0-31.6c0-0.1,0-0.1-0.1-0.2c-0.3-1-0.9-2.3-2.7-2.3
				c-2.3,0-2.5,2.1-2.5,2.3l0,25.7c0,1.2-3.4,5.8-13.2,5.8c-10.2,0-12-5.2-12.1-5.4l0-0.1v-26c0-0.8,0-2.3-2.8-2.3
				C251.7,419.2,251.2,421.2,251.2,421.5z"/>
			<path class="st17" d="M252.9,419.3c0-0.1-0.1-2.1,1.4-3.7c1.1-1.2,2.8-1.8,5-1.8l21.7,0c1.7,0.3,5,1.8,5,5.4h-1.4
				c0-3.2-3.4-4-3.8-4.1h-21.5c-1.8,0-3.1,0.5-4,1.4c-1.1,1.1-1,2.7-1,2.7L252.9,419.3z"/>
		</g>
	</g>
	<g>
		<g>
			<path class="st17" d="M168.7,510.5h-26.5c-0.1,0-6.7-0.1-6.7-7.7l0-31.1c0.2-1.2,1.3-3.6,4.5-3.6c2.8,0,4.2,1.2,4.2,3.7v25.8
				c0.3,0.6,2.2,4.4,10.7,4.4c9.2,0,11.6-4.1,11.8-4.5v-25.7c0.1-1.3,0.9-3.7,3.9-3.7c2.1,0,3.4,1.1,4.1,3.3c0,0.1,0,0.1,0,0.1l0,0
				c0.2,0.8,0.2,4.8,0.1,32c0,0.1,0.2,3.2-1.7,5.3C172,509.9,170.5,510.5,168.7,510.5z M136.9,471.8v31c0,6.1,5.1,6.3,5.3,6.3h26.5
				c1.5,0,2.6-0.4,3.4-1.3c1.5-1.6,1.3-4.2,1.3-4.3c0-12,0.1-30,0-31.6c0-0.1,0-0.1-0.1-0.2c-0.3-1-0.9-2.3-2.7-2.3
				c-2.3,0-2.5,2.1-2.5,2.3l0,25.7c0,1.2-3.4,5.8-13.2,5.8c-10.2,0-12-5.2-12.1-5.4l0-0.1v-26c0-0.8,0-2.3-2.8-2.3
				C137.4,469.5,137,471.5,136.9,471.8z"/>
			<path class="st17" d="M138.6,469.6c0-0.1-0.1-2.1,1.4-3.7c1.1-1.2,2.8-1.8,5-1.8l21.7,0c1.7,0.3,5,1.8,5,5.4h-1.4
				c0-3.2-3.4-4-3.8-4.1H145c-1.8,0-3.1,0.5-4,1.4c-1.1,1.1-1,2.7-1,2.7L138.6,469.6z"/>
		</g>
	</g>
	<g>
		<g>
			<path class="st17" d="M245.1,510.5h-26.5c-0.1,0-6.7-0.1-6.7-7.7l0-31.1c0.2-1.2,1.3-3.6,4.5-3.6c2.8,0,4.2,1.2,4.2,3.7v25.8
				c0.3,0.6,2.2,4.4,10.7,4.4c9.2,0,11.6-4.1,11.8-4.5v-25.7c0.1-1.3,0.9-3.7,3.9-3.7c2.1,0,3.4,1.1,4.1,3.3c0,0.1,0,0.1,0,0.1l0,0
				c0.2,0.8,0.2,4.8,0.1,32c0,0.1,0.2,3.2-1.7,5.3C248.4,509.9,246.9,510.5,245.1,510.5z M213.3,471.8v31c0,6.1,5.1,6.3,5.3,6.3
				h26.5c1.5,0,2.6-0.4,3.4-1.3c1.5-1.6,1.3-4.2,1.3-4.3c0-12,0.1-30,0-31.6c0-0.1,0-0.1-0.1-0.2c-0.3-1-0.9-2.3-2.7-2.3
				c-2.3,0-2.5,2.1-2.5,2.3l0,25.7c0,1.2-3.4,5.8-13.2,5.8c-10.2,0-12-5.2-12.1-5.4l0-0.1v-26c0-0.8,0-2.3-2.8-2.3
				C213.8,469.5,213.4,471.5,213.3,471.8z"/>
			<path class="st17" d="M215,469.6c0-0.1-0.1-2.1,1.4-3.7c1.1-1.2,2.8-1.8,5-1.8l21.7,0c1.7,0.3,5,1.8,5,5.4h-1.4
				c0-3.2-3.4-4-3.8-4.1h-21.5c-1.8,0-3.1,0.5-4,1.4c-1.1,1.1-1,2.7-1,2.7L215,469.6z"/>
		</g>
	</g>
	<g>
		<g>
			<path class="st17" d="M282.9,510.5h-26.5c-0.1,0-6.7-0.1-6.7-7.7l0-31.1c0.2-1.2,1.3-3.6,4.5-3.6c2.8,0,4.2,1.2,4.2,3.7v25.8
				c0.3,0.6,2.2,4.4,10.7,4.4c9.2,0,11.6-4.1,11.8-4.5v-25.7c0.1-1.3,0.9-3.7,3.9-3.7c2.1,0,3.4,1.1,4.1,3.3c0,0.1,0,0.1,0,0.1l0,0
				c0.2,0.8,0.2,4.8,0.1,32c0,0.1,0.2,3.2-1.7,5.3C286.3,509.9,284.8,510.5,282.9,510.5z M251.2,471.8v31c0,6.1,5.1,6.3,5.3,6.3
				h26.5c1.5,0,2.6-0.4,3.4-1.3c1.5-1.6,1.3-4.2,1.3-4.3c0-12,0.1-30,0-31.6c0-0.1,0-0.1-0.1-0.2c-0.3-1-0.9-2.3-2.7-2.3
				c-2.3,0-2.5,2.1-2.5,2.3l0,25.7c0,1.2-3.4,5.8-13.2,5.8c-10.2,0-12-5.2-12.1-5.4l0-0.1v-26c0-0.8,0-2.3-2.8-2.3
				C251.7,469.5,251.2,471.5,251.2,471.8z"/>
			<path class="st17" d="M252.9,469.6c0-0.1-0.1-2.1,1.4-3.7c1.1-1.2,2.8-1.8,5-1.8l21.7,0c1.7,0.3,5,1.8,5,5.4h-1.4
				c0-3.2-3.4-4-3.8-4.1h-21.5c-1.8,0-3.1,0.5-4,1.4c-1.1,1.1-1,2.7-1,2.7L252.9,469.6z"/>
		</g>
	</g>
	<g>
		<g>
			<path class="st17" d="M168.7,560.8h-26.5c-0.1,0-6.7-0.1-6.7-7.7l0-31.1c0.2-1.2,1.3-3.6,4.5-3.6c2.8,0,4.2,1.2,4.2,3.7v25.8
				c0.3,0.6,2.2,4.4,10.7,4.4c9.2,0,11.6-4.1,11.8-4.5v-25.7c0.1-1.3,0.9-3.7,3.9-3.7c2.1,0,3.4,1.1,4.1,3.3c0,0.1,0,0.1,0,0.1l0,0
				c0.2,0.8,0.2,4.8,0.1,32c0,0.1,0.2,3.2-1.7,5.3C172,560.2,170.5,560.8,168.7,560.8z M136.9,522.1v31c0,6.1,5.1,6.3,5.3,6.3h26.5
				c1.5,0,2.6-0.4,3.4-1.3c1.5-1.6,1.3-4.2,1.3-4.3c0-12,0.1-30,0-31.6c0-0.1,0-0.1-0.1-0.2c-0.3-1-0.9-2.3-2.7-2.3
				c-2.3,0-2.5,2.1-2.5,2.3l0,25.7c0,1.2-3.4,5.8-13.2,5.8c-10.2,0-12-5.2-12.1-5.4l0-0.1v-26c0-0.8,0-2.3-2.8-2.3
				C137.4,519.8,137,521.8,136.9,522.1z"/>
			<path class="st17" d="M138.6,519.9c0-0.1-0.1-2.1,1.4-3.7c1.1-1.2,2.8-1.8,5-1.8l21.7,0c1.7,0.3,5,1.8,5,5.4h-1.4
				c0-3.2-3.4-4-3.8-4.1H145c-1.8,0-3.1,0.5-4,1.4c-1.1,1.1-1,2.7-1,2.7L138.6,519.9z"/>
		</g>
	</g>
	<g>
		<g>
			<path class="st17" d="M245.1,560.8h-26.5c-0.1,0-6.7-0.1-6.7-7.7l0-31.1c0.2-1.2,1.3-3.6,4.5-3.6c2.8,0,4.2,1.2,4.2,3.7v25.8
				c0.3,0.6,2.2,4.4,10.7,4.4c9.2,0,11.6-4.1,11.8-4.5v-25.7c0.1-1.3,0.9-3.7,3.9-3.7c2.1,0,3.4,1.1,4.1,3.3c0,0.1,0,0.1,0,0.1l0,0
				c0.2,0.8,0.2,4.8,0.1,32c0,0.1,0.2,3.2-1.7,5.3C248.4,560.2,246.9,560.8,245.1,560.8z M213.3,522.1v31c0,6.1,5.1,6.3,5.3,6.3
				h26.5c1.5,0,2.6-0.4,3.4-1.3c1.5-1.6,1.3-4.2,1.3-4.3c0-12,0.1-30,0-31.6c0-0.1,0-0.1-0.1-0.2c-0.3-1-0.9-2.3-2.7-2.3
				c-2.3,0-2.5,2.1-2.5,2.3l0,25.7c0,1.2-3.4,5.8-13.2,5.8c-10.2,0-12-5.2-12.1-5.4l0-0.1v-26c0-0.8,0-2.3-2.8-2.3
				C213.8,519.8,213.4,521.8,213.3,522.1z"/>
			<path class="st17" d="M215,519.9c0-0.1-0.1-2.1,1.4-3.7c1.1-1.2,2.8-1.8,5-1.8l21.7,0c1.7,0.3,5,1.8,5,5.4h-1.4
				c0-3.2-3.4-4-3.8-4.1h-21.5c-1.8,0-3.1,0.5-4,1.4c-1.1,1.1-1,2.7-1,2.7L215,519.9z"/>
		</g>
	</g>
	<g>
		<g>
			<path class="st17" d="M282.9,560.8h-26.5c-0.1,0-6.7-0.1-6.7-7.7l0-31.1c0.2-1.2,1.3-3.6,4.5-3.6c2.8,0,4.2,1.2,4.2,3.7v25.8
				c0.3,0.6,2.2,4.4,10.7,4.4c9.2,0,11.6-4.1,11.8-4.5v-25.7c0.1-1.3,0.9-3.7,3.9-3.7c2.1,0,3.4,1.1,4.1,3.3c0,0.1,0,0.1,0,0.1l0,0
				c0.2,0.8,0.2,4.8,0.1,32c0,0.1,0.2,3.2-1.7,5.3C286.3,560.2,284.8,560.8,282.9,560.8z M251.2,522.1v31c0,6.1,5.1,6.3,5.3,6.3
				h26.5c1.5,0,2.6-0.4,3.4-1.3c1.5-1.6,1.3-4.2,1.3-4.3c0-12,0.1-30,0-31.6c0-0.1,0-0.1-0.1-0.2c-0.3-1-0.9-2.3-2.7-2.3
				c-2.3,0-2.5,2.1-2.5,2.3l0,25.7c0,1.2-3.4,5.8-13.2,5.8c-10.2,0-12-5.2-12.1-5.4l0-0.1v-26c0-0.8,0-2.3-2.8-2.3
				C251.7,519.8,251.2,521.8,251.2,522.1z"/>
			<path class="st17" d="M252.9,519.9c0-0.1-0.1-2.1,1.4-3.7c1.1-1.2,2.8-1.8,5-1.8l21.7,0c1.7,0.3,5,1.8,5,5.4h-1.4
				c0-3.2-3.4-4-3.8-4.1h-21.5c-1.8,0-3.1,0.5-4,1.4c-1.1,1.1-1,2.7-1,2.7L252.9,519.9z"/>
		</g>
	</g>
	<g>
		<g>
			<path class="st17" d="M168.7,739.1h-26.5c-0.1,0-6.7-0.1-6.7-7.7l0-31.1c0.2-1.2,1.3-3.6,4.5-3.6c2.8,0,4.2,1.2,4.2,3.7v25.8
				c0.3,0.6,2.2,4.4,10.7,4.4c9.2,0,11.6-4.1,11.8-4.5v-25.7c0.1-1.3,0.9-3.7,3.9-3.7c2.1,0,3.4,1.1,4.1,3.3c0,0.1,0,0.1,0,0.1l0,0
				c0.2,0.8,0.2,4.8,0.1,32c0,0.1,0.2,3.2-1.7,5.3C172,738.5,170.5,739.1,168.7,739.1z M136.9,700.5v31c0,6.1,5.1,6.3,5.3,6.3h26.5
				c1.5,0,2.6-0.4,3.4-1.3c1.5-1.6,1.3-4.2,1.3-4.3c0-12,0.1-30,0-31.6c0-0.1,0-0.1-0.1-0.2c-0.3-1-0.9-2.3-2.7-2.3
				c-2.3,0-2.5,2.1-2.5,2.3l0,25.7c0,1.2-3.4,5.8-13.2,5.8c-10.2,0-12-5.2-12.1-5.4l0-0.1v-26c0-0.8,0-2.3-2.8-2.3
				C137.4,698.1,137,700.1,136.9,700.5z"/>
			<path class="st17" d="M138.6,698.3c0-0.1-0.1-2.1,1.4-3.7c1.1-1.2,2.8-1.8,5-1.8l21.7,0c1.7,0.3,5,1.8,5,5.4h-1.4
				c0-3.2-3.4-4-3.8-4.1H145c-1.8,0-3.1,0.5-4,1.4c-1.1,1.1-1,2.7-1,2.7L138.6,698.3z"/>
		</g>
	</g>
	<g>
		<g>
			<path class="st17" d="M245.1,739.1h-26.5c-0.1,0-6.7-0.1-6.7-7.7l0-31.1c0.2-1.2,1.3-3.6,4.5-3.6c2.8,0,4.2,1.2,4.2,3.7v25.8
				c0.3,0.6,2.2,4.4,10.7,4.4c9.2,0,11.6-4.1,11.8-4.5v-25.7c0.1-1.3,0.9-3.7,3.9-3.7c2.1,0,3.4,1.1,4.1,3.3c0,0.1,0,0.1,0,0.1l0,0
				c0.2,0.8,0.2,4.8,0.1,32c0,0.1,0.2,3.2-1.7,5.3C248.4,738.5,246.9,739.1,245.1,739.1z M213.3,700.5v31c0,6.1,5.1,6.3,5.3,6.3
				h26.5c1.5,0,2.6-0.4,3.4-1.3c1.5-1.6,1.3-4.2,1.3-4.3c0-12,0.1-30,0-31.6c0-0.1,0-0.1-0.1-0.2c-0.3-1-0.9-2.3-2.7-2.3
				c-2.3,0-2.5,2.1-2.5,2.3l0,25.7c0,1.2-3.4,5.8-13.2,5.8c-10.2,0-12-5.2-12.1-5.4l0-0.1v-26c0-0.8,0-2.3-2.8-2.3
				C213.8,698.1,213.4,700.1,213.3,700.5z"/>
			<path class="st17" d="M215,698.3c0-0.1-0.1-2.1,1.4-3.7c1.1-1.2,2.8-1.8,5-1.8l21.7,0c1.7,0.3,5,1.8,5,5.4h-1.4
				c0-3.2-3.4-4-3.8-4.1h-21.5c-1.8,0-3.1,0.5-4,1.4c-1.1,1.1-1,2.7-1,2.7L215,698.3z"/>
		</g>
	</g>
	<g>
		<g>
			<path class="st17" d="M282.9,739.1h-26.5c-0.1,0-6.7-0.1-6.7-7.7l0-31.1c0.2-1.2,1.3-3.6,4.5-3.6c2.8,0,4.2,1.2,4.2,3.7v25.8
				c0.3,0.6,2.2,4.4,10.7,4.4c9.2,0,11.6-4.1,11.8-4.5v-25.7c0.1-1.3,0.9-3.7,3.9-3.7c2.1,0,3.4,1.1,4.1,3.3c0,0.1,0,0.1,0,0.1l0,0
				c0.2,0.8,0.2,4.8,0.1,32c0,0.1,0.2,3.2-1.7,5.3C286.3,738.5,284.8,739.1,282.9,739.1z M251.2,700.5v31c0,6.1,5.1,6.3,5.3,6.3
				h26.5c1.5,0,2.6-0.4,3.4-1.3c1.5-1.6,1.3-4.2,1.3-4.3c0-12,0.1-30,0-31.6c0-0.1,0-0.1-0.1-0.2c-0.3-1-0.9-2.3-2.7-2.3
				c-2.3,0-2.5,2.1-2.5,2.3l0,25.7c0,1.2-3.4,5.8-13.2,5.8c-10.2,0-12-5.2-12.1-5.4l0-0.1v-26c0-0.8,0-2.3-2.8-2.3
				C251.7,698.1,251.2,700.1,251.2,700.5z"/>
			<path class="st17" d="M252.9,698.3c0-0.1-0.1-2.1,1.4-3.7c1.1-1.2,2.8-1.8,5-1.8l21.7,0c1.7,0.3,5,1.8,5,5.4h-1.4
				c0-3.2-3.4-4-3.8-4.1h-21.5c-1.8,0-3.1,0.5-4,1.4c-1.1,1.1-1,2.7-1,2.7L252.9,698.3z"/>
		</g>
	</g>
	<g>
		<g>
			<path class="st17" d="M168.7,789.4h-26.5c-0.1,0-6.7-0.1-6.7-7.7l0-31.1c0.2-1.2,1.3-3.6,4.5-3.6c2.8,0,4.2,1.2,4.2,3.7v25.8
				c0.3,0.6,2.2,4.4,10.7,4.4c9.2,0,11.6-4.1,11.8-4.5v-25.7c0.1-1.3,0.9-3.7,3.9-3.7c2.1,0,3.4,1.1,4.1,3.3c0,0.1,0,0.1,0,0.1l0,0
				c0.2,0.8,0.2,4.8,0.1,32c0,0.1,0.2,3.2-1.7,5.3C172,788.8,170.5,789.4,168.7,789.4z M136.9,750.8v31c0,6.1,5.1,6.3,5.3,6.3h26.5
				c1.5,0,2.6-0.4,3.4-1.3c1.5-1.6,1.3-4.2,1.3-4.3c0-12,0.1-30,0-31.6c0-0.1,0-0.1-0.1-0.2c-0.3-1-0.9-2.3-2.7-2.3
				c-2.3,0-2.5,2.1-2.5,2.3l0,25.7c0,1.2-3.4,5.8-13.2,5.8c-10.2,0-12-5.2-12.1-5.4l0-0.1v-26c0-0.8,0-2.3-2.8-2.3
				C137.4,748.4,137,750.4,136.9,750.8z"/>
			<path class="st17" d="M138.6,748.6c0-0.1-0.1-2.1,1.4-3.7c1.1-1.2,2.8-1.8,5-1.8l21.7,0c1.7,0.3,5,1.8,5,5.4h-1.4
				c0-3.2-3.4-4-3.8-4.1H145c-1.8,0-3.1,0.5-4,1.4c-1.1,1.1-1,2.7-1,2.7L138.6,748.6z"/>
		</g>
	</g>
	<g>
		<g>
			<path class="st17" d="M245.1,789.4h-26.5c-0.1,0-6.7-0.1-6.7-7.7l0-31.1c0.2-1.2,1.3-3.6,4.5-3.6c2.8,0,4.2,1.2,4.2,3.7v25.8
				c0.3,0.6,2.2,4.4,10.7,4.4c9.2,0,11.6-4.1,11.8-4.5v-25.7c0.1-1.3,0.9-3.7,3.9-3.7c2.1,0,3.4,1.1,4.1,3.3c0,0.1,0,0.1,0,0.1l0,0
				c0.2,0.8,0.2,4.8,0.1,32c0,0.1,0.2,3.2-1.7,5.3C248.4,788.8,246.9,789.4,245.1,789.4z M213.3,750.8v31c0,6.1,5.1,6.3,5.3,6.3
				h26.5c1.5,0,2.6-0.4,3.4-1.3c1.5-1.6,1.3-4.2,1.3-4.3c0-12,0.1-30,0-31.6c0-0.1,0-0.1-0.1-0.2c-0.3-1-0.9-2.3-2.7-2.3
				c-2.3,0-2.5,2.1-2.5,2.3l0,25.7c0,1.2-3.4,5.8-13.2,5.8c-10.2,0-12-5.2-12.1-5.4l0-0.1v-26c0-0.8,0-2.3-2.8-2.3
				C213.8,748.4,213.4,750.4,213.3,750.8z"/>
			<path class="st17" d="M215,748.6c0-0.1-0.1-2.1,1.4-3.7c1.1-1.2,2.8-1.8,5-1.8l21.7,0c1.7,0.3,5,1.8,5,5.4h-1.4
				c0-3.2-3.4-4-3.8-4.1h-21.5c-1.8,0-3.1,0.5-4,1.4c-1.1,1.1-1,2.7-1,2.7L215,748.6z"/>
		</g>
	</g>
	<g>
		<g>
			<path class="st17" d="M282.9,789.4h-26.5c-0.1,0-6.7-0.1-6.7-7.7l0-31.1c0.2-1.2,1.3-3.6,4.5-3.6c2.8,0,4.2,1.2,4.2,3.7v25.8
				c0.3,0.6,2.2,4.4,10.7,4.4c9.2,0,11.6-4.1,11.8-4.5v-25.7c0.1-1.3,0.9-3.7,3.9-3.7c2.1,0,3.4,1.1,4.1,3.3c0,0.1,0,0.1,0,0.1l0,0
				c0.2,0.8,0.2,4.8,0.1,32c0,0.1,0.2,3.2-1.7,5.3C286.3,788.8,284.8,789.4,282.9,789.4z M251.2,750.8v31c0,6.1,5.1,6.3,5.3,6.3
				h26.5c1.5,0,2.6-0.4,3.4-1.3c1.5-1.6,1.3-4.2,1.3-4.3c0-12,0.1-30,0-31.6c0-0.1,0-0.1-0.1-0.2c-0.3-1-0.9-2.3-2.7-2.3
				c-2.3,0-2.5,2.1-2.5,2.3l0,25.7c0,1.2-3.4,5.8-13.2,5.8c-10.2,0-12-5.2-12.1-5.4l0-0.1v-26c0-0.8,0-2.3-2.8-2.3
				C251.7,748.4,251.2,750.4,251.2,750.8z"/>
			<path class="st17" d="M252.9,748.6c0-0.1-0.1-2.1,1.4-3.7c1.1-1.2,2.8-1.8,5-1.8l21.7,0c1.7,0.3,5,1.8,5,5.4h-1.4
				c0-3.2-3.4-4-3.8-4.1h-21.5c-1.8,0-3.1,0.5-4,1.4c-1.1,1.1-1,2.7-1,2.7L252.9,748.6z"/>
		</g>
	</g>
	<g>
		<g>
			<path class="st17" d="M168.7,839.7h-26.5c-0.1,0-6.7-0.1-6.7-7.7l0-31.1c0.2-1.2,1.3-3.6,4.5-3.6c2.8,0,4.2,1.2,4.2,3.7v25.8
				c0.3,0.6,2.2,4.4,10.7,4.4c9.2,0,11.6-4.1,11.8-4.5V801c0.1-1.3,0.9-3.7,3.9-3.7c2.1,0,3.4,1.1,4.1,3.3c0,0.1,0,0.1,0,0.1l0,0
				c0.2,0.8,0.2,4.8,0.1,32c0,0.1,0.2,3.2-1.7,5.3C172,839.1,170.5,839.7,168.7,839.7z M136.9,801.1v31c0,6.1,5.1,6.3,5.3,6.3h26.5
				c1.5,0,2.6-0.4,3.4-1.3c1.5-1.6,1.3-4.2,1.3-4.3c0-12,0.1-30,0-31.6c0-0.1,0-0.1-0.1-0.2c-0.3-1-0.9-2.3-2.7-2.3
				c-2.3,0-2.5,2.1-2.5,2.3l0,25.7c0,1.2-3.4,5.8-13.2,5.8c-10.2,0-12-5.2-12.1-5.4l0-0.1v-26c0-0.8,0-2.3-2.8-2.3
				C137.4,798.7,137,800.7,136.9,801.1z"/>
			<path class="st17" d="M138.6,798.9c0-0.1-0.1-2.1,1.4-3.7c1.1-1.2,2.8-1.8,5-1.8l21.7,0c1.7,0.3,5,1.8,5,5.4h-1.4
				c0-3.2-3.4-4-3.8-4.1H145c-1.8,0-3.1,0.5-4,1.4c-1.1,1.1-1,2.7-1,2.7L138.6,798.9z"/>
		</g>
	</g>
	<g>
		<g>
			<path class="st17" d="M245.1,839.7h-26.5c-0.1,0-6.7-0.1-6.7-7.7l0-31.1c0.2-1.2,1.3-3.6,4.5-3.6c2.8,0,4.2,1.2,4.2,3.7v25.8
				c0.3,0.6,2.2,4.4,10.7,4.4c9.2,0,11.6-4.1,11.8-4.5V801c0.1-1.3,0.9-3.7,3.9-3.7c2.1,0,3.4,1.1,4.1,3.3c0,0.1,0,0.1,0,0.1l0,0
				c0.2,0.8,0.2,4.8,0.1,32c0,0.1,0.2,3.2-1.7,5.3C248.4,839.1,246.9,839.7,245.1,839.7z M213.3,801.1v31c0,6.1,5.1,6.3,5.3,6.3
				h26.5c1.5,0,2.6-0.4,3.4-1.3c1.5-1.6,1.3-4.2,1.3-4.3c0-12,0.1-30,0-31.6c0-0.1,0-0.1-0.1-0.2c-0.3-1-0.9-2.3-2.7-2.3
				c-2.3,0-2.5,2.1-2.5,2.3l0,25.7c0,1.2-3.4,5.8-13.2,5.8c-10.2,0-12-5.2-12.1-5.4l0-0.1v-26c0-0.8,0-2.3-2.8-2.3
				C213.8,798.7,213.4,800.7,213.3,801.1z"/>
			<path class="st17" d="M215,798.9c0-0.1-0.1-2.1,1.4-3.7c1.1-1.2,2.8-1.8,5-1.8l21.7,0c1.7,0.3,5,1.8,5,5.4h-1.4
				c0-3.2-3.4-4-3.8-4.1h-21.5c-1.8,0-3.1,0.5-4,1.4c-1.1,1.1-1,2.7-1,2.7L215,798.9z"/>
		</g>
	</g>
	<g>
		<g>
			<path class="st17" d="M282.9,839.7h-26.5c-0.1,0-6.7-0.1-6.7-7.7l0-31.1c0.2-1.2,1.3-3.6,4.5-3.6c2.8,0,4.2,1.2,4.2,3.7v25.8
				c0.3,0.6,2.2,4.4,10.7,4.4c9.2,0,11.6-4.1,11.8-4.5V801c0.1-1.3,0.9-3.7,3.9-3.7c2.1,0,3.4,1.1,4.1,3.3c0,0.1,0,0.1,0,0.1l0,0
				c0.2,0.8,0.2,4.8,0.1,32c0,0.1,0.2,3.2-1.7,5.3C286.3,839.1,284.8,839.7,282.9,839.7z M251.2,801.1v31c0,6.1,5.1,6.3,5.3,6.3
				h26.5c1.5,0,2.6-0.4,3.4-1.3c1.5-1.6,1.3-4.2,1.3-4.3c0-12,0.1-30,0-31.6c0-0.1,0-0.1-0.1-0.2c-0.3-1-0.9-2.3-2.7-2.3
				c-2.3,0-2.5,2.1-2.5,2.3l0,25.7c0,1.2-3.4,5.8-13.2,5.8c-10.2,0-12-5.2-12.1-5.4l0-0.1v-26c0-0.8,0-2.3-2.8-2.3
				C251.7,798.7,251.2,800.7,251.2,801.1z"/>
			<path class="st17" d="M252.9,798.9c0-0.1-0.1-2.1,1.4-3.7c1.1-1.2,2.8-1.8,5-1.8l21.7,0c1.7,0.3,5,1.8,5,5.4h-1.4
				c0-3.2-3.4-4-3.8-4.1h-21.5c-1.8,0-3.1,0.5-4,1.4c-1.1,1.1-1,2.7-1,2.7L252.9,798.9z"/>
		</g>
	</g>
</g>
<g id="power">
</g>
<g id="seat_letters">
	<g>
		<g>
			<path class="st20" d="M157.5,235h-3.4l-0.7,2.3h-2l3.4-9.7h2.4l3.4,9.7h-2.2L157.5,235z M154.5,233.5h2.5l-1.2-3.8h-0.1
				L154.5,233.5z"/>
		</g>
	</g>
	<g>
		<g>
			<path class="st11" d="M157.6,285.1H154l-0.9,2.6h-1.5l3.5-9.7h1.6l3.5,9.7h-1.6L157.6,285.1z M154.3,283.8h2.9l-1.4-4.1h-0.1
				L154.3,283.8z"/>
		</g>
	</g>
	<g>
		<g>
			<path class="st20" d="M228.4,286.5c-0.8-0.9-1.2-2.2-1.2-3.7s0.4-2.8,1.2-3.7c0.8-0.9,1.9-1.4,3.3-1.4c1.1,0,2.1,0.3,2.9,1
				c0.8,0.7,1.2,1.5,1.3,2.6h-2c-0.1-0.6-0.3-1-0.8-1.3c-0.4-0.3-0.9-0.5-1.5-0.5c-0.8,0-1.4,0.3-1.8,0.9s-0.7,1.4-0.7,2.4
				s0.2,1.8,0.7,2.4c0.4,0.6,1,0.9,1.8,0.9c0.6,0,1.1-0.2,1.5-0.5c0.4-0.3,0.7-0.7,0.8-1.3h2c-0.1,1-0.5,1.9-1.3,2.5
				c-0.8,0.7-1.7,1-2.9,1C230.4,287.9,229.3,287.4,228.4,286.5z"/>
		</g>
	</g>
	<g>
		<g>
			<path class="st20" d="M269.8,278c1.4,0,2.6,0.4,3.3,1.2c0.8,0.8,1.2,2,1.2,3.5c0,1.6-0.4,2.8-1.2,3.6c-0.8,0.8-1.9,1.3-3.4,1.3
				h-3.8V278H269.8z M268,285.9h1.5c0.9,0,1.6-0.3,2.1-0.8c0.5-0.5,0.7-1.3,0.7-2.3c0-1-0.2-1.7-0.7-2.3c-0.5-0.5-1.2-0.8-2.1-0.8
				H268V285.9z"/>
		</g>
	</g>
	<g>
		<g>
			<path class="st20" d="M157.5,664.9h-3.4l-0.7,2.3h-2l3.4-9.7h2.4l3.4,9.7h-2.2L157.5,664.9z M154.5,663.3h2.5l-1.2-3.8h-0.1
				L154.5,663.3z"/>
		</g>
	</g>
	<g>
		<g>
			<path class="st20" d="M228.4,666.1c-0.8-0.9-1.2-2.2-1.2-3.7s0.4-2.8,1.2-3.7c0.8-0.9,1.9-1.4,3.3-1.4c1.1,0,2.1,0.3,2.9,1
				c0.8,0.7,1.2,1.5,1.3,2.6h-2c-0.1-0.6-0.3-1-0.8-1.3c-0.4-0.3-0.9-0.5-1.5-0.5c-0.8,0-1.4,0.3-1.8,0.9s-0.7,1.4-0.7,2.4
				s0.2,1.8,0.7,2.4c0.4,0.6,1,0.9,1.8,0.9c0.6,0,1.1-0.2,1.5-0.5c0.4-0.3,0.7-0.7,0.8-1.3h2c-0.1,1-0.5,1.9-1.3,2.5
				c-0.8,0.7-1.7,1-2.9,1C230.4,667.4,229.3,667,228.4,666.1z"/>
		</g>
	</g>
	<g>
		<g>
			<path class="st20" d="M269.8,657.5c1.4,0,2.6,0.4,3.3,1.2c0.8,0.8,1.2,2,1.2,3.5c0,1.6-0.4,2.8-1.2,3.6c-0.8,0.8-1.9,1.3-3.4,1.3
				h-3.8v-9.7H269.8z M268,665.4h1.5c0.9,0,1.6-0.3,2.1-0.8c0.5-0.5,0.7-1.3,0.7-2.3c0-1-0.2-1.7-0.7-2.3c-0.5-0.5-1.2-0.8-2.1-0.8
				H268V665.4z"/>
		</g>
	</g>
	<g>
		<g>
			<path class="st20" d="M157.5,866.1h-3.4l-0.7,2.3h-2l3.4-9.7h2.4l3.4,9.7h-2.2L157.5,866.1z M154.5,864.5h2.5l-1.2-3.8h-0.1
				L154.5,864.5z"/>
		</g>
	</g>
	<g>
		<g>
			<path class="st20" d="M228.4,867.3c-0.8-0.9-1.2-2.2-1.2-3.7s0.4-2.8,1.2-3.7c0.8-0.9,1.9-1.4,3.3-1.4c1.1,0,2.1,0.3,2.9,1
				c0.8,0.7,1.2,1.5,1.3,2.6h-2c-0.1-0.6-0.3-1-0.8-1.3c-0.4-0.3-0.9-0.5-1.5-0.5c-0.8,0-1.4,0.3-1.8,0.9s-0.7,1.4-0.7,2.4
				s0.2,1.8,0.7,2.4c0.4,0.6,1,0.9,1.8,0.9c0.6,0,1.1-0.2,1.5-0.5c0.4-0.3,0.7-0.7,0.8-1.3h2c-0.1,1-0.5,1.9-1.3,2.5
				c-0.8,0.7-1.7,1-2.9,1C230.4,868.6,229.3,868.2,228.4,867.3z"/>
		</g>
	</g>
	<g>
		<g>
			<path class="st20" d="M269.8,858.7c1.4,0,2.6,0.4,3.3,1.2c0.8,0.8,1.2,2,1.2,3.5c0,1.6-0.4,2.8-1.2,3.6c-0.8,0.8-1.9,1.3-3.4,1.3
				h-3.8v-9.7H269.8z M268,866.6h1.5c0.9,0,1.6-0.3,2.1-0.8c0.5-0.5,0.7-1.3,0.7-2.3c0-1-0.2-1.7-0.7-2.3c-0.5-0.5-1.2-0.8-2.1-0.8
				H268V866.6z"/>
		</g>
	</g>
	<g>
		<g>
			<path class="st20" d="M157.5,587.1h-3.4l-0.7,2.3h-2l3.4-9.7h2.4l3.4,9.7h-2.2L157.5,587.1z M154.5,585.6h2.5l-1.2-3.8h-0.1
				L154.5,585.6z"/>
		</g>
	</g>
	<g>
		<g>
			<path class="st20" d="M228.4,588.3c-0.8-0.9-1.2-2.2-1.2-3.7s0.4-2.8,1.2-3.7c0.8-0.9,1.9-1.4,3.3-1.4c1.1,0,2.1,0.3,2.9,1
				c0.8,0.7,1.2,1.5,1.3,2.6h-2c-0.1-0.6-0.3-1-0.8-1.3c-0.4-0.3-0.9-0.5-1.5-0.5c-0.8,0-1.4,0.3-1.8,0.9s-0.7,1.4-0.7,2.4
				s0.2,1.8,0.7,2.4c0.4,0.6,1,0.9,1.8,0.9c0.6,0,1.1-0.2,1.5-0.5c0.4-0.3,0.7-0.7,0.8-1.3h2c-0.1,1-0.5,1.9-1.3,2.5
				c-0.8,0.7-1.7,1-2.9,1C230.4,589.7,229.3,589.2,228.4,588.3z"/>
		</g>
	</g>
	<g>
		<g>
			<path class="st20" d="M269.8,579.8c1.4,0,2.6,0.4,3.3,1.2c0.8,0.8,1.2,2,1.2,3.5c0,1.6-0.4,2.8-1.2,3.6c-0.8,0.8-1.9,1.3-3.4,1.3
				h-3.8v-9.7H269.8z M268,587.7h1.5c0.9,0,1.6-0.3,2.1-0.8c0.5-0.5,0.7-1.3,0.7-2.3c0-1-0.2-1.7-0.7-2.3c-0.5-0.5-1.2-0.8-2.1-0.8
				H268V587.7z"/>
		</g>
	</g>
	<g>
		<g>
			<path class="st11" d="M157.6,335.4H154l-0.9,2.6h-1.5l3.5-9.7h1.6l3.5,9.7h-1.6L157.6,335.4z M154.3,334.1h2.9l-1.4-4.1h-0.1
				L154.3,334.1z"/>
		</g>
	</g>
	<g>
		<g>
			<path class="st11" d="M228.6,336.8c-0.8-0.9-1.2-2.1-1.2-3.7c0-1.6,0.4-2.8,1.2-3.7c0.8-0.9,1.8-1.4,3.2-1.4c1.1,0,2,0.3,2.7,0.9
				c0.7,0.6,1.2,1.4,1.3,2.4h-1.5c-0.1-0.6-0.4-1.1-0.9-1.4c-0.5-0.4-1-0.5-1.6-0.5c-0.9,0-1.6,0.3-2.1,1c-0.5,0.7-0.8,1.5-0.8,2.7
				c0,1.1,0.3,2,0.8,2.7c0.5,0.7,1.2,1,2.1,1c0.6,0,1.2-0.2,1.6-0.5c0.5-0.3,0.7-0.8,0.9-1.3h1.5c-0.1,1-0.6,1.7-1.3,2.3
				c-0.7,0.6-1.6,0.9-2.7,0.9C230.4,338.2,229.4,337.7,228.6,336.8z"/>
		</g>
	</g>
	<g>
		<g>
			<path class="st11" d="M269.6,328.3c1.4,0,2.5,0.4,3.3,1.3c0.8,0.8,1.2,2,1.2,3.5c0,1.5-0.4,2.7-1.2,3.6c-0.8,0.8-1.9,1.3-3.4,1.3
				h-3.5v-9.7H269.6z M267.6,336.6h1.8c1,0,1.8-0.3,2.4-0.9c0.6-0.6,0.8-1.5,0.8-2.6c0-1.1-0.3-1.9-0.8-2.5
				c-0.6-0.6-1.3-0.9-2.3-0.9h-1.8V336.6z"/>
		</g>
	</g>
	<g>
		<g>
			<path class="st11" d="M157.6,385.7H154l-0.9,2.6h-1.5l3.5-9.7h1.6l3.5,9.7h-1.6L157.6,385.7z M154.3,384.4h2.9l-1.4-4.1h-0.1
				L154.3,384.4z"/>
		</g>
	</g>
	<g>
		<g>
			<path class="st11" d="M228.6,387.1c-0.8-0.9-1.2-2.1-1.2-3.7c0-1.6,0.4-2.8,1.2-3.7c0.8-0.9,1.8-1.4,3.2-1.4c1.1,0,2,0.3,2.7,0.9
				c0.7,0.6,1.2,1.4,1.3,2.4h-1.5c-0.1-0.6-0.4-1.1-0.9-1.4c-0.5-0.4-1-0.5-1.6-0.5c-0.9,0-1.6,0.3-2.1,1c-0.5,0.7-0.8,1.5-0.8,2.7
				c0,1.1,0.3,2,0.8,2.7c0.5,0.7,1.2,1,2.1,1c0.6,0,1.2-0.2,1.6-0.5c0.5-0.3,0.7-0.8,0.9-1.3h1.5c-0.1,1-0.6,1.7-1.3,2.3
				c-0.7,0.6-1.6,0.9-2.7,0.9C230.4,388.5,229.4,388,228.6,387.1z"/>
		</g>
	</g>
	<g>
		<g>
			<path class="st11" d="M269.6,378.6c1.4,0,2.5,0.4,3.3,1.3c0.8,0.8,1.2,2,1.2,3.5c0,1.5-0.4,2.7-1.2,3.6c-0.8,0.8-1.9,1.3-3.4,1.3
				h-3.5v-9.7H269.6z M267.6,386.9h1.8c1,0,1.8-0.3,2.4-0.9c0.6-0.6,0.8-1.5,0.8-2.6c0-1.1-0.3-1.9-0.8-2.5
				c-0.6-0.6-1.3-0.9-2.3-0.9h-1.8V386.9z"/>
		</g>
	</g>
	<g>
		<g>
			<path class="st11" d="M157.6,436H154l-0.9,2.6h-1.5l3.5-9.7h1.6l3.5,9.7h-1.6L157.6,436z M154.3,434.7h2.9l-1.4-4.1h-0.1
				L154.3,434.7z"/>
		</g>
	</g>
	<g>
		<g>
			<path class="st11" d="M228.6,437.4c-0.8-0.9-1.2-2.1-1.2-3.7c0-1.6,0.4-2.8,1.2-3.7c0.8-0.9,1.8-1.4,3.2-1.4c1.1,0,2,0.3,2.7,0.9
				c0.7,0.6,1.2,1.4,1.3,2.4h-1.5c-0.1-0.6-0.4-1.1-0.9-1.4c-0.5-0.4-1-0.5-1.6-0.5c-0.9,0-1.6,0.3-2.1,1c-0.5,0.7-0.8,1.5-0.8,2.7
				c0,1.1,0.3,2,0.8,2.7c0.5,0.7,1.2,1,2.1,1c0.6,0,1.2-0.2,1.6-0.5c0.5-0.3,0.7-0.8,0.9-1.3h1.5c-0.1,1-0.6,1.7-1.3,2.3
				c-0.7,0.6-1.6,0.9-2.7,0.9C230.4,438.8,229.4,438.3,228.6,437.4z"/>
		</g>
	</g>
	<g>
		<g>
			<path class="st11" d="M269.6,428.9c1.4,0,2.5,0.4,3.3,1.3c0.8,0.8,1.2,2,1.2,3.5c0,1.5-0.4,2.7-1.2,3.6c-0.8,0.8-1.9,1.3-3.4,1.3
				h-3.5v-9.7H269.6z M267.6,437.2h1.8c1,0,1.8-0.3,2.4-0.9c0.6-0.6,0.8-1.5,0.8-2.6c0-1.1-0.3-1.9-0.8-2.5
				c-0.6-0.6-1.3-0.9-2.3-0.9h-1.8V437.2z"/>
		</g>
	</g>
	<g>
		<g>
			<path class="st11" d="M157.6,486.3H154l-0.9,2.6h-1.5l3.5-9.7h1.6l3.5,9.7h-1.6L157.6,486.3z M154.3,485h2.9l-1.4-4.1h-0.1
				L154.3,485z"/>
		</g>
	</g>
	<g>
		<g>
			<path class="st11" d="M228.6,487.7c-0.8-0.9-1.2-2.1-1.2-3.7c0-1.6,0.4-2.8,1.2-3.7c0.8-0.9,1.8-1.4,3.2-1.4c1.1,0,2,0.3,2.7,0.9
				c0.7,0.6,1.2,1.4,1.3,2.4h-1.5c-0.1-0.6-0.4-1.1-0.9-1.4c-0.5-0.4-1-0.5-1.6-0.5c-0.9,0-1.6,0.3-2.1,1c-0.5,0.7-0.8,1.5-0.8,2.7
				c0,1.1,0.3,2,0.8,2.7c0.5,0.7,1.2,1,2.1,1c0.6,0,1.2-0.2,1.6-0.5c0.5-0.3,0.7-0.8,0.9-1.3h1.5c-0.1,1-0.6,1.7-1.3,2.3
				c-0.7,0.6-1.6,0.9-2.7,0.9C230.4,489.1,229.4,488.6,228.6,487.7z"/>
		</g>
	</g>
	<g>
		<g>
			<path class="st11" d="M269.6,479.2c1.4,0,2.5,0.4,3.3,1.3c0.8,0.8,1.2,2,1.2,3.5c0,1.5-0.4,2.7-1.2,3.6c-0.8,0.8-1.9,1.3-3.4,1.3
				h-3.5v-9.7H269.6z M267.6,487.5h1.8c1,0,1.8-0.3,2.4-0.9c0.6-0.6,0.8-1.5,0.8-2.6c0-1.1-0.3-1.9-0.8-2.5
				c-0.6-0.6-1.3-0.9-2.3-0.9h-1.8V487.5z"/>
		</g>
	</g>
	<g>
		<g>
			<path class="st11" d="M157.6,536.6H154l-0.9,2.6h-1.5l3.5-9.7h1.6l3.5,9.7h-1.6L157.6,536.6z M154.3,535.3h2.9l-1.4-4.1h-0.1
				L154.3,535.3z"/>
		</g>
	</g>
	<g>
		<g>
			<path class="st11" d="M228.6,538c-0.8-0.9-1.2-2.1-1.2-3.7c0-1.6,0.4-2.8,1.2-3.7c0.8-0.9,1.8-1.4,3.2-1.4c1.1,0,2,0.3,2.7,0.9
				c0.7,0.6,1.2,1.4,1.3,2.4h-1.5c-0.1-0.6-0.4-1.1-0.9-1.4c-0.5-0.4-1-0.5-1.6-0.5c-0.9,0-1.6,0.3-2.1,1c-0.5,0.7-0.8,1.5-0.8,2.7
				c0,1.1,0.3,2,0.8,2.7c0.5,0.7,1.2,1,2.1,1c0.6,0,1.2-0.2,1.6-0.5c0.5-0.3,0.7-0.8,0.9-1.3h1.5c-0.1,1-0.6,1.7-1.3,2.3
				c-0.7,0.6-1.6,0.9-2.7,0.9C230.4,539.4,229.4,538.9,228.6,538z"/>
		</g>
	</g>
	<g>
		<g>
			<path class="st11" d="M269.6,529.5c1.4,0,2.5,0.4,3.3,1.3c0.8,0.8,1.2,2,1.2,3.5c0,1.5-0.4,2.7-1.2,3.6c-0.8,0.8-1.9,1.3-3.4,1.3
				h-3.5v-9.7H269.6z M267.6,537.8h1.8c1,0,1.8-0.3,2.4-0.9c0.6-0.6,0.8-1.5,0.8-2.6c0-1.1-0.3-1.9-0.8-2.5
				c-0.6-0.6-1.3-0.9-2.3-0.9h-1.8V537.8z"/>
		</g>
	</g>
	<g>
		<g>
			<path class="st11" d="M157.6,714.9H154l-0.9,2.6h-1.5l3.5-9.7h1.6l3.5,9.7h-1.6L157.6,714.9z M154.3,713.6h2.9l-1.4-4.1h-0.1
				L154.3,713.6z"/>
		</g>
	</g>
	<g>
		<g>
			<path class="st11" d="M228.6,716.3c-0.8-0.9-1.2-2.1-1.2-3.7c0-1.6,0.4-2.8,1.2-3.7c0.8-0.9,1.8-1.4,3.2-1.4c1.1,0,2,0.3,2.7,0.9
				c0.7,0.6,1.2,1.4,1.3,2.4h-1.5c-0.1-0.6-0.4-1.1-0.9-1.4c-0.5-0.4-1-0.5-1.6-0.5c-0.9,0-1.6,0.3-2.1,1c-0.5,0.7-0.8,1.5-0.8,2.7
				c0,1.1,0.3,2,0.8,2.7c0.5,0.7,1.2,1,2.1,1c0.6,0,1.2-0.2,1.6-0.5c0.5-0.3,0.7-0.8,0.9-1.3h1.5c-0.1,1-0.6,1.7-1.3,2.3
				c-0.7,0.6-1.6,0.9-2.7,0.9C230.4,717.7,229.4,717.2,228.6,716.3z"/>
		</g>
	</g>
	<g>
		<g>
			<path class="st11" d="M269.6,707.8c1.4,0,2.5,0.4,3.3,1.3c0.8,0.8,1.2,2,1.2,3.5c0,1.5-0.4,2.7-1.2,3.6c-0.8,0.8-1.9,1.3-3.4,1.3
				h-3.5v-9.7H269.6z M267.6,716.1h1.8c1,0,1.8-0.3,2.4-0.9c0.6-0.6,0.8-1.5,0.8-2.6c0-1.1-0.3-1.9-0.8-2.5
				c-0.6-0.6-1.3-0.9-2.3-0.9h-1.8V716.1z"/>
		</g>
	</g>
	<g>
		<g>
			<path class="st11" d="M157.6,765.2H154l-0.9,2.6h-1.5l3.5-9.7h1.6l3.5,9.7h-1.6L157.6,765.2z M154.3,763.9h2.9l-1.4-4.1h-0.1
				L154.3,763.9z"/>
		</g>
	</g>
	<g>
		<g>
			<path class="st11" d="M228.6,766.6c-0.8-0.9-1.2-2.1-1.2-3.7c0-1.6,0.4-2.8,1.2-3.7c0.8-0.9,1.8-1.4,3.2-1.4c1.1,0,2,0.3,2.7,0.9
				c0.7,0.6,1.2,1.4,1.3,2.4h-1.5c-0.1-0.6-0.4-1.1-0.9-1.4c-0.5-0.4-1-0.5-1.6-0.5c-0.9,0-1.6,0.3-2.1,1c-0.5,0.7-0.8,1.5-0.8,2.7
				c0,1.1,0.3,2,0.8,2.7c0.5,0.7,1.2,1,2.1,1c0.6,0,1.2-0.2,1.6-0.5c0.5-0.3,0.7-0.8,0.9-1.3h1.5c-0.1,1-0.6,1.7-1.3,2.3
				c-0.7,0.6-1.6,0.9-2.7,0.9C230.4,768,229.4,767.5,228.6,766.6z"/>
		</g>
	</g>
	<g>
		<g>
			<path class="st11" d="M269.6,758.1c1.4,0,2.5,0.4,3.3,1.3c0.8,0.8,1.2,2,1.2,3.5c0,1.5-0.4,2.7-1.2,3.6c-0.8,0.8-1.9,1.3-3.4,1.3
				h-3.5v-9.7H269.6z M267.6,766.4h1.8c1,0,1.8-0.3,2.4-0.9c0.6-0.6,0.8-1.5,0.8-2.6c0-1.1-0.3-1.9-0.8-2.5
				c-0.6-0.6-1.3-0.9-2.3-0.9h-1.8V766.4z"/>
		</g>
	</g>
	<g>
		<g>
			<path class="st11" d="M157.6,815.5H154l-0.9,2.6h-1.5l3.5-9.7h1.6l3.5,9.7h-1.6L157.6,815.5z M154.3,814.2h2.9l-1.4-4.1h-0.1
				L154.3,814.2z"/>
		</g>
	</g>
	<g>
		<g>
			<path class="st11" d="M228.6,816.9c-0.8-0.9-1.2-2.1-1.2-3.7c0-1.6,0.4-2.8,1.2-3.7c0.8-0.9,1.8-1.4,3.2-1.4c1.1,0,2,0.3,2.7,0.9
				c0.7,0.6,1.2,1.4,1.3,2.4h-1.5c-0.1-0.6-0.4-1.1-0.9-1.4c-0.5-0.4-1-0.5-1.6-0.5c-0.9,0-1.6,0.3-2.1,1c-0.5,0.7-0.8,1.5-0.8,2.7
				c0,1.1,0.3,2,0.8,2.7c0.5,0.7,1.2,1,2.1,1c0.6,0,1.2-0.2,1.6-0.5c0.5-0.3,0.7-0.8,0.9-1.3h1.5c-0.1,1-0.6,1.7-1.3,2.3
				c-0.7,0.6-1.6,0.9-2.7,0.9C230.4,818.3,229.4,817.8,228.6,816.9z"/>
		</g>
	</g>
	<g>
		<g>
			<path class="st11" d="M269.6,808.4c1.4,0,2.5,0.4,3.3,1.3c0.8,0.8,1.2,2,1.2,3.5c0,1.5-0.4,2.7-1.2,3.6c-0.8,0.8-1.9,1.3-3.4,1.3
				h-3.5v-9.7H269.6z M267.6,816.7h1.8c1,0,1.8-0.3,2.4-0.9c0.6-0.6,0.8-1.5,0.8-2.6c0-1.1-0.3-1.9-0.8-2.5
				c-0.6-0.6-1.3-0.9-2.3-0.9h-1.8V816.7z"/>
		</g>
	</g>
</g>
<g id="rooms">
	<path class="st21" d="M289,913.7H136c-0.7,0-1.3,0.6-1.3,1.3v0.2c22.8,109.9,48.6,144.8,77.6,144.8c29.1,0,55-35.2,77.8-145.6
		C289.9,914,289.5,913.7,289,913.7z"/>
	<path class="st8" d="M224.4,979.8c2.7,0,5-2.2,5-5c0-2.7-2.2-5-5-5c-0.6,0-1.2,0.1-1.8,0.3c-0.1-1.2-0.3-2.5-0.6-3.8
		c-0.1-0.4-0.4-0.7-0.8-0.7H201c-0.4,0-0.7,0.3-0.8,0.6c-0.7,3.1-0.9,6.2-0.7,9.3c0.2,2.6,1.2,4.9,2.8,6.9c-4.2,0.3-7,0.8-7,1.4
		c0,0.9,7.1,1.7,15.8,1.7c8.7,0,15.8-0.7,15.8-1.7c0-0.6-2.8-1.1-7.1-1.4c0.9-1.2,1.6-2.3,2.1-3.5
		C222.6,979.6,223.5,979.8,224.4,979.8z M224.4,971.6c1.8,0,3.3,1.5,3.3,3.3c0,1.8-1.5,3.3-3.3,3.3c-0.7,0-1.4-0.3-2-0.7
		c0.2-0.6,0.3-1.2,0.3-1.8c0.1-1.1,0.1-2.4,0-3.7C223.3,971.7,223.9,971.6,224.4,971.6z"/>
</g>
<g id="exits">
	<g>
		<g>
			<g>
				<defs>
					<polygon id="SVGID_29_" points="140,189 147,189 140,197.3 147,205.5 140,205.5 132.9,197.3 140,189 					"/>
				</defs>
				<use xlink:href="#SVGID_29_"  style="overflow:visible;fill-rule:evenodd;clip-rule:evenodd;fill:#BDBDBD;"/>
				<clipPath id="SVGID_30_">
					<use xlink:href="#SVGID_29_"  style="overflow:visible;"/>
				</clipPath>
				<rect x="130.7" y="186.7" class="st22" width="18.7" height="21.1"/>
			</g>
			<g>
				<defs>
					<polygon id="SVGID_31_" points="150.3,189 157.3,189 150.3,197.3 157.3,205.5 150.3,205.5 143.2,197.3 150.3,189 					"/>
				</defs>
				<use xlink:href="#SVGID_31_"  style="overflow:visible;fill-rule:evenodd;clip-rule:evenodd;fill:#BDBDBD;"/>
				<clipPath id="SVGID_32_">
					<use xlink:href="#SVGID_31_"  style="overflow:visible;"/>
				</clipPath>
				<rect x="140.9" y="186.7" class="st23" width="18.7" height="21.1"/>
			</g>
		</g>
		<g>
			<path class="st11" d="M158.2,199.2h-2.4v-3.5h2.4v0.7h-1.5v0.7h1.4v0.7h-1.4v0.7h1.5V199.2z"/>
			<path class="st11" d="M160.6,197.4l-1.1-1.8h1.1l0.6,1.2h0l0.6-1.2h1l-1.1,1.8l1.1,1.8h-1l-0.7-1.1h0l-0.7,1.1h-1L160.6,197.4z"
				/>
			<path class="st11" d="M164.2,199.2v-3.5h0.9v3.5H164.2z"/>
			<path class="st11" d="M167.6,199.2v-2.8h-1v-0.7h2.9v0.7h-1v2.8H167.6z"/>
		</g>
		<g>
			<g>
				<defs>
					<polygon id="SVGID_33_" points="283.4,189 276.4,189 283.4,197.3 276.4,205.5 283.4,205.5 290.5,197.3 283.4,189 					"/>
				</defs>
				<use xlink:href="#SVGID_33_"  style="overflow:visible;fill-rule:evenodd;clip-rule:evenodd;fill:#BDBDBD;"/>
				<clipPath id="SVGID_34_">
					<use xlink:href="#SVGID_33_"  style="overflow:visible;"/>
				</clipPath>
				<rect x="274.1" y="186.7" class="st24" width="18.7" height="21.1"/>
			</g>
			<g>
				<defs>
					<polygon id="SVGID_35_" points="273.2,189 266.1,189 273.2,197.3 266.1,205.5 273.2,205.5 280.2,197.3 273.2,189 					"/>
				</defs>
				<use xlink:href="#SVGID_35_"  style="overflow:visible;fill-rule:evenodd;clip-rule:evenodd;fill:#BDBDBD;"/>
				<clipPath id="SVGID_36_">
					<use xlink:href="#SVGID_35_"  style="overflow:visible;"/>
				</clipPath>
				<rect x="263.8" y="186.7" class="st25" width="18.7" height="21.1"/>
			</g>
		</g>
		<g>
			<path class="st11" d="M257.7,199.2h-2.4v-3.5h2.4v0.7h-1.5v0.7h1.4v0.7h-1.4v0.7h1.5V199.2z"/>
			<path class="st11" d="M260.1,197.4l-1.1-1.8h1.1l0.6,1.2h0l0.6-1.2h1l-1.1,1.8l1.1,1.8h-1l-0.7-1.1h0l-0.7,1.1h-1L260.1,197.4z"
				/>
			<path class="st11" d="M263.8,199.2v-3.5h0.9v3.5H263.8z"/>
			<path class="st11" d="M267.1,199.2v-2.8h-1v-0.7h2.9v0.7h-1v2.8H267.1z"/>
		</g>
	</g>
	<g>
		<g>
			<g>
				<defs>
					<polygon id="SVGID_37_" points="136.8,618.8 143.9,618.8 136.8,627.1 143.9,635.4 136.8,635.4 129.8,627.1 136.8,618.8 					
						"/>
				</defs>
				<use xlink:href="#SVGID_37_"  style="overflow:visible;fill-rule:evenodd;clip-rule:evenodd;fill:#BDBDBD;"/>
				<clipPath id="SVGID_38_">
					<use xlink:href="#SVGID_37_"  style="overflow:visible;"/>
				</clipPath>
				<rect x="127.5" y="616.5" class="st26" width="18.7" height="21.1"/>
			</g>
			<g>
				<defs>
					<polygon id="SVGID_39_" points="147.1,618.8 154.1,618.8 147.1,627.1 154.1,635.4 147.1,635.4 140,627.1 147.1,618.8 					"/>
				</defs>
				<use xlink:href="#SVGID_39_"  style="overflow:visible;fill-rule:evenodd;clip-rule:evenodd;fill:#BDBDBD;"/>
				<clipPath id="SVGID_40_">
					<use xlink:href="#SVGID_39_"  style="overflow:visible;"/>
				</clipPath>
				<rect x="137.7" y="616.5" class="st27" width="18.7" height="21.1"/>
			</g>
		</g>
		<g>
			<path class="st11" d="M155,629h-2.4v-3.5h2.4v0.7h-1.5v0.7h1.4v0.7h-1.4v0.7h1.5V629z"/>
			<path class="st11" d="M157.4,627.2l-1.1-1.8h1.1l0.6,1.2h0l0.6-1.2h1l-1.1,1.8l1.1,1.8h-1l-0.7-1.1h0l-0.7,1.1h-1L157.4,627.2z"
				/>
			<path class="st11" d="M161.1,629v-3.5h0.9v3.5H161.1z"/>
			<path class="st11" d="M164.4,629v-2.8h-1v-0.7h2.9v0.7h-1v2.8H164.4z"/>
		</g>
		<g>
			<g>
				<defs>
					<polygon id="SVGID_41_" points="287.7,618.8 280.6,618.8 287.7,627.1 280.6,635.4 287.7,635.4 294.7,627.1 287.7,618.8 					
						"/>
				</defs>
				<use xlink:href="#SVGID_41_"  style="overflow:visible;fill-rule:evenodd;clip-rule:evenodd;fill:#BDBDBD;"/>
				<clipPath id="SVGID_42_">
					<use xlink:href="#SVGID_41_"  style="overflow:visible;"/>
				</clipPath>
				<rect x="278.3" y="616.5" class="st28" width="18.7" height="21.1"/>
			</g>
			<g>
				<defs>
					<polygon id="SVGID_43_" points="277.4,618.8 270.4,618.8 277.4,627.1 270.4,635.4 277.4,635.4 284.5,627.1 277.4,618.8 					
						"/>
				</defs>
				<use xlink:href="#SVGID_43_"  style="overflow:visible;fill-rule:evenodd;clip-rule:evenodd;fill:#BDBDBD;"/>
				<clipPath id="SVGID_44_">
					<use xlink:href="#SVGID_43_"  style="overflow:visible;"/>
				</clipPath>
				<rect x="268.1" y="616.5" class="st29" width="18.7" height="21.1"/>
			</g>
		</g>
		<g>
			<path class="st11" d="M262,629h-2.4v-3.5h2.4v0.7h-1.5v0.7h1.4v0.7h-1.4v0.7h1.5V629z"/>
			<path class="st11" d="M264.4,627.2l-1.1-1.8h1.1l0.6,1.2h0l0.6-1.2h1l-1.1,1.8l1.1,1.8h-1l-0.7-1.1h0l-0.7,1.1h-1L264.4,627.2z"
				/>
			<path class="st11" d="M268.1,629v-3.5h0.9v3.5H268.1z"/>
			<path class="st11" d="M271.4,629v-2.8h-1v-0.7h2.9v0.7h-1v2.8H271.4z"/>
		</g>
	</g>
</g>
<g id="numbers">
	<g>
		<g>
			<path class="st11" d="M128.1,234.4L128.1,234.4l-1.2,0.8v-0.7l1.2-0.8h0.7v4.5h-0.7V234.4z"/>
			<path class="st11" d="M126.5,285.2c0-0.4,0.1-0.8,0.4-1c0.3-0.3,0.6-0.4,1.1-0.4c0.4,0,0.8,0.1,1.1,0.4c0.3,0.2,0.4,0.6,0.4,0.9
				c0,0.2-0.1,0.5-0.2,0.7c-0.1,0.2-0.4,0.5-0.8,0.9l-1,1v0.1h2.1v0.6h-3v-0.5l1.5-1.6c0.3-0.3,0.5-0.5,0.6-0.7
				c0.1-0.2,0.2-0.3,0.2-0.5c0-0.2-0.1-0.4-0.2-0.5c-0.2-0.1-0.4-0.2-0.6-0.2c-0.2,0-0.4,0.1-0.6,0.2c-0.2,0.1-0.2,0.3-0.2,0.6v0
				L126.5,285.2L126.5,285.2z"/>
			<path class="st11" d="M127.5,336.1h0.5c0.2,0,0.4-0.1,0.6-0.2s0.2-0.3,0.2-0.5c0-0.2-0.1-0.4-0.2-0.5c-0.1-0.1-0.3-0.2-0.6-0.2
				c-0.2,0-0.4,0.1-0.6,0.2c-0.2,0.1-0.2,0.3-0.3,0.5h-0.7c0-0.4,0.2-0.7,0.4-1c0.3-0.2,0.6-0.4,1.1-0.4c0.4,0,0.8,0.1,1.1,0.3
				c0.3,0.2,0.4,0.5,0.4,0.9c0,0.3-0.1,0.5-0.2,0.7c-0.1,0.2-0.3,0.3-0.6,0.4v0.1c0.3,0,0.5,0.2,0.7,0.4c0.2,0.2,0.3,0.4,0.3,0.7
				c0,0.4-0.2,0.7-0.5,1c-0.3,0.3-0.7,0.4-1.2,0.4c-0.5,0-0.9-0.1-1.2-0.4c-0.3-0.2-0.5-0.6-0.5-1h0.7c0,0.2,0.1,0.4,0.3,0.5
				c0.2,0.1,0.4,0.2,0.7,0.2c0.3,0,0.5-0.1,0.7-0.2c0.2-0.1,0.3-0.3,0.3-0.5c0-0.2-0.1-0.4-0.3-0.6c-0.2-0.1-0.4-0.2-0.7-0.2h-0.6
				V336.1z"/>
			<path class="st11" d="M128.5,388.1h-2.2v-0.7c0.4-0.6,1-1.6,1.9-3h1v3h0.6v0.6h-0.6v0.9h-0.7V388.1z M127,387.5h1.5v-2.4h0
				C128,385.9,127.5,386.7,127,387.5L127,387.5z"/>
			<path class="st11" d="M127,439.1c-0.3-0.3-0.4-0.6-0.5-1h0.7c0,0.2,0.1,0.4,0.3,0.5c0.2,0.1,0.4,0.2,0.6,0.2
				c0.3,0,0.5-0.1,0.7-0.3c0.2-0.2,0.3-0.4,0.3-0.7s-0.1-0.5-0.3-0.7c-0.2-0.2-0.4-0.3-0.7-0.3c-0.4,0-0.7,0.2-0.9,0.5h-0.6l0.2-2.6
				h2.6v0.6h-2.1l-0.1,1.3h0.1c0.2-0.3,0.5-0.4,1-0.4c0.4,0,0.8,0.1,1.1,0.4c0.3,0.3,0.4,0.6,0.4,1.1c0,0.5-0.1,0.8-0.5,1.1
				c-0.3,0.3-0.7,0.4-1.2,0.4C127.6,439.4,127.3,439.3,127,439.1z"/>
			<path class="st11" d="M126.6,488.8c-0.2-0.4-0.3-0.8-0.3-1.4c0-0.8,0.2-1.4,0.5-1.8c0.3-0.4,0.8-0.6,1.3-0.6c0.4,0,0.7,0.1,1,0.3
				c0.3,0.2,0.5,0.5,0.5,0.9H129c-0.1-0.2-0.2-0.3-0.3-0.4c-0.1-0.1-0.3-0.2-0.5-0.2c-0.3,0-0.6,0.1-0.8,0.5
				c-0.2,0.3-0.3,0.7-0.3,1.3h0.1c0.2-0.5,0.6-0.7,1.2-0.7c0.4,0,0.8,0.1,1.1,0.4c0.3,0.3,0.4,0.6,0.4,1.1c0,0.5-0.2,0.8-0.5,1.1
				c-0.3,0.3-0.7,0.4-1.2,0.4C127.4,489.7,126.9,489.4,126.6,488.8z M128.8,488.8c0.2-0.2,0.3-0.4,0.3-0.7c0-0.3-0.1-0.5-0.3-0.7
				c-0.2-0.2-0.4-0.3-0.7-0.3c-0.3,0-0.5,0.1-0.7,0.3c-0.2,0.2-0.3,0.4-0.3,0.7c0,0.3,0.1,0.5,0.3,0.7c0.2,0.2,0.4,0.3,0.7,0.3
				C128.4,489.1,128.6,489,128.8,488.8z"/>
			<path class="st11" d="M128.9,536.1L128.9,536.1l-2.3-0.1v-0.6h3v0.6l-2,3.9h-0.7L128.9,536.1z"/>
			<path class="st11" d="M126.8,590c-0.3-0.2-0.5-0.6-0.5-1c0-0.3,0.1-0.5,0.3-0.7c0.2-0.2,0.4-0.3,0.7-0.4v-0.1
				c-0.2-0.1-0.4-0.2-0.6-0.4c-0.1-0.2-0.2-0.4-0.2-0.6c0-0.4,0.1-0.6,0.4-0.9c0.3-0.2,0.6-0.3,1.1-0.3c0.4,0,0.8,0.1,1.1,0.3
				s0.4,0.5,0.4,0.9c0,0.2-0.1,0.5-0.2,0.6s-0.3,0.3-0.6,0.4v0.1c0.3,0.1,0.5,0.2,0.7,0.4c0.2,0.2,0.3,0.5,0.3,0.8
				c0,0.4-0.2,0.7-0.5,1c-0.3,0.2-0.7,0.4-1.2,0.4C127.6,590.3,127.2,590.2,126.8,590z M128.8,589.5c0.2-0.1,0.3-0.3,0.3-0.6
				c0-0.2-0.1-0.4-0.3-0.6s-0.4-0.2-0.7-0.2c-0.3,0-0.5,0.1-0.7,0.2c-0.2,0.1-0.3,0.3-0.3,0.6c0,0.2,0.1,0.4,0.3,0.6
				c0.2,0.1,0.4,0.2,0.7,0.2C128.4,589.7,128.6,589.7,128.8,589.5z M128.7,587.4c0.2-0.1,0.2-0.3,0.2-0.5c0-0.2-0.1-0.4-0.2-0.5
				c-0.2-0.1-0.4-0.2-0.6-0.2c-0.2,0-0.4,0.1-0.6,0.2c-0.2,0.1-0.2,0.3-0.2,0.5c0,0.2,0.1,0.4,0.2,0.5c0.1,0.1,0.3,0.2,0.6,0.2
				C128.3,587.6,128.5,587.5,128.7,587.4z"/>
		</g>
	</g>
	<g>
	</g>
	<g>
		<g>
			<path class="st11" d="M126,664.2L126,664.2l-1.2,0.8v-0.7l1.2-0.8h0.7v4.5H126V664.2z"/>
			<path class="st11" d="M128.3,667.7c-0.3-0.2-0.5-0.6-0.5-1c0-0.3,0.1-0.5,0.3-0.7c0.2-0.2,0.4-0.3,0.7-0.4v-0.1
				c-0.2-0.1-0.4-0.2-0.6-0.4c-0.1-0.2-0.2-0.4-0.2-0.6c0-0.4,0.1-0.6,0.4-0.9c0.3-0.2,0.6-0.3,1.1-0.3c0.4,0,0.8,0.1,1.1,0.3
				s0.4,0.5,0.4,0.9c0,0.2-0.1,0.5-0.2,0.6s-0.3,0.3-0.6,0.4v0.1c0.3,0.1,0.5,0.2,0.7,0.4c0.2,0.2,0.3,0.5,0.3,0.8
				c0,0.4-0.2,0.7-0.5,1c-0.3,0.2-0.7,0.4-1.2,0.4C129.1,668.1,128.7,667.9,128.3,667.7z M130.3,667.3c0.2-0.1,0.3-0.3,0.3-0.6
				c0-0.2-0.1-0.4-0.3-0.6s-0.4-0.2-0.7-0.2c-0.3,0-0.5,0.1-0.7,0.2c-0.2,0.1-0.3,0.3-0.3,0.6c0,0.2,0.1,0.4,0.3,0.6
				c0.2,0.1,0.4,0.2,0.7,0.2C129.9,667.5,130.1,667.4,130.3,667.3z M130.2,665.1c0.2-0.1,0.2-0.3,0.2-0.5c0-0.2-0.1-0.4-0.2-0.5
				c-0.2-0.1-0.4-0.2-0.6-0.2c-0.2,0-0.4,0.1-0.6,0.2c-0.2,0.1-0.2,0.3-0.2,0.5c0,0.2,0.1,0.4,0.2,0.5c0.1,0.1,0.3,0.2,0.6,0.2
				C129.8,665.3,130,665.3,130.2,665.1z"/>
			<path class="st11" d="M126,714.5L126,714.5l-1.2,0.8v-0.7l1.2-0.8h0.7v4.5H126V714.5z"/>
			<path class="st11" d="M128.5,718c-0.3-0.2-0.5-0.5-0.5-0.9h0.7c0.1,0.2,0.2,0.3,0.3,0.4c0.1,0.1,0.3,0.2,0.5,0.2
				c0.3,0,0.6-0.1,0.8-0.5c0.2-0.3,0.3-0.7,0.3-1.3h-0.1c-0.2,0.5-0.6,0.7-1.2,0.7c-0.4,0-0.8-0.1-1.1-0.4c-0.3-0.3-0.4-0.6-0.4-1.1
				c0-0.5,0.2-0.8,0.5-1.1c0.3-0.3,0.7-0.4,1.2-0.4c0.7,0,1.2,0.3,1.5,0.9c0.2,0.4,0.3,0.8,0.3,1.4c0,0.8-0.2,1.4-0.5,1.8
				c-0.3,0.4-0.8,0.6-1.3,0.6C129.1,718.4,128.7,718.2,128.5,718z M130.2,715.9c0.2-0.2,0.3-0.4,0.3-0.7c0-0.3-0.1-0.5-0.3-0.7
				c-0.2-0.2-0.4-0.3-0.7-0.3c-0.3,0-0.5,0.1-0.7,0.3s-0.3,0.4-0.3,0.7c0,0.3,0.1,0.5,0.3,0.7c0.2,0.2,0.4,0.3,0.7,0.3
				C129.8,716.1,130,716,130.2,715.9z"/>
			<path class="st11" d="M124.5,765.3c0-0.4,0.1-0.8,0.4-1c0.3-0.3,0.6-0.4,1.1-0.4c0.4,0,0.8,0.1,1.1,0.4c0.3,0.2,0.4,0.6,0.4,0.9
				c0,0.2-0.1,0.5-0.2,0.7c-0.1,0.2-0.4,0.5-0.8,0.9l-1,1v0.1h2.1v0.6h-3V768l1.5-1.6c0.3-0.3,0.5-0.5,0.6-0.7
				c0.1-0.2,0.2-0.3,0.2-0.5c0-0.2-0.1-0.4-0.2-0.5c-0.2-0.1-0.4-0.2-0.6-0.2c-0.2,0-0.4,0.1-0.6,0.2c-0.2,0.1-0.2,0.3-0.2,0.6v0
				L124.5,765.3L124.5,765.3z"/>
			<path class="st11" d="M128.8,768c-0.3-0.4-0.4-1-0.4-1.7c0-0.7,0.1-1.3,0.4-1.7c0.3-0.4,0.7-0.6,1.2-0.6c0.5,0,0.9,0.2,1.2,0.6
				c0.3,0.4,0.4,1,0.4,1.7c0,0.7-0.1,1.3-0.4,1.7c-0.3,0.4-0.7,0.6-1.2,0.6C129.5,768.7,129.1,768.5,128.8,768z M130.7,767.6
				c0.2-0.3,0.2-0.7,0.2-1.3c0-0.6-0.1-1-0.3-1.3c-0.2-0.3-0.4-0.5-0.7-0.5s-0.5,0.1-0.7,0.5c-0.2,0.3-0.3,0.7-0.3,1.3
				c0,0.6,0.1,1,0.3,1.3c0.2,0.3,0.4,0.5,0.7,0.5S130.5,767.9,130.7,767.6z"/>
			<path class="st11" d="M125,815.6c0-0.4,0.1-0.8,0.4-1c0.3-0.3,0.6-0.4,1.1-0.4c0.4,0,0.8,0.1,1.1,0.4c0.3,0.2,0.4,0.6,0.4,0.9
				c0,0.2-0.1,0.5-0.2,0.7c-0.1,0.2-0.4,0.5-0.8,0.9l-1,1v0.1h2.1v0.6h-3v-0.5l1.5-1.6c0.3-0.3,0.5-0.5,0.6-0.7
				c0.1-0.2,0.2-0.3,0.2-0.5c0-0.2-0.1-0.4-0.2-0.5c-0.2-0.1-0.4-0.2-0.6-0.2c-0.2,0-0.4,0.1-0.6,0.2c-0.2,0.1-0.2,0.3-0.2,0.6v0
				L125,815.6L125,815.6z"/>
			<path class="st11" d="M130,815.1L130,815.1l-1.2,0.8v-0.7l1.2-0.8h0.7v4.5H130V815.1z"/>
			<path class="st11" d="M124.6,865.9c0-0.4,0.1-0.8,0.4-1c0.3-0.3,0.6-0.4,1.1-0.4c0.4,0,0.8,0.1,1.1,0.4c0.3,0.2,0.4,0.6,0.4,0.9
				c0,0.2-0.1,0.5-0.2,0.7c-0.1,0.2-0.4,0.5-0.8,0.9l-1,1v0.1h2.1v0.6h-3v-0.5l1.5-1.6c0.3-0.3,0.5-0.5,0.6-0.7
				c0.1-0.2,0.2-0.3,0.2-0.5c0-0.2-0.1-0.4-0.2-0.5c-0.2-0.1-0.4-0.2-0.6-0.2c-0.2,0-0.4,0.1-0.6,0.2c-0.2,0.1-0.2,0.3-0.2,0.6v0
				L124.6,865.9L124.6,865.9z"/>
			<path class="st11" d="M128.5,865.9c0-0.4,0.1-0.8,0.4-1c0.3-0.3,0.6-0.4,1.1-0.4c0.4,0,0.8,0.1,1.1,0.4c0.3,0.2,0.4,0.6,0.4,0.9
				c0,0.2-0.1,0.5-0.2,0.7c-0.1,0.2-0.4,0.5-0.8,0.9l-1,1v0.1h2.1v0.6h-3v-0.5l1.5-1.6c0.3-0.3,0.5-0.5,0.6-0.7
				c0.1-0.2,0.2-0.3,0.2-0.5c0-0.2-0.1-0.4-0.2-0.5c-0.2-0.1-0.4-0.2-0.6-0.2c-0.2,0-0.4,0.1-0.6,0.2c-0.2,0.1-0.2,0.3-0.2,0.6v0
				L128.5,865.9L128.5,865.9z"/>
		</g>
	</g>
</g>
</svg>
