<?xml version="1.0" encoding="utf-8"?>
<!-- Generator: Adobe Illustrator 22.1.0, SVG Export Plug-In . SVG Version: 6.00 Build 0)  -->
<svg version="1.1" xmlns="http://www.w3.org/2000/svg" xmlns:xlink="http://www.w3.org/1999/xlink" x="0px" y="0px" width="425px"
	 height="2324.6px" viewBox="0 0 425 2324.6" style="enable-background:new 0 0 425 2324.6;" xml:space="preserve">
<style type="text/css">
	.st0{clip-path:url(#SVGID_3_);}
	.st1{clip-path:url(#SVGID_7_);}
	.st2{clip-path:url(#SVGID_12_);}
	.st3{clip-path:url(#SVGID_13_);}
	.st4{clip-path:url(#SVGID_14_);fill:#F3F3F3;}
	.st5{clip-path:url(#SVGID_17_);}
	.st6{clip-path:url(#SVGID_18_);fill:#FFFFFF;}
	.st7{fill:#424242;}
	.st8{fill-rule:evenodd;clip-rule:evenodd;fill:#FFFFFF;}
	.st9{fill:#F3F3F3;}
	.st10{fill:#E5E5E5;}
	.st11{fill:#333333;}
	.st12{display:none;opacity:0.36;}
	.st13{display:inline;}
	.st14{fill:#E26154;}
	.st15{fill:#FFCC00;}
	.st16{fill:#2DD086;}
	.st17{fill:#BDBDBD;}
	.st18{fill:#29AB70;}
	.st19{fill:#E2A62A;}
	.st20{fill:#C14437;}
	.st21{fill:#FFFFFF;}
	.st22{fill-rule:evenodd;clip-rule:evenodd;fill:#2DB4D0;}
	.st23{clip-path:url(#SVGID_27_);}
	.st24{clip-path:url(#SVGID_28_);fill:#FFFFFF;}
	.st25{clip-path:url(#SVGID_31_);}
	.st26{clip-path:url(#SVGID_32_);fill:#FFFFFF;}
	.st27{clip-path:url(#SVGID_35_);}
	.st28{clip-path:url(#SVGID_36_);fill:#FFFFFF;}
	.st29{clip-path:url(#SVGID_39_);}
	.st30{clip-path:url(#SVGID_40_);fill:#FFFFFF;}
	.st31{clip-path:url(#SVGID_43_);}
	.st32{clip-path:url(#SVGID_44_);fill:#FFFFFF;}
	.st33{clip-path:url(#SVGID_47_);}
	.st34{clip-path:url(#SVGID_48_);fill:#FFFFFF;}
	.st35{clip-path:url(#SVGID_51_);}
	.st36{clip-path:url(#SVGID_52_);fill:#FFFFFF;}
	.st37{clip-path:url(#SVGID_55_);}
	.st38{clip-path:url(#SVGID_56_);fill:#FFFFFF;}
	.st39{clip-path:url(#SVGID_59_);}
	.st40{clip-path:url(#SVGID_60_);fill:#FFFFFF;}
	.st41{clip-path:url(#SVGID_63_);}
	.st42{clip-path:url(#SVGID_64_);fill:#FFFFFF;}
	.st43{clip-path:url(#SVGID_67_);}
	.st44{clip-path:url(#SVGID_68_);fill:#FFFFFF;}
	.st45{clip-path:url(#SVGID_71_);}
	.st46{clip-path:url(#SVGID_72_);fill:#FFFFFF;}
	.st47{clip-path:url(#SVGID_75_);}
	.st48{clip-path:url(#SVGID_76_);fill:#FFFFFF;}
	.st49{clip-path:url(#SVGID_78_);fill:#FFFFFF;}
	.st50{clip-path:url(#SVGID_81_);}
	.st51{clip-path:url(#SVGID_82_);fill:#FFFFFF;}
	.st52{clip-path:url(#SVGID_85_);}
	.st53{clip-path:url(#SVGID_86_);fill:#FFFFFF;}
	.st54{clip-path:url(#SVGID_88_);fill:#FFFFFF;}
	.st55{clip-path:url(#SVGID_90_);fill:#BDBDBD;}
	.st56{clip-path:url(#SVGID_92_);fill:#BDBDBD;}
	.st57{clip-path:url(#SVGID_94_);fill:#BDBDBD;}
	.st58{clip-path:url(#SVGID_96_);fill:#BDBDBD;}
	.st59{clip-path:url(#SVGID_98_);fill:#BDBDBD;}
	.st60{clip-path:url(#SVGID_100_);fill:#BDBDBD;}
</style>
<g id="Layer_1">
	<g id="plane_bgr_1_">
		<g>
			<defs>
				<polyline id="SVGID_1_" points="120,1106.9 304,1111 304,-6 120,-10.1 				"/>
			</defs>
			<defs>
				<polyline id="SVGID_2_" points="120.1,-10.1 304,-6 304,1111 120.1,1106.9 				"/>
			</defs>
			<clipPath id="SVGID_3_">
				<use xlink:href="#SVGID_1_"  style="overflow:visible;"/>
			</clipPath>
			<clipPath id="SVGID_4_" class="st0">
				<use xlink:href="#SVGID_2_"  style="overflow:visible;"/>
			</clipPath>
		</g>
		<g>
			<defs>
				<polyline id="SVGID_5_" points="120,1106.9 304,1111 304,-6 120,-10.1 				"/>
			</defs>
			<defs>
				<polyline id="SVGID_6_" points="120.1,-10.1 304,-6 304,1111 120.1,1106.9 				"/>
			</defs>
			<clipPath id="SVGID_7_">
				<use xlink:href="#SVGID_5_"  style="overflow:visible;"/>
			</clipPath>
			<clipPath id="SVGID_8_" class="st1">
				<use xlink:href="#SVGID_6_"  style="overflow:visible;"/>
			</clipPath>
		</g>
		<g>
			<defs>
				<polyline id="SVGID_9_" points="120,1106.9 304,1111 304,-6 120,-10.1 				"/>
			</defs>
			<defs>
				<path id="SVGID_10_" d="M131.3,211.8C161.1,107,195.9,30.1,212.3,30.1c16.2,0,50.4,78.5,80.9,181.7l0,0c1,4,1.6,8.1,1.6,12.3
					v610.7l0,0c0,4.1-0.5,8.1-1.5,12.1c-39.9,156.9-66.9,246.6-81,246.6c-14,0-41-89.7-81-246.6l0,0c-1-4-1.5-8-1.5-12.1V224l0,0
					C129.8,219.9,130.3,215.8,131.3,211.8L131.3,211.8z"/>
			</defs>
			<defs>
				<polyline id="SVGID_11_" points="120.1,-10.1 304,-6 304,1111 120.1,1106.9 				"/>
			</defs>
			<clipPath id="SVGID_12_">
				<use xlink:href="#SVGID_9_"  style="overflow:visible;"/>
			</clipPath>
			<clipPath id="SVGID_13_" class="st2">
				<use xlink:href="#SVGID_10_"  style="overflow:visible;"/>
			</clipPath>
			<clipPath id="SVGID_14_" class="st3">
				<use xlink:href="#SVGID_11_"  style="overflow:visible;"/>
			</clipPath>
			<rect x="127.3" y="-8.4" class="st4" width="169.9" height="1113.8"/>
		</g>
		<g>
			<defs>
				<polyline id="SVGID_15_" points="120,1104.7 304,1108.8 304.7,-8.2 120.7,-12.3 				"/>
			</defs>
			<defs>
				<path id="SVGID_16_" d="M133.7,232.3L133.7,232.3v588.9c23,113.3,49.2,149.2,78.5,149.2c29.4,0,55.6-35.9,78.5-149.2v-589
					c0,0,0-15.2-4.2-26c0,0-19.2-8-75.2-8c0,0-61.6,1.1-74.1,9C137.2,207.2,132.5,224.1,133.7,232.3z"/>
			</defs>
			<clipPath id="SVGID_17_">
				<use xlink:href="#SVGID_15_"  style="overflow:visible;"/>
			</clipPath>
			<clipPath id="SVGID_18_" class="st5">
				<use xlink:href="#SVGID_16_"  style="overflow:visible;"/>
			</clipPath>
			<rect x="132.5" y="116.2" class="st6" width="162" height="877.3"/>
		</g>
		<g>
			<defs>
				<polyline id="SVGID_19_" points="120,1107.1 304,1107.1 304,-9.9 120,-9.9 				"/>
			</defs>
			<clipPath id="SVGID_20_">
				<use xlink:href="#SVGID_19_"  style="overflow:visible;"/>
			</clipPath>
		</g>
	</g>
	<g>
		<path class="st7" d="M167,1112.2c-0.4-0.4-0.6-0.9-0.6-1.5c0-0.6,0.2-1.1,0.6-1.5c0.4-0.4,0.9-0.6,1.5-0.6c0.6,0,1.1,0.2,1.5,0.6
			c0.4,0.4,0.6,0.9,0.6,1.5c0,0.6-0.2,1.1-0.6,1.5s-0.9,0.6-1.5,0.6C167.9,1112.8,167.4,1112.6,167,1112.2z M169.6,1111.8
			c0.3-0.3,0.5-0.7,0.5-1.2c0-0.5-0.2-0.8-0.5-1.2c-0.3-0.3-0.7-0.5-1.2-0.5s-0.8,0.2-1.2,0.5c-0.3,0.3-0.5,0.7-0.5,1.2
			c0,0.5,0.2,0.8,0.5,1.2c0.3,0.3,0.7,0.5,1.2,0.5S169.3,1112.2,169.6,1111.8z M168.9,1110.4c0-0.1-0.1-0.2-0.1-0.2
			c-0.1-0.1-0.1-0.1-0.2-0.1c-0.1,0-0.2,0-0.3,0.1c-0.1,0.1-0.1,0.2-0.1,0.4c0,0.2,0,0.3,0.1,0.4c0.1,0.1,0.2,0.1,0.3,0.1
			c0.2,0,0.3-0.1,0.3-0.3h0.6c0,0.2-0.1,0.4-0.3,0.6c-0.2,0.1-0.4,0.2-0.6,0.2c-0.3,0-0.6-0.1-0.7-0.3c-0.2-0.2-0.3-0.4-0.3-0.8
			c0-0.3,0.1-0.6,0.3-0.8c0.2-0.2,0.4-0.3,0.7-0.3c0.3,0,0.5,0.1,0.6,0.2c0.2,0.1,0.3,0.3,0.3,0.6H168.9z"/>
		<path class="st7" d="M172,1109.8c0-0.4,0.1-0.7,0.4-0.9c0.3-0.2,0.6-0.4,1.1-0.4c0.4,0,0.8,0.1,1,0.3c0.3,0.2,0.4,0.5,0.4,0.8
			c0,0.2-0.1,0.4-0.2,0.6c-0.1,0.2-0.4,0.5-0.7,0.8l-0.6,0.6v0.1h1.6v0.8H172v-0.7l1.2-1.1c0.3-0.3,0.5-0.5,0.6-0.6
			c0.1-0.1,0.1-0.2,0.1-0.4c0-0.1,0-0.3-0.1-0.3c-0.1-0.1-0.2-0.1-0.4-0.1c-0.2,0-0.3,0.1-0.4,0.2c-0.1,0.1-0.2,0.2-0.2,0.4v0
			L172,1109.8L172,1109.8z"/>
		<path class="st7" d="M176.9,1112c-0.3-0.4-0.4-0.9-0.4-1.5c0-0.6,0.1-1.1,0.4-1.5c0.3-0.4,0.7-0.5,1.2-0.5c0.5,0,0.9,0.2,1.2,0.5
			c0.3,0.4,0.4,0.9,0.4,1.5c0,0.6-0.1,1.1-0.4,1.5c-0.3,0.4-0.7,0.5-1.2,0.5C177.6,1112.6,177.2,1112.4,176.9,1112z M178.5,1111.5
			c0.1-0.2,0.2-0.5,0.2-1c0-0.4-0.1-0.7-0.2-1c-0.1-0.2-0.3-0.3-0.5-0.3s-0.3,0.1-0.5,0.3c-0.1,0.2-0.2,0.5-0.2,1
			c0,0.4,0.1,0.7,0.2,1c0.1,0.2,0.3,0.3,0.5,0.3S178.4,1111.7,178.5,1111.5z"/>
		<path class="st7" d="M182.2,1109.5L182.2,1109.5l-1,0.6v-0.8l1-0.7h1v3.9h-1V1109.5z"/>
		<path class="st7" d="M185.5,1112.2c-0.3-0.2-0.5-0.5-0.5-0.8c0-0.2,0.1-0.4,0.2-0.6c0.2-0.2,0.4-0.3,0.6-0.4v-0.1
			c-0.2,0-0.4-0.1-0.5-0.3c-0.1-0.2-0.2-0.3-0.2-0.5c0-0.3,0.1-0.6,0.4-0.8c0.3-0.2,0.6-0.3,1.1-0.3s0.8,0.1,1.1,0.3
			c0.3,0.2,0.4,0.5,0.4,0.8c0,0.2-0.1,0.4-0.2,0.5c-0.1,0.2-0.3,0.3-0.5,0.3v0.1c0.3,0,0.5,0.2,0.6,0.3c0.2,0.2,0.2,0.4,0.2,0.6
			c0,0.3-0.2,0.6-0.5,0.8c-0.3,0.2-0.7,0.3-1.2,0.3C186.2,1112.6,185.8,1112.5,185.5,1112.2z M187.1,1111.7c0.1-0.1,0.2-0.2,0.2-0.4
			c0-0.2-0.1-0.3-0.2-0.4c-0.1-0.1-0.3-0.2-0.4-0.2c-0.2,0-0.3,0.1-0.4,0.2c-0.1,0.1-0.2,0.2-0.2,0.4c0,0.2,0.1,0.3,0.2,0.4
			c0.1,0.1,0.3,0.1,0.4,0.1S187,1111.8,187.1,1111.7z M187,1110c0.1-0.1,0.1-0.2,0.1-0.3s0-0.3-0.1-0.3c-0.1-0.1-0.2-0.1-0.4-0.1
			c-0.2,0-0.3,0-0.4,0.1c-0.1,0.1-0.1,0.2-0.1,0.3s0,0.3,0.1,0.3c0.1,0.1,0.2,0.1,0.4,0.1S186.9,1110.1,187,1110z"/>
		<path class="st7" d="M193,1112.5v-3.1h-1.1v-0.8h3.2v0.8H194v3.1H193z"/>
		<path class="st7" d="M197.6,1112.5h-1v-3.9h1.7c0.5,0,0.8,0.1,1.1,0.3c0.3,0.2,0.4,0.5,0.4,0.9c0,0.2-0.1,0.5-0.2,0.7
			c-0.1,0.2-0.3,0.3-0.5,0.4l0.8,1.5h-1.1l-0.7-1.3h-0.5V1112.5z M197.6,1110.4h0.6c0.2,0,0.3,0,0.4-0.1c0.1-0.1,0.2-0.2,0.2-0.4
			c0-0.2-0.1-0.3-0.2-0.4c-0.1-0.1-0.2-0.1-0.4-0.1h-0.6V1110.4z"/>
		<path class="st7" d="M201.4,1112.5v-3.9h1v3.9H201.4z"/>
		<path class="st7" d="M205.9,1108.6c0.4,0,0.8,0.1,1,0.4c0.3,0.2,0.4,0.6,0.4,1c0,0.4-0.1,0.7-0.4,1c-0.3,0.2-0.6,0.4-1,0.4h-0.6
			v1.1h-1v-3.9H205.9z M205.1,1110.6h0.4c0.2,0,0.4-0.1,0.5-0.2c0.1-0.1,0.2-0.3,0.2-0.5c0-0.2-0.1-0.4-0.2-0.5
			c-0.1-0.1-0.3-0.2-0.5-0.2h-0.4V1110.6z"/>
		<path class="st7" d="M211,1111.6h-1.3l-0.2,0.8h-1l1.3-3.9h1.2l1.3,3.9h-1.1L211,1111.6z M210,1110.9h0.9l-0.4-1.4h-0.1
			L210,1110.9z"/>
		<path class="st7" d="M215.5,1108.6c0.6,0,1,0.2,1.3,0.5c0.3,0.3,0.5,0.8,0.5,1.4c0,0.6-0.2,1.1-0.5,1.5c-0.3,0.3-0.8,0.5-1.3,0.5
			h-1.6v-3.9H215.5z M214.8,1111.7h0.5c0.3,0,0.6-0.1,0.7-0.3c0.2-0.2,0.3-0.5,0.3-0.9c0-0.4-0.1-0.6-0.3-0.8
			c-0.2-0.2-0.4-0.3-0.7-0.3h-0.5V1111.7z"/>
		<path class="st7" d="M219.8,1112.5l-1.2-3.9h1.1l0.7,2.8h0.1l0.7-2.8h1.1l-1.2,3.9H219.8z"/>
		<path class="st7" d="M223.8,1112.5v-3.9h1v3.9H223.8z"/>
		<path class="st7" d="M227.3,1111.4c0,0.1,0.1,0.3,0.2,0.3c0.1,0.1,0.3,0.1,0.5,0.1c0.2,0,0.3,0,0.4-0.1c0.1-0.1,0.2-0.2,0.2-0.3
			c0-0.1,0-0.2-0.1-0.3c-0.1-0.1-0.2-0.1-0.5-0.2l-0.5-0.1c-0.7-0.1-1.1-0.5-1.1-1.1c0-0.4,0.1-0.7,0.4-0.9c0.3-0.2,0.6-0.3,1.1-0.3
			c0.5,0,0.8,0.1,1.1,0.3c0.3,0.2,0.4,0.5,0.4,0.9h-0.9c0-0.1-0.1-0.2-0.2-0.3c-0.1-0.1-0.3-0.1-0.4-0.1s-0.3,0-0.4,0.1
			c-0.1,0.1-0.2,0.2-0.2,0.3c0,0.2,0.2,0.3,0.6,0.4l0.5,0.1c0.4,0.1,0.7,0.2,0.8,0.4c0.2,0.2,0.3,0.4,0.3,0.7c0,0.4-0.1,0.7-0.4,0.9
			c-0.3,0.2-0.7,0.3-1.2,0.3c-0.5,0-0.9-0.1-1.2-0.3c-0.3-0.2-0.4-0.5-0.4-0.9H227.3z"/>
		<path class="st7" d="M234.3,1109c0.3,0.4,0.5,0.9,0.5,1.5c0,0.6-0.2,1.1-0.5,1.5c-0.3,0.4-0.8,0.5-1.4,0.5c-0.6,0-1-0.2-1.4-0.5
			c-0.3-0.4-0.5-0.9-0.5-1.5c0-0.6,0.2-1.1,0.5-1.5c0.3-0.4,0.8-0.5,1.4-0.5C233.5,1108.5,233.9,1108.7,234.3,1109z M232.2,1109.6
			c-0.2,0.2-0.2,0.5-0.2,0.9c0,0.4,0.1,0.7,0.2,0.9c0.2,0.2,0.4,0.3,0.7,0.3c0.3,0,0.5-0.1,0.7-0.3c0.2-0.2,0.2-0.5,0.2-0.9
			c0-0.4-0.1-0.7-0.2-0.9c-0.2-0.2-0.4-0.3-0.7-0.3C232.6,1109.3,232.4,1109.4,232.2,1109.6z"/>
		<path class="st7" d="M237.3,1112.5h-1v-3.9h1.7c0.5,0,0.8,0.1,1.1,0.3c0.3,0.2,0.4,0.5,0.4,0.9c0,0.2-0.1,0.5-0.2,0.7
			c-0.1,0.2-0.3,0.3-0.5,0.4l0.8,1.5h-1.1l-0.7-1.3h-0.5V1112.5z M237.3,1110.4h0.6c0.2,0,0.3,0,0.4-0.1c0.1-0.1,0.2-0.2,0.2-0.4
			c0-0.2-0.1-0.3-0.2-0.4c-0.1-0.1-0.2-0.1-0.4-0.1h-0.6V1110.4z"/>
		<path class="st7" d="M245.9,1112.5h-2.6v-3.9h1v3h1.6V1112.5z"/>
		<path class="st7" d="M250.1,1112.5h-2.6v-3.9h1v3h1.6V1112.5z"/>
		<path class="st7" d="M252,1112c-0.3-0.4-0.5-0.9-0.5-1.5s0.2-1.1,0.5-1.5c0.3-0.4,0.8-0.5,1.4-0.5c0.5,0,0.9,0.1,1.2,0.4
			c0.3,0.3,0.5,0.7,0.5,1.1h-0.9c0-0.2-0.1-0.4-0.3-0.5c-0.1-0.1-0.3-0.2-0.5-0.2c-0.3,0-0.5,0.1-0.6,0.3c-0.2,0.2-0.2,0.5-0.2,0.9
			c0,0.4,0.1,0.7,0.2,0.9c0.2,0.2,0.4,0.3,0.6,0.3c0.2,0,0.4-0.1,0.5-0.2c0.1-0.1,0.2-0.3,0.3-0.5h0.9c0,0.4-0.2,0.8-0.5,1.1
			c-0.3,0.3-0.7,0.4-1.2,0.4C252.8,1112.6,252.3,1112.4,252,1112z"/>
	</g>
	<path id="nose_mobile" class="st8" d="M137.2,207.2c0,0,19.2-91.8,74.8-90.3c0,0,52.9-5.2,74.5,89.3"/>
	<g id="wings_back">
		<path class="st9" d="M121.9,992.3l21.3-17.5l15.5-28.3c0,0,20.3,78.3,37.4,121.5c0,0-15.7,2.2-23.7,6.4l-50.4,23.4V992.3z"/>
		<path class="st9" d="M303,992.3l-21.3-17.5l-15.5-28.3c0,0-20.2,77.6-37.4,121.5c0,0,15.7,2.2,23.7,6.4l50.4,23.4V992.3z"/>
	</g>
</g>
<g id="wings">
	<g>
		<g id="wings_4_">
			<polygon class="st10" points="133,394.5 12.1,438.2 12.1,660.9 133,625 			"/>
		</g>
		<g id="wings_2_">
			<polygon class="st10" points="294.5,394.5 415.4,438.2 415.4,660.9 294.5,625 			"/>
		</g>
	</g>
</g>
<g id="labels">
	<g>
		<g>
			<path class="st11" d="M187.9,242.4h-4.4v-6.4h4.4v1.3h-2.8v1.3h2.6v1.2h-2.6v1.3h2.8V242.4z"/>
			<path class="st11" d="M191.2,241.6c-0.6-0.6-0.8-1.4-0.8-2.5s0.3-1.9,0.8-2.5c0.6-0.6,1.3-0.9,2.3-0.9c0.8,0,1.5,0.2,2,0.7
				c0.5,0.5,0.8,1.1,0.9,1.8h-1.6c0-0.4-0.2-0.6-0.4-0.8c-0.2-0.2-0.5-0.3-0.9-0.3c-0.4,0-0.8,0.2-1.1,0.5c-0.3,0.4-0.4,0.9-0.4,1.5
				c0,0.6,0.1,1.1,0.4,1.5c0.3,0.4,0.6,0.5,1.1,0.5c0.4,0,0.7-0.1,0.9-0.3c0.2-0.2,0.4-0.5,0.4-0.8h1.6c0,0.7-0.3,1.3-0.9,1.8
				c-0.5,0.5-1.2,0.7-2,0.7C192.6,242.6,191.8,242.2,191.2,241.6z"/>
			<path class="st11" d="M204.2,236.7c0.6,0.6,0.9,1.4,0.9,2.5c0,1-0.3,1.9-0.9,2.5c-0.6,0.6-1.3,0.9-2.3,0.9c-1,0-1.7-0.3-2.3-0.9
				c-0.6-0.6-0.9-1.4-0.9-2.5c0-1,0.3-1.9,0.9-2.5c0.6-0.6,1.3-0.9,2.3-0.9S203.6,236.1,204.2,236.7z M200.8,237.7
				c-0.3,0.4-0.4,0.9-0.4,1.5c0,0.6,0.1,1.1,0.4,1.5c0.3,0.4,0.6,0.6,1.1,0.6c0.5,0,0.8-0.2,1.1-0.6c0.3-0.4,0.4-0.9,0.4-1.5
				c0-0.6-0.1-1.1-0.4-1.5c-0.3-0.4-0.6-0.6-1.1-0.6C201.4,237.1,201,237.3,200.8,237.7z"/>
			<path class="st11" d="M207.6,242.4v-6.4h1.3l2.7,3.6h0.1v-3.6h1.6v6.4h-1.3l-2.7-3.7h-0.1v3.7H207.6z"/>
			<path class="st11" d="M221.3,236.7c0.6,0.6,0.9,1.4,0.9,2.5c0,1-0.3,1.9-0.9,2.5c-0.6,0.6-1.3,0.9-2.3,0.9c-1,0-1.7-0.3-2.3-0.9
				c-0.6-0.6-0.9-1.4-0.9-2.5c0-1,0.3-1.9,0.9-2.5c0.6-0.6,1.3-0.9,2.3-0.9C220,235.8,220.7,236.1,221.3,236.7z M217.9,237.7
				c-0.3,0.4-0.4,0.9-0.4,1.5c0,0.6,0.1,1.1,0.4,1.5c0.3,0.4,0.6,0.6,1.1,0.6c0.5,0,0.8-0.2,1.1-0.6c0.3-0.4,0.4-0.9,0.4-1.5
				c0-0.6-0.1-1.1-0.4-1.5c-0.3-0.4-0.6-0.6-1.1-0.6C218.6,237.1,218.2,237.3,217.9,237.7z"/>
			<path class="st11" d="M224.8,242.4v-6.4h1.9l1.6,3.9h0.1l1.6-3.9h1.9v6.4h-1.5v-4.1h-0.1l-1.4,3.6h-1l-1.4-3.6h-0.1v4.1H224.8z"
				/>
			<path class="st11" d="M236.5,242.4v-2.2l-2.2-4.2h1.7l1.3,2.6h0.1l1.2-2.6h1.7l-2.2,4.2v2.2H236.5z"/>
		</g>
	</g>
</g>
<g id="Layer_10" class="st12">
	<g class="st13">
		<defs>
			<path id="SVGID_21_" d="M42.4,803.6H185c1.1,0,2,0.9,2,2v632.3c0,1.1-0.9,2-2,2H42.4c-1.1,0-2-0.9-2-2l0-632.3c0-1.1,1.8-2,2.9-2
				H42.4z"/>
		</defs>
		<use xlink:href="#SVGID_21_"  style="overflow:visible;fill-rule:evenodd;clip-rule:evenodd;fill:#2DB4D0;"/>
		<clipPath id="SVGID_22_">
			<use xlink:href="#SVGID_21_"  style="overflow:visible;"/>
		</clipPath>
	</g>
	<g class="st13">
		<defs>
			<path id="SVGID_23_" d="M239.2,803.6h142.6c1.1,0,2,0.9,2,2v632.3c0,1.1-0.9,2-2,2H239.2c-1.1,0-2-0.9-2-2l0-632.3
				c0-1.1,1.8-2,2.9-2H239.2z"/>
		</defs>
		<use xlink:href="#SVGID_23_"  style="overflow:visible;fill-rule:evenodd;clip-rule:evenodd;fill:#2DB4D0;"/>
		<clipPath id="SVGID_24_">
			<use xlink:href="#SVGID_23_"  style="overflow:visible;"/>
		</clipPath>
	</g>
</g>
<g id="colors">
	<path class="st14" d="M173.1,308.2c-0.1-0.1-0.4-2.6-3-2.9c-0.5-3.2-4.3-3.9-4.3-3.9s-15.1,0-20.9,0c-4.3,0-5.3,2.6-5.5,3.9
		c-2.7,0.3-3,2.8-3,2.8s0,23.4,0,30.1c0,6.7,5.8,6.8,5.8,6.8s20,0,25.7,0s5.3-6.1,5.3-6.1S173.2,308.3,173.1,308.2z"/>
	<path class="st15" d="M173.1,459.1c-0.1-0.1-0.4-2.6-3-2.9c-0.5-3.2-4.3-3.9-4.3-3.9s-15.1,0-20.9,0c-4.3,0-5.3,2.6-5.5,3.9
		c-2.7,0.3-3,2.8-3,2.8s0,23.4,0,30.1c0,6.7,5.8,6.8,5.8,6.8s20,0,25.7,0s5.3-6.1,5.3-6.1S173.2,459.2,173.1,459.1z"/>
	<path class="st15" d="M288.2,459.1c-0.1-0.1-0.4-2.6-3-2.9c-0.5-3.2-4.3-3.9-4.3-3.9s-15.1,0-20.9,0c-4.3,0-5.3,2.6-5.5,3.9
		c-2.7,0.3-3,2.8-3,2.8s0,23.4,0,30.1c0,6.7,5.8,6.8,5.8,6.8s20,0,25.7,0c5.7,0,5.3-6.1,5.3-6.1S288.4,459.2,288.2,459.1z"/>
	<path class="st15" d="M251.4,459.1c-0.1-0.1-0.4-2.6-3-2.9c-0.5-3.2-4.3-3.9-4.3-3.9s-15.1,0-20.9,0c-4.3,0-5.3,2.6-5.5,3.9
		c-2.7,0.3-3,2.8-3,2.8s0,23.4,0,30.1c0,6.7,5.8,6.8,5.8,6.8s20,0,25.7,0c5.7,0,5.3-6.1,5.3-6.1S251.5,459.2,251.4,459.1z"/>
	<path class="st16" d="M251.4,257.9c-0.1-0.1-0.4-2.6-3-2.9c-0.5-3.2-4.3-3.9-4.3-3.9s-15.1,0-20.9,0c-4.3,0-5.3,2.6-5.5,3.9
		c-2.7,0.3-3,2.8-3,2.8s0,23.4,0,30.1s5.8,6.8,5.8,6.8s20,0,25.7,0c5.7,0,5.3-6.1,5.3-6.1S251.5,258,251.4,257.9z"/>
	<path class="st15" d="M173.1,257.9c-0.1-0.1-0.4-2.6-3-2.9c-0.5-3.2-4.3-3.9-4.3-3.9s-15.1,0-20.9,0c-4.3,0-5.3,2.6-5.5,3.9
		c-2.7,0.3-3,2.8-3,2.8s0,23.4,0,30.1s5.8,6.8,5.8,6.8s20,0,25.7,0c5.7,0,5.3-6.1,5.3-6.1S173.2,258,173.1,257.9z"/>
	<path class="st14" d="M288.2,788.3c-0.1-0.1-0.4-2.6-3-2.9c-0.5-3.2-4.3-3.9-4.3-3.9s-15.1,0-20.9,0c-4.3,0-5.3,2.6-5.5,3.9
		c-2.7,0.3-3,2.8-3,2.8s0,23.4,0,30.1c0,6.7,5.8,6.8,5.8,6.8s20,0,25.7,0s5.3-6.1,5.3-6.1S288.4,788.5,288.2,788.3z"/>
	<path class="st14" d="M251.4,788.3c-0.1-0.1-0.4-2.6-3-2.9c-0.5-3.2-4.3-3.9-4.3-3.9s-15.1,0-20.9,0c-4.3,0-5.3,2.6-5.5,3.9
		c-2.7,0.3-3,2.8-3,2.8s0,23.4,0,30.1c0,6.7,5.8,6.8,5.8,6.8s20,0,25.7,0c5.7,0,5.3-6.1,5.3-6.1S251.5,788.5,251.4,788.3z"/>
	<path class="st15" d="M209.8,788.3c-0.1-0.1-0.4-2.6-3-2.9c-0.5-3.2-4.3-3.9-4.3-3.9s-15.1,0-20.9,0c-4.3,0-5.3,2.6-5.5,3.9
		c-2.7,0.3-3,2.8-3,2.8s0,23.4,0,30.1c0,6.7,5.8,6.8,5.8,6.8s20,0,25.7,0c5.7,0,5.3-6.1,5.3-6.1S210,788.5,209.8,788.3z"/>
	<path class="st16" d="M173.1,536.8c-0.1-0.1-0.4-2.6-3-2.9c-0.5-3.2-4.3-3.9-4.3-3.9s-15.1,0-20.9,0c-4.3,0-5.3,2.6-5.5,3.9
		c-2.7,0.3-3,2.8-3,2.8s0,23.4,0,30.1c0,6.7,5.8,6.8,5.8,6.8s20,0,25.7,0s5.3-6.1,5.3-6.1S173.2,537,173.1,536.8z"/>
	<path class="st16" d="M288.2,536.8c-0.1-0.1-0.4-2.6-3-2.9c-0.5-3.2-4.3-3.9-4.3-3.9s-15.1,0-20.9,0c-4.3,0-5.3,2.6-5.5,3.9
		c-2.7,0.3-3,2.8-3,2.8s0,23.4,0,30.1c0,6.7,5.8,6.8,5.8,6.8s20,0,25.7,0s5.3-6.1,5.3-6.1S288.4,537,288.2,536.8z"/>
	<path class="st16" d="M251.4,536.8c-0.1-0.1-0.4-2.6-3-2.9c-0.5-3.2-4.3-3.9-4.3-3.9s-15.1,0-20.9,0c-4.3,0-5.3,2.6-5.5,3.9
		c-2.7,0.3-3,2.8-3,2.8s0,23.4,0,30.1c0,6.7,5.8,6.8,5.8,6.8s20,0,25.7,0c5.7,0,5.3-6.1,5.3-6.1S251.5,537,251.4,536.8z"/>
	<path class="st14" d="M288.2,308.2c-0.1-0.1-0.4-2.6-3-2.9c-0.5-3.2-4.3-3.9-4.3-3.9s-15.1,0-20.9,0c-4.3,0-5.3,2.6-5.5,3.9
		c-2.7,0.3-3,2.8-3,2.8s0,23.4,0,30.1c0,6.7,5.8,6.8,5.8,6.8s20,0,25.7,0c5.7,0,5.3-6.1,5.3-6.1S288.4,308.3,288.2,308.2z"/>
	<path class="st14" d="M173.1,788.3c-0.1-0.1-0.4-2.6-3-2.9c-0.5-3.2-4.3-3.9-4.3-3.9s-15.1,0-20.9,0c-4.3,0-5.3,2.6-5.5,3.9
		c-2.7,0.3-3,2.8-3,2.8s0,23.4,0,30.1c0,6.7,5.8,6.8,5.8,6.8s20,0,25.7,0s5.3-6.1,5.3-6.1S173.2,788.5,173.1,788.3z"/>
</g>
<g id="seats">
	<g>
		<g>
			<path class="st17" d="M167.8,675h-25.7c-0.1,0-6.5-0.1-6.5-7.4l0-30.2c0.2-1.2,1.3-3.5,4.3-3.5c2.7,0,4.1,1.2,4.1,3.6v25
				c0.3,0.6,2.2,4.3,10.4,4.3c9,0,11.2-4,11.4-4.3v-24.9c0.1-1.2,0.9-3.6,3.8-3.6c2,0,3.3,1.1,4,3.2c0,0.1,0,0.1,0,0.1l0,0
				c0.2,0.8,0.2,4.7,0.1,31c0,0.1,0.2,3.1-1.6,5.1C171.1,674.4,169.6,675,167.8,675z M137,637.5v30.1c0,6,4.9,6.1,5.1,6.1h25.7
				c1.4,0,2.5-0.4,3.3-1.2c1.5-1.6,1.3-4.1,1.3-4.1c0-11.7,0.1-29.1,0-30.6c0-0.1,0-0.1-0.1-0.2c-0.3-1-0.9-2.2-2.7-2.2
				c-2.2,0-2.4,2-2.4,2.2v25c0,1.1-3.3,5.6-12.8,5.6c-9.9,0-11.7-5-11.7-5.3l0-0.1v-25.2c0-0.8,0-2.2-2.7-2.2
				C137.5,635.2,137,637.2,137,637.5z"/>
			<path class="st17" d="M138.6,635.4c0-0.1-0.1-2,1.4-3.6c1.1-1.2,2.7-1.7,4.9-1.7l21,0c1.7,0.3,4.9,1.7,4.9,5.3h-1.4
				c0-3.1-3.3-3.8-3.7-3.9h-20.9c-1.7,0-3,0.4-3.9,1.3c-1.1,1.1-1,2.6-1,2.6L138.6,635.4z"/>
		</g>
	</g>
	<g>
		<g>
			<path class="st17" d="M283,295.5h-25.7c-0.1,0-6.5-0.1-6.5-7.4l0-30.2c0.2-1.2,1.3-3.5,4.3-3.5c2.7,0,4.1,1.2,4.1,3.6v25
				c0.3,0.6,2.2,4.3,10.4,4.3c9,0,11.2-4,11.4-4.3v-24.9c0.1-1.2,0.9-3.6,3.8-3.6c2,0,3.3,1.1,4,3.2c0,0.1,0,0.1,0,0.1l0,0
				c0.2,0.8,0.2,4.7,0.1,31c0,0.1,0.2,3.1-1.6,5.1C286.3,294.9,284.8,295.5,283,295.5z M252.2,258V288c0,6,4.9,6.1,5.1,6.1H283
				c1.4,0,2.5-0.4,3.3-1.2c1.5-1.6,1.3-4.1,1.3-4.1c0-11.7,0.1-29.1,0-30.6c0-0.1,0-0.1-0.1-0.2c-0.3-1-0.9-2.2-2.7-2.2
				c-2.2,0-2.4,2-2.4,2.2v25c0,1.1-3.3,5.6-12.8,5.6c-9.9,0-11.7-5-11.7-5.3l0-0.1v-25.2c0-0.8,0-2.2-2.7-2.2
				C252.7,255.7,252.2,257.7,252.2,258z"/>
			<path class="st17" d="M253.8,255.8c0-0.1-0.1-2,1.4-3.6c1.1-1.2,2.7-1.7,4.9-1.7l21,0c1.7,0.3,4.9,1.7,4.9,5.3h-1.4
				c0-3.1-3.3-3.8-3.7-3.9H260c-1.7,0-3,0.4-3.9,1.3c-1.1,1.1-1,2.6-1,2.6L253.8,255.8z"/>
		</g>
	</g>
	<g>
		<g>
			<path class="st18" d="M246.2,295.5h-25.7c-0.1,0-6.5-0.1-6.5-7.4l0-30.2c0.2-1.2,1.3-3.5,4.3-3.5c2.7,0,4.1,1.2,4.1,3.6v25
				c0.3,0.6,2.2,4.3,10.4,4.3c9,0,11.2-4,11.4-4.3v-24.9c0.1-1.2,0.9-3.6,3.8-3.6c2,0,3.3,1.1,4,3.2c0,0.1,0,0.1,0,0.1l0,0
				c0.2,0.8,0.2,4.7,0.1,31c0,0.1,0.2,3.1-1.6,5.1C249.4,294.9,248,295.5,246.2,295.5z M215.3,258V288c0,6,4.9,6.1,5.1,6.1h25.7
				c1.4,0,2.5-0.4,3.3-1.2c1.5-1.6,1.3-4.1,1.3-4.1c0-11.7,0.1-29.1,0-30.6c0-0.1,0-0.1-0.1-0.2c-0.3-1-0.9-2.2-2.7-2.2
				c-2.2,0-2.4,2-2.4,2.2v25c0,1.1-3.3,5.6-12.8,5.6c-9.9,0-11.7-5-11.7-5.3l0-0.1v-25.2c0-0.8,0-2.2-2.7-2.2
				C215.9,255.7,215.4,257.7,215.3,258z"/>
			<path class="st18" d="M217,255.8c0-0.1-0.1-2,1.4-3.6c1.1-1.2,2.7-1.7,4.9-1.7l21,0c1.7,0.3,4.9,1.7,4.9,5.3h-1.4
				c0-3.1-3.3-3.8-3.7-3.9h-20.9c-1.7,0-3,0.4-3.9,1.3c-1.1,1.1-1,2.6-1,2.6L217,255.8z"/>
		</g>
	</g>
	<g>
		<path class="st19" d="M167.8,295.5h-25.7c-0.1,0-6.5-0.1-6.5-7.4l0-30.2c0.2-1.2,1.3-3.5,4.3-3.5c2.7,0,4.1,1.2,4.1,3.6v25
			c0.3,0.6,2.2,4.3,10.4,4.3c9,0,11.2-4,11.4-4.3v-24.9c0.1-1.2,0.9-3.6,3.8-3.6c2,0,3.3,1.1,4,3.2c0,0,0,0.1,0,0.1l0,0
			c0.2,0.8,0.2,4.7,0.1,31c0,0.1,0.2,3.1-1.6,5.1C171.1,294.9,169.6,295.5,167.8,295.5z M137,258V288c0,6,4.9,6.1,5.1,6.1h25.7
			c1.4,0,2.5-0.4,3.3-1.2c1.5-1.6,1.3-4.1,1.3-4.1c0-11.7,0.1-29.1,0-30.6c0-0.1,0-0.1-0.1-0.2c-0.3-1-0.9-2.2-2.7-2.2
			c-2.3,0-2.4,2.1-2.4,2.2l0,25c0,1.1-3.3,5.6-12.8,5.6c-9.9,0-11.7-5-11.7-5.3l0-0.1v-25.2c0-0.8,0-2.2-2.7-2.2
			C137.5,255.7,137,257.6,137,258z"/>
		<path class="st19" d="M138.6,255.8c0-0.1-0.1-2.1,1.4-3.6c1.1-1.2,2.7-1.7,4.9-1.7l21,0c1.7,0.3,4.9,1.7,4.9,5.3l-1.4-0.2
			c0-2.8-3.3-3.6-3.7-3.7h-20.9c-1.7,0-3,0.4-3.9,1.3c-0.9,0.9-1,2.2-1,2.5L138.6,255.8z"/>
	</g>
	<g>
		<path class="st20" d="M167.8,345.8h-25.7c-0.1,0-6.5-0.1-6.5-7.4l0-30.2c0.2-1.2,1.3-3.5,4.3-3.5c2.7,0,4.1,1.2,4.1,3.6v25
			c0.3,0.6,2.2,4.3,10.4,4.3c9,0,11.2-4,11.4-4.3v-24.9c0.1-1.2,0.9-3.6,3.8-3.6c2,0,3.3,1.1,4,3.2c0,0,0,0.1,0,0.1l0,0
			c0.2,0.8,0.2,4.7,0.1,31c0,0.1,0.2,3.1-1.6,5.1C171.1,345.2,169.6,345.8,167.8,345.8z M137,308.3v30.1c0,6,4.9,6.1,5.1,6.1h25.7
			c1.4,0,2.5-0.4,3.3-1.2c1.5-1.6,1.3-4.1,1.3-4.1c0-11.7,0.1-29.1,0-30.6c0-0.1,0-0.1-0.1-0.2c-0.3-1-0.9-2.2-2.7-2.2
			c-2.3,0-2.4,2.1-2.4,2.2l0,25c0,1.1-3.3,5.6-12.8,5.6c-9.9,0-11.7-5-11.7-5.3l0-0.1v-25.2c0-0.8,0-2.2-2.7-2.2
			C137.5,306,137,307.9,137,308.3z"/>
		<path class="st20" d="M138.6,306.1c0-0.1-0.1-2,1.4-3.6c1.1-1.2,2.7-1.7,4.9-1.7l21,0c1.7,0.3,4.9,1.7,4.9,5.3l-1.4-0.2
			c0-2.8-3.3-3.6-3.7-3.7h-20.9c-1.7,0-3,0.4-3.9,1.3c-0.9,0.9-1,2.2-1,2.5L138.6,306.1z"/>
	</g>
	<g>
		<path class="st17" d="M167.8,396.1h-25.7c-0.1,0-6.5-0.1-6.5-7.4l0-30.2c0.2-1.2,1.3-3.5,4.3-3.5c2.7,0,4.1,1.2,4.1,3.6v25
			c0.3,0.6,2.2,4.3,10.4,4.3c9,0,11.2-4,11.4-4.3v-24.9c0.1-1.2,0.9-3.6,3.8-3.6c2,0,3.3,1.1,4,3.2c0,0,0,0.1,0,0.1l0,0
			c0.2,0.8,0.2,4.7,0.1,31c0,0.1,0.2,3.1-1.6,5.1C171.1,395.5,169.6,396.1,167.8,396.1z M137,358.6v30.1c0,6,4.9,6.1,5.1,6.1h25.7
			c1.4,0,2.5-0.4,3.3-1.2c1.5-1.6,1.3-4.1,1.3-4.1c0-11.7,0.1-29.1,0-30.6c0-0.1,0-0.1-0.1-0.2c-0.3-1-0.9-2.2-2.7-2.2
			c-2.3,0-2.4,2.1-2.4,2.2l0,25c0,1.1-3.3,5.6-12.8,5.6c-9.9,0-11.7-5-11.7-5.3l0-0.1v-25.2c0-0.8,0-2.2-2.7-2.2
			C137.5,356.3,137,358.2,137,358.6z"/>
		<path class="st17" d="M138.6,356.4c0-0.1-0.1-2.1,1.4-3.6c1.1-1.2,2.7-1.7,4.9-1.7l21,0c1.7,0.3,4.9,1.7,4.9,5.3l-1.4-0.2
			c0-2.8-3.3-3.6-3.7-3.7h-20.9c-1.7,0-3,0.4-3.9,1.3c-0.9,0.9-1,2.2-1,2.5L138.6,356.4z"/>
	</g>
	<g>
		<path class="st17" d="M167.8,446.4h-25.7c-0.1,0-6.5-0.1-6.5-7.4l0-30.2c0.2-1.2,1.3-3.5,4.3-3.5c2.7,0,4.1,1.2,4.1,3.6v25
			c0.3,0.6,2.2,4.3,10.4,4.3c9,0,11.2-4,11.4-4.3v-24.9c0.1-1.2,0.9-3.6,3.8-3.6c2,0,3.3,1.1,4,3.2c0,0,0,0.1,0,0.1l0,0
			c0.2,0.8,0.2,4.7,0.1,31c0,0.1,0.2,3.1-1.6,5.1C171.1,445.8,169.6,446.4,167.8,446.4z M137,408.9v30.1c0,6,4.9,6.1,5.1,6.1h25.7
			c1.4,0,2.5-0.4,3.3-1.2c1.5-1.6,1.3-4.1,1.3-4.1c0-11.7,0.1-29.1,0-30.6c0-0.1,0-0.1-0.1-0.2c-0.3-1-0.9-2.2-2.7-2.2
			c-2.3,0-2.4,2.1-2.4,2.2l0,25c0,1.1-3.3,5.6-12.8,5.6c-9.9,0-11.7-5-11.7-5.3l0-0.1v-25.2c0-0.8,0-2.2-2.7-2.2
			C137.5,406.6,137,408.5,137,408.9z"/>
		<path class="st17" d="M138.6,406.7c0-0.1-0.1-2.1,1.4-3.6c1.1-1.2,2.7-1.7,4.9-1.7l21,0c1.7,0.3,4.9,1.7,4.9,5.3l-1.4-0.2
			c0-2.8-3.3-3.6-3.7-3.7h-20.9c-1.7,0-3,0.4-3.9,1.3c-0.9,0.9-1,2.2-1,2.5L138.6,406.7z"/>
	</g>
	<g>
		<path class="st19" d="M167.8,496.7h-25.7c-0.1,0-6.5-0.1-6.5-7.4l0-30.2c0.2-1.2,1.3-3.5,4.3-3.5c2.7,0,4.1,1.2,4.1,3.6v25
			c0.3,0.6,2.2,4.3,10.4,4.3c9,0,11.2-4,11.4-4.3v-24.9c0.1-1.2,0.9-3.6,3.8-3.6c2,0,3.3,1.1,4,3.2c0,0,0,0.1,0,0.1l0,0
			c0.2,0.8,0.2,4.7,0.1,31c0,0.1,0.2,3.1-1.6,5.1C171.1,496.1,169.6,496.7,167.8,496.7z M137,459.2v30.1c0,6,4.9,6.1,5.1,6.1h25.7
			c1.4,0,2.5-0.4,3.3-1.2c1.5-1.6,1.3-4.1,1.3-4.1c0-11.7,0.1-29.1,0-30.6c0-0.1,0-0.1-0.1-0.2c-0.3-1-0.9-2.2-2.7-2.2
			c-2.3,0-2.4,2.1-2.4,2.2l0,25c0,1.1-3.3,5.6-12.8,5.6c-9.9,0-11.7-5-11.7-5.3l0-0.1v-25.2c0-0.8,0-2.2-2.7-2.2
			C137.5,456.9,137,458.8,137,459.2z"/>
		<path class="st19" d="M138.6,457c0-0.1-0.1-2,1.4-3.6c1.1-1.2,2.7-1.7,4.9-1.7l21,0c1.7,0.3,4.9,1.7,4.9,5.3l-1.4-0.2
			c0-2.8-3.3-3.6-3.7-3.7h-20.9c-1.7,0-3,0.4-3.9,1.3c-0.9,0.9-1,2.2-1,2.5L138.6,457z"/>
	</g>
	<g>
		<path class="st17" d="M167.8,624.7h-25.7c-0.1,0-6.5-0.1-6.5-7.4l0-30.2c0.2-1.2,1.3-3.5,4.3-3.5c2.7,0,4.1,1.2,4.1,3.6v25
			c0.3,0.6,2.2,4.3,10.4,4.3c9,0,11.2-4,11.4-4.3v-24.9c0.1-1.2,0.9-3.6,3.8-3.6c2,0,3.3,1.1,4,3.2c0,0,0,0.1,0,0.1l0,0
			c0.2,0.8,0.2,4.7,0.1,31c0,0.1,0.2,3.1-1.6,5.1C171.1,624.1,169.6,624.7,167.8,624.7z M137,587.2v30.1c0,6,4.9,6.1,5.1,6.1h25.7
			c1.4,0,2.5-0.4,3.3-1.2c1.5-1.6,1.3-4.1,1.3-4.1c0-11.7,0.1-29.1,0-30.6c0-0.1,0-0.1-0.1-0.2c-0.3-1-0.9-2.2-2.7-2.2
			c-2.3,0-2.4,2.1-2.4,2.2l0,25c0,1.1-3.3,5.6-12.8,5.6c-9.9,0-11.7-5-11.7-5.3l0-0.1v-25.2c0-0.8,0-2.2-2.7-2.2
			C137.5,584.9,137,586.8,137,587.2z"/>
		<path class="st17" d="M138.6,585.1c0-0.1-0.1-2,1.4-3.6c1.1-1.2,2.7-1.7,4.9-1.7l21,0c1.7,0.3,4.9,1.7,4.9,5.3l-1.4-0.2
			c0-2.8-3.3-3.6-3.7-3.7h-20.9c-1.7,0-3,0.4-3.9,1.3c-0.9,0.9-1,2.2-1,2.5L138.6,585.1z"/>
	</g>
	<g>
		<path class="st17" d="M246.2,345.8h-25.7c-0.1,0-6.5-0.1-6.5-7.4l0-30.2c0.2-1.2,1.3-3.5,4.3-3.5c2.7,0,4.1,1.2,4.1,3.6v25
			c0.3,0.6,2.2,4.3,10.4,4.3c9,0,11.2-4,11.4-4.3v-24.9c0.1-1.2,0.9-3.6,3.8-3.6c2,0,3.3,1.1,4,3.2c0,0,0,0.1,0,0.1l0,0
			c0.2,0.8,0.2,4.7,0.1,31c0,0.1,0.2,3.1-1.6,5.1C249.4,345.2,248,345.8,246.2,345.8z M215.3,308.3v30.1c0,6,4.9,6.1,5.1,6.1h25.7
			c1.4,0,2.5-0.4,3.3-1.2c1.5-1.6,1.3-4.1,1.3-4.1c0-11.7,0.1-29.1,0-30.6c0-0.1,0-0.1-0.1-0.2c-0.3-1-0.9-2.2-2.7-2.2
			c-2.3,0-2.4,2.1-2.4,2.2l0,25c0,1.1-3.3,5.6-12.8,5.6c-9.9,0-11.7-5-11.7-5.3l0-0.1v-25.2c0-0.8,0-2.2-2.7-2.2
			C215.9,306,215.4,307.9,215.3,308.3z"/>
		<path class="st17" d="M217,306.1c0-0.1-0.1-2,1.4-3.6c1.1-1.2,2.7-1.7,4.9-1.7l21,0c1.7,0.3,4.9,1.7,4.9,5.3l-1.4-0.2
			c0-2.8-3.3-3.6-3.7-3.7h-20.9c-1.7,0-3,0.4-3.9,1.3c-0.9,0.9-1,2.2-1,2.5L217,306.1z"/>
	</g>
	<g>
		<path class="st17" d="M283,396.1h-25.7c-0.1,0-6.5-0.1-6.5-7.4l0-30.2c0.2-1.2,1.3-3.5,4.3-3.5c2.7,0,4.1,1.2,4.1,3.6v25
			c0.3,0.6,2.2,4.3,10.4,4.3c9,0,11.2-4,11.4-4.3v-24.9c0.1-1.2,0.9-3.6,3.8-3.6c2,0,3.3,1.1,4,3.2c0,0,0,0.1,0,0.1l0,0
			c0.2,0.8,0.2,4.7,0.1,31c0,0.1,0.2,3.1-1.6,5.1C286.3,395.5,284.8,396.1,283,396.1z M252.2,358.6v30.1c0,6,4.9,6.1,5.1,6.1H283
			c1.4,0,2.5-0.4,3.3-1.2c1.5-1.6,1.3-4.1,1.3-4.1c0-11.7,0.1-29.1,0-30.6c0-0.1,0-0.1-0.1-0.2c-0.3-1-0.9-2.2-2.7-2.2
			c-2.3,0-2.4,2.1-2.4,2.2l0,25c0,1.1-3.3,5.6-12.8,5.6c-9.9,0-11.7-5-11.7-5.3l0-0.1v-25.2c0-0.8,0-2.2-2.7-2.2
			C252.7,356.3,252.2,358.2,252.2,358.6z"/>
		<path class="st17" d="M253.8,356.4c0-0.1-0.1-2.1,1.4-3.6c1.1-1.2,2.7-1.7,4.9-1.7l21,0c1.7,0.3,4.9,1.7,4.9,5.3l-1.4-0.2
			c0-2.8-3.3-3.6-3.7-3.7H260c-1.7,0-3,0.4-3.9,1.3c-0.9,0.9-1,2.2-1,2.5L253.8,356.4z"/>
	</g>
	<g>
		<path class="st17" d="M246.2,396.1h-25.7c-0.1,0-6.5-0.1-6.5-7.4l0-30.2c0.2-1.2,1.3-3.5,4.3-3.5c2.7,0,4.1,1.2,4.1,3.6v25
			c0.3,0.6,2.2,4.3,10.4,4.3c9,0,11.2-4,11.4-4.3v-24.9c0.1-1.2,0.9-3.6,3.8-3.6c2,0,3.3,1.1,4,3.2c0,0,0,0.1,0,0.1l0,0
			c0.2,0.8,0.2,4.7,0.1,31c0,0.1,0.2,3.1-1.6,5.1C249.4,395.5,248,396.1,246.2,396.1z M215.3,358.6v30.1c0,6,4.9,6.1,5.1,6.1h25.7
			c1.4,0,2.5-0.4,3.3-1.2c1.5-1.6,1.3-4.1,1.3-4.1c0-11.7,0.1-29.1,0-30.6c0-0.1,0-0.1-0.1-0.2c-0.3-1-0.9-2.2-2.7-2.2
			c-2.3,0-2.4,2.1-2.4,2.2l0,25c0,1.1-3.3,5.6-12.8,5.6c-9.9,0-11.7-5-11.7-5.3l0-0.1v-25.2c0-0.8,0-2.2-2.7-2.2
			C215.9,356.3,215.4,358.2,215.3,358.6z"/>
		<path class="st17" d="M217,356.4c0-0.1-0.1-2.1,1.4-3.6c1.1-1.2,2.7-1.7,4.9-1.7l21,0c1.7,0.3,4.9,1.7,4.9,5.3l-1.4-0.2
			c0-2.8-3.3-3.6-3.7-3.7h-20.9c-1.7,0-3,0.4-3.9,1.3c-0.9,0.9-1,2.2-1,2.5L217,356.4z"/>
	</g>
	<g>
		<path class="st17" d="M283,446.4h-25.7c-0.1,0-6.5-0.1-6.5-7.4l0-30.2c0.2-1.2,1.3-3.5,4.3-3.5c2.7,0,4.1,1.2,4.1,3.6v25
			c0.3,0.6,2.2,4.3,10.4,4.3c9,0,11.2-4,11.4-4.3v-24.9c0.1-1.2,0.9-3.6,3.8-3.6c2,0,3.3,1.1,4,3.2c0,0,0,0.1,0,0.1l0,0
			c0.2,0.8,0.2,4.7,0.1,31c0,0.1,0.2,3.1-1.6,5.1C286.3,445.8,284.8,446.4,283,446.4z M252.2,408.9v30.1c0,6,4.9,6.1,5.1,6.1H283
			c1.4,0,2.5-0.4,3.3-1.2c1.5-1.6,1.3-4.1,1.3-4.1c0-11.7,0.1-29.1,0-30.6c0-0.1,0-0.1-0.1-0.2c-0.3-1-0.9-2.2-2.7-2.2
			c-2.3,0-2.4,2.1-2.4,2.2l0,25c0,1.1-3.3,5.6-12.8,5.6c-9.9,0-11.7-5-11.7-5.3l0-0.1v-25.2c0-0.8,0-2.2-2.7-2.2
			C252.7,406.6,252.2,408.5,252.2,408.9z"/>
		<path class="st17" d="M253.8,406.7c0-0.1-0.1-2.1,1.4-3.6c1.1-1.2,2.7-1.7,4.9-1.7l21,0c1.7,0.3,4.9,1.7,4.9,5.3l-1.4-0.2
			c0-2.8-3.3-3.6-3.7-3.7H260c-1.7,0-3,0.4-3.9,1.3c-0.9,0.9-1,2.2-1,2.5L253.8,406.7z"/>
	</g>
	<g>
		<path class="st17" d="M246.2,446.4h-25.7c-0.1,0-6.5-0.1-6.5-7.4l0-30.2c0.2-1.2,1.3-3.5,4.3-3.5c2.7,0,4.1,1.2,4.1,3.6v25
			c0.3,0.6,2.2,4.3,10.4,4.3c9,0,11.2-4,11.4-4.3v-24.9c0.1-1.2,0.9-3.6,3.8-3.6c2,0,3.3,1.1,4,3.2c0,0,0,0.1,0,0.1l0,0
			c0.2,0.8,0.2,4.7,0.1,31c0,0.1,0.2,3.1-1.6,5.1C249.4,445.8,248,446.4,246.2,446.4z M215.3,408.9v30.1c0,6,4.9,6.1,5.1,6.1h25.7
			c1.4,0,2.5-0.4,3.3-1.2c1.5-1.6,1.3-4.1,1.3-4.1c0-11.7,0.1-29.1,0-30.6c0-0.1,0-0.1-0.1-0.2c-0.3-1-0.9-2.2-2.7-2.2
			c-2.3,0-2.4,2.1-2.4,2.2l0,25c0,1.1-3.3,5.6-12.8,5.6c-9.9,0-11.7-5-11.7-5.3l0-0.1v-25.2c0-0.8,0-2.2-2.7-2.2
			C215.9,406.6,215.4,408.5,215.3,408.9z"/>
		<path class="st17" d="M217,406.7c0-0.1-0.1-2.1,1.4-3.6c1.1-1.2,2.7-1.7,4.9-1.7l21,0c1.7,0.3,4.9,1.7,4.9,5.3l-1.4-0.2
			c0-2.8-3.3-3.6-3.7-3.7h-20.9c-1.7,0-3,0.4-3.9,1.3c-0.9,0.9-1,2.2-1,2.5L217,406.7z"/>
	</g>
	<g>
		<path class="st19" d="M283,496.7h-25.7c-0.1,0-6.5-0.1-6.5-7.4l0-30.2c0.2-1.2,1.3-3.5,4.3-3.5c2.7,0,4.1,1.2,4.1,3.6v25
			c0.3,0.6,2.2,4.3,10.4,4.3c9,0,11.2-4,11.4-4.3v-24.9c0.1-1.2,0.9-3.6,3.8-3.6c2,0,3.3,1.1,4,3.2c0,0,0,0.1,0,0.1l0,0
			c0.2,0.8,0.2,4.7,0.1,31c0,0.1,0.2,3.1-1.6,5.1C286.3,496.1,284.8,496.7,283,496.7z M252.2,459.2v30.1c0,6,4.9,6.1,5.1,6.1H283
			c1.4,0,2.5-0.4,3.3-1.2c1.5-1.6,1.3-4.1,1.3-4.1c0-11.7,0.1-29.1,0-30.6c0-0.1,0-0.1-0.1-0.2c-0.3-1-0.9-2.2-2.7-2.2
			c-2.3,0-2.4,2.1-2.4,2.2l0,25c0,1.1-3.3,5.6-12.8,5.6c-9.9,0-11.7-5-11.7-5.3l0-0.1v-25.2c0-0.8,0-2.2-2.7-2.2
			C252.7,456.9,252.2,458.8,252.2,459.2z"/>
		<path class="st19" d="M253.8,457c0-0.1-0.1-2,1.4-3.6c1.1-1.2,2.7-1.7,4.9-1.7l21,0c1.7,0.3,4.9,1.7,4.9,5.3l-1.4-0.2
			c0-2.8-3.3-3.6-3.7-3.7H260c-1.7,0-3,0.4-3.9,1.3c-0.9,0.9-1,2.2-1,2.5L253.8,457z"/>
	</g>
	<g>
		<path class="st19" d="M246.2,496.7h-25.7c-0.1,0-6.5-0.1-6.5-7.4l0-30.2c0.2-1.2,1.3-3.5,4.3-3.5c2.7,0,4.1,1.2,4.1,3.6v25
			c0.3,0.6,2.2,4.3,10.4,4.3c9,0,11.2-4,11.4-4.3v-24.9c0.1-1.2,0.9-3.6,3.8-3.6c2,0,3.3,1.1,4,3.2c0,0,0,0.1,0,0.1l0,0
			c0.2,0.8,0.2,4.7,0.1,31c0,0.1,0.2,3.1-1.6,5.1C249.4,496.1,248,496.7,246.2,496.7z M215.3,459.2v30.1c0,6,4.9,6.1,5.1,6.1h25.7
			c1.4,0,2.5-0.4,3.3-1.2c1.5-1.6,1.3-4.1,1.3-4.1c0-11.7,0.1-29.1,0-30.6c0-0.1,0-0.1-0.1-0.2c-0.3-1-0.9-2.2-2.7-2.2
			c-2.3,0-2.4,2.1-2.4,2.2l0,25c0,1.1-3.3,5.6-12.8,5.6c-9.9,0-11.7-5-11.7-5.3l0-0.1v-25.2c0-0.8,0-2.2-2.7-2.2
			C215.9,456.9,215.4,458.8,215.3,459.2z"/>
		<path class="st19" d="M217,457c0-0.1-0.1-2,1.4-3.6c1.1-1.2,2.7-1.7,4.9-1.7l21,0c1.7,0.3,4.9,1.7,4.9,5.3l-1.4-0.2
			c0-2.8-3.3-3.6-3.7-3.7h-20.9c-1.7,0-3,0.4-3.9,1.3c-0.9,0.9-1,2.2-1,2.5L217,457z"/>
	</g>
	<g>
		<path class="st20" d="M283,825.9h-25.7c-0.1,0-6.5-0.1-6.5-7.4l0-30.2c0.2-1.2,1.3-3.5,4.3-3.5c2.7,0,4.1,1.2,4.1,3.6v25
			c0.3,0.6,2.2,4.3,10.4,4.3c9,0,11.2-4,11.4-4.3v-24.9c0.1-1.2,0.9-3.6,3.8-3.6c2,0,3.3,1.1,4,3.2c0,0,0,0.1,0,0.1l0,0
			c0.2,0.8,0.2,4.7,0.1,31c0,0.1,0.2,3.1-1.6,5.1C286.3,825.3,284.8,825.9,283,825.9z M252.2,788.4v30.1c0,6,4.9,6.1,5.1,6.1H283
			c1.4,0,2.5-0.4,3.3-1.2c1.5-1.6,1.3-4.1,1.3-4.1c0-11.7,0.1-29.1,0-30.6c0-0.1,0-0.1-0.1-0.2c-0.3-1-0.9-2.2-2.7-2.2
			c-2.3,0-2.4,2.1-2.4,2.2l0,25c0,1.1-3.3,5.6-12.8,5.6c-9.9,0-11.7-5-11.7-5.3l0-0.1v-25.2c0-0.8,0-2.2-2.7-2.2
			C252.7,786.1,252.2,788,252.2,788.4z"/>
		<path class="st20" d="M253.8,786.3c0-0.1-0.1-2,1.4-3.6c1.1-1.2,2.7-1.7,4.9-1.7l21,0c1.7,0.3,4.9,1.7,4.9,5.3l-1.4-0.2
			c0-2.8-3.3-3.6-3.7-3.7H260c-1.7,0-3,0.4-3.9,1.3c-0.9,0.9-1,2.2-1,2.5L253.8,786.3z"/>
	</g>
	<g>
		<path class="st20" d="M246.2,825.9h-25.7c-0.1,0-6.5-0.1-6.5-7.4l0-30.2c0.2-1.2,1.3-3.5,4.3-3.5c2.7,0,4.1,1.2,4.1,3.6v25
			c0.3,0.6,2.2,4.3,10.4,4.3c9,0,11.2-4,11.4-4.3v-24.9c0.1-1.2,0.9-3.6,3.8-3.6c2,0,3.3,1.1,4,3.2c0,0,0,0.1,0,0.1l0,0
			c0.2,0.8,0.2,4.7,0.1,31c0,0.1,0.2,3.1-1.6,5.1C249.4,825.3,248,825.9,246.2,825.9z M215.3,788.4v30.1c0,6,4.9,6.1,5.1,6.1h25.7
			c1.4,0,2.5-0.4,3.3-1.2c1.5-1.6,1.3-4.1,1.3-4.1c0-11.7,0.1-29.1,0-30.6c0-0.1,0-0.1-0.1-0.2c-0.3-1-0.9-2.2-2.7-2.2
			c-2.3,0-2.4,2.1-2.4,2.2l0,25c0,1.1-3.3,5.6-12.8,5.6c-9.9,0-11.7-5-11.7-5.3l0-0.1v-25.2c0-0.8,0-2.2-2.7-2.2
			C215.9,786.1,215.4,788,215.3,788.4z"/>
		<path class="st20" d="M217,786.3c0-0.1-0.1-2,1.4-3.6c1.1-1.2,2.7-1.7,4.9-1.7l21,0c1.7,0.3,4.9,1.7,4.9,5.3l-1.4-0.2
			c0-2.8-3.3-3.6-3.7-3.7h-20.9c-1.7,0-3,0.4-3.9,1.3c-0.9,0.9-1,2.2-1,2.5L217,786.3z"/>
	</g>
	<g>
		<path class="st19" d="M204.6,825.9h-25.7c-0.1,0-6.5-0.1-6.5-7.4l0-30.2c0.2-1.2,1.3-3.5,4.3-3.5c2.7,0,4.1,1.2,4.1,3.6v25
			c0.3,0.6,2.2,4.3,10.4,4.3c9,0,11.2-4,11.4-4.3v-24.9c0.1-1.2,0.9-3.6,3.8-3.6c2,0,3.3,1.1,4,3.2c0,0,0,0.1,0,0.1l0,0
			c0.2,0.8,0.2,4.7,0.1,31c0,0.1,0.2,3.1-1.6,5.1C207.8,825.3,206.4,825.9,204.6,825.9z M173.8,788.4v30.1c0,6,4.9,6.1,5.1,6.1h25.7
			c1.4,0,2.5-0.4,3.3-1.2c1.5-1.6,1.3-4.1,1.3-4.1c0-11.7,0.1-29.1,0-30.6c0-0.1,0-0.1-0.1-0.2c-0.3-1-0.9-2.2-2.7-2.2
			c-2.3,0-2.4,2.1-2.4,2.2l0,25c0,1.1-3.3,5.6-12.8,5.6c-9.9,0-11.7-5-11.7-5.3l0-0.1v-25.2c0-0.8,0-2.2-2.7-2.2
			C174.3,786.1,173.8,788,173.8,788.4z"/>
		<path class="st19" d="M175.4,786.3c0-0.1-0.1-2,1.4-3.6c1.1-1.2,2.7-1.7,4.9-1.7l21,0c1.7,0.3,4.9,1.7,4.9,5.3l-1.4-0.2
			c0-2.8-3.3-3.6-3.7-3.7h-20.9c-1.7,0-3,0.4-3.9,1.3c-0.9,0.9-1,2.2-1,2.5L175.4,786.3z"/>
	</g>
	<g>
		<path class="st18" d="M167.8,574.4h-25.7c-0.1,0-6.5-0.1-6.5-7.4l0-30.2c0.2-1.2,1.3-3.5,4.3-3.5c2.7,0,4.1,1.2,4.1,3.6v25
			c0.3,0.6,2.2,4.3,10.4,4.3c9,0,11.2-4,11.4-4.3v-24.9c0.1-1.2,0.9-3.6,3.8-3.6c2,0,3.3,1.1,4,3.2c0,0,0,0.1,0,0.1l0,0
			c0.2,0.8,0.2,4.7,0.1,31c0,0.1,0.2,3.1-1.6,5.1C171.1,573.8,169.6,574.4,167.8,574.4z M137,536.9V567c0,6,4.9,6.1,5.1,6.1h25.7
			c1.4,0,2.5-0.4,3.3-1.2c1.5-1.6,1.3-4.1,1.3-4.1c0-11.7,0.1-29.1,0-30.6c0-0.1,0-0.1-0.1-0.2c-0.3-1-0.9-2.2-2.7-2.2
			c-2.3,0-2.4,2.1-2.4,2.2l0,25c0,1.1-3.3,5.6-12.8,5.6c-9.9,0-11.7-5-11.7-5.3l0-0.1v-25.2c0-0.8,0-2.2-2.7-2.2
			C137.5,534.6,137,536.5,137,536.9z"/>
		<path class="st18" d="M138.6,534.8c0-0.1-0.1-2,1.4-3.6c1.1-1.2,2.7-1.7,4.9-1.7l21,0c1.7,0.3,4.9,1.7,4.9,5.3l-1.4-0.2
			c0-2.8-3.3-3.6-3.7-3.7h-20.9c-1.7,0-3,0.4-3.9,1.3c-0.9,0.9-1,2.2-1,2.5L138.6,534.8z"/>
	</g>
	<g>
		<path class="st18" d="M283,574.4h-25.7c-0.1,0-6.5-0.1-6.5-7.4l0-30.2c0.2-1.2,1.3-3.5,4.3-3.5c2.7,0,4.1,1.2,4.1,3.6v25
			c0.3,0.6,2.2,4.3,10.4,4.3c9,0,11.2-4,11.4-4.3v-24.9c0.1-1.2,0.9-3.6,3.8-3.6c2,0,3.3,1.1,4,3.2c0,0,0,0.1,0,0.1l0,0
			c0.2,0.8,0.2,4.7,0.1,31c0,0.1,0.2,3.1-1.6,5.1C286.3,573.8,284.8,574.4,283,574.4z M252.2,536.9V567c0,6,4.9,6.1,5.1,6.1H283
			c1.4,0,2.5-0.4,3.3-1.2c1.5-1.6,1.3-4.1,1.3-4.1c0-11.7,0.1-29.1,0-30.6c0-0.1,0-0.1-0.1-0.2c-0.3-1-0.9-2.2-2.7-2.2
			c-2.3,0-2.4,2.1-2.4,2.2l0,25c0,1.1-3.3,5.6-12.8,5.6c-9.9,0-11.7-5-11.7-5.3l0-0.1v-25.2c0-0.8,0-2.2-2.7-2.2
			C252.7,534.6,252.2,536.5,252.2,536.9z"/>
		<path class="st18" d="M253.8,534.8c0-0.1-0.1-2,1.4-3.6c1.1-1.2,2.7-1.7,4.9-1.7l21,0c1.7,0.3,4.9,1.7,4.9,5.3l-1.4-0.2
			c0-2.8-3.3-3.6-3.7-3.7H260c-1.7,0-3,0.4-3.9,1.3c-0.9,0.9-1,2.2-1,2.5L253.8,534.8z"/>
	</g>
	<g>
		<path class="st18" d="M246.2,574.4h-25.7c-0.1,0-6.5-0.1-6.5-7.4l0-30.2c0.2-1.2,1.3-3.5,4.3-3.5c2.7,0,4.1,1.2,4.1,3.6v25
			c0.3,0.6,2.2,4.3,10.4,4.3c9,0,11.2-4,11.4-4.3v-24.9c0.1-1.2,0.9-3.6,3.8-3.6c2,0,3.3,1.1,4,3.2c0,0,0,0.1,0,0.1l0,0
			c0.2,0.8,0.2,4.7,0.1,31c0,0.1,0.2,3.1-1.6,5.1C249.4,573.8,248,574.4,246.2,574.4z M215.3,536.9V567c0,6,4.9,6.1,5.1,6.1h25.7
			c1.4,0,2.5-0.4,3.3-1.2c1.5-1.6,1.3-4.1,1.3-4.1c0-11.7,0.1-29.1,0-30.6c0-0.1,0-0.1-0.1-0.2c-0.3-1-0.9-2.2-2.7-2.2
			c-2.3,0-2.4,2.1-2.4,2.2l0,25c0,1.1-3.3,5.6-12.8,5.6c-9.9,0-11.7-5-11.7-5.3l0-0.1v-25.2c0-0.8,0-2.2-2.7-2.2
			C215.9,534.6,215.4,536.5,215.3,536.9z"/>
		<path class="st18" d="M217,534.8c0-0.1-0.1-2,1.4-3.6c1.1-1.2,2.7-1.7,4.9-1.7l21,0c1.7,0.3,4.9,1.7,4.9,5.3l-1.4-0.2
			c0-2.8-3.3-3.6-3.7-3.7h-20.9c-1.7,0-3,0.4-3.9,1.3c-0.9,0.9-1,2.2-1,2.5L217,534.8z"/>
	</g>
	<g>
		<path class="st17" d="M283,624.7h-25.7c-0.1,0-6.5-0.1-6.5-7.4l0-30.2c0.2-1.2,1.3-3.5,4.3-3.5c2.7,0,4.1,1.2,4.1,3.6v25
			c0.3,0.6,2.2,4.3,10.4,4.3c9,0,11.2-4,11.4-4.3v-24.9c0.1-1.2,0.9-3.6,3.8-3.6c2,0,3.3,1.1,4,3.2c0,0,0,0.1,0,0.1l0,0
			c0.2,0.8,0.2,4.7,0.1,31c0,0.1,0.2,3.1-1.6,5.1C286.3,624.1,284.8,624.7,283,624.7z M252.2,587.2v30.1c0,6,4.9,6.1,5.1,6.1H283
			c1.4,0,2.5-0.4,3.3-1.2c1.5-1.6,1.3-4.1,1.3-4.1c0-11.7,0.1-29.1,0-30.6c0-0.1,0-0.1-0.1-0.2c-0.3-1-0.9-2.2-2.7-2.2
			c-2.3,0-2.4,2.1-2.4,2.2l0,25c0,1.1-3.3,5.6-12.8,5.6c-9.9,0-11.7-5-11.7-5.3l0-0.1v-25.2c0-0.8,0-2.2-2.7-2.2
			C252.7,584.9,252.2,586.8,252.2,587.2z"/>
		<path class="st17" d="M253.8,585.1c0-0.1-0.1-2,1.4-3.6c1.1-1.2,2.7-1.7,4.9-1.7l21,0c1.7,0.3,4.9,1.7,4.9,5.3l-1.4-0.2
			c0-2.8-3.3-3.6-3.7-3.7H260c-1.7,0-3,0.4-3.9,1.3c-0.9,0.9-1,2.2-1,2.5L253.8,585.1z"/>
	</g>
	<g>
		<path class="st17" d="M246.2,624.7h-25.7c-0.1,0-6.5-0.1-6.5-7.4l0-30.2c0.2-1.2,1.3-3.5,4.3-3.5c2.7,0,4.1,1.2,4.1,3.6v25
			c0.3,0.6,2.2,4.3,10.4,4.3c9,0,11.2-4,11.4-4.3v-24.9c0.1-1.2,0.9-3.6,3.8-3.6c2,0,3.3,1.1,4,3.2c0,0,0,0.1,0,0.1l0,0
			c0.2,0.8,0.2,4.7,0.1,31c0,0.1,0.2,3.1-1.6,5.1C249.4,624.1,248,624.7,246.2,624.7z M215.3,587.2v30.1c0,6,4.9,6.1,5.1,6.1h25.7
			c1.4,0,2.5-0.4,3.3-1.2c1.5-1.6,1.3-4.1,1.3-4.1c0-11.7,0.1-29.1,0-30.6c0-0.1,0-0.1-0.1-0.2c-0.3-1-0.9-2.2-2.7-2.2
			c-2.3,0-2.4,2.1-2.4,2.2l0,25c0,1.1-3.3,5.6-12.8,5.6c-9.9,0-11.7-5-11.7-5.3l0-0.1v-25.2c0-0.8,0-2.2-2.7-2.2
			C215.9,584.9,215.4,586.8,215.3,587.2z"/>
		<path class="st17" d="M217,585.1c0-0.1-0.1-2,1.4-3.6c1.1-1.2,2.7-1.7,4.9-1.7l21,0c1.7,0.3,4.9,1.7,4.9,5.3l-1.4-0.2
			c0-2.8-3.3-3.6-3.7-3.7h-20.9c-1.7,0-3,0.4-3.9,1.3c-0.9,0.9-1,2.2-1,2.5L217,585.1z"/>
	</g>
	<g>
		<path class="st17" d="M167.8,775.6h-25.7c-0.1,0-6.5-0.1-6.5-7.4l0-30.2c0.2-1.2,1.3-3.5,4.3-3.5c2.7,0,4.1,1.2,4.1,3.6v25
			c0.3,0.6,2.2,4.3,10.4,4.3c9,0,11.2-4,11.4-4.3V738c0.1-1.2,0.9-3.6,3.8-3.6c2,0,3.3,1.1,4,3.2c0,0,0,0.1,0,0.1l0,0
			c0.2,0.8,0.2,4.7,0.1,31c0,0.1,0.2,3.1-1.6,5.1C171.1,775,169.6,775.6,167.8,775.6z M137,738.1v30.1c0,6,4.9,6.1,5.1,6.1h25.7
			c1.4,0,2.5-0.4,3.3-1.2c1.5-1.6,1.3-4.1,1.3-4.1c0-11.7,0.1-29.1,0-30.6c0-0.1,0-0.1-0.1-0.2c-0.3-1-0.9-2.2-2.7-2.2
			c-2.3,0-2.4,2.1-2.4,2.2l0,25c0,1.1-3.3,5.6-12.8,5.6c-9.9,0-11.7-5-11.7-5.3l0-0.1V738c0-0.8,0-2.2-2.7-2.2
			C137.5,735.8,137,737.7,137,738.1z"/>
		<path class="st17" d="M138.6,736c0-0.1-0.1-2.1,1.4-3.6c1.1-1.2,2.7-1.7,4.9-1.7l21,0c1.7,0.3,4.9,1.7,4.9,5.3l-1.4-0.2
			c0-2.8-3.3-3.6-3.7-3.7h-20.9c-1.7,0-3,0.4-3.9,1.3c-0.9,0.9-1,2.2-1,2.5L138.6,736z"/>
	</g>
	<g>
		<path class="st17" d="M283,775.6h-25.7c-0.1,0-6.5-0.1-6.5-7.4l0-30.2c0.2-1.2,1.3-3.5,4.3-3.5c2.7,0,4.1,1.2,4.1,3.6v25
			c0.3,0.6,2.2,4.3,10.4,4.3c9,0,11.2-4,11.4-4.3V738c0.1-1.2,0.9-3.6,3.8-3.6c2,0,3.3,1.1,4,3.2c0,0,0,0.1,0,0.1l0,0
			c0.2,0.8,0.2,4.7,0.1,31c0,0.1,0.2,3.1-1.6,5.1C286.3,775,284.8,775.6,283,775.6z M252.2,738.1v30.1c0,6,4.9,6.1,5.1,6.1H283
			c1.4,0,2.5-0.4,3.3-1.2c1.5-1.6,1.3-4.1,1.3-4.1c0-11.7,0.1-29.1,0-30.6c0-0.1,0-0.1-0.1-0.2c-0.3-1-0.9-2.2-2.7-2.2
			c-2.3,0-2.4,2.1-2.4,2.2l0,25c0,1.1-3.3,5.6-12.8,5.6c-9.9,0-11.7-5-11.7-5.3l0-0.1V738c0-0.8,0-2.2-2.7-2.2
			C252.7,735.8,252.2,737.7,252.2,738.1z"/>
		<path class="st17" d="M253.8,736c0-0.1-0.1-2.1,1.4-3.6c1.1-1.2,2.7-1.7,4.9-1.7l21,0c1.7,0.3,4.9,1.7,4.9,5.3l-1.4-0.2
			c0-2.8-3.3-3.6-3.7-3.7H260c-1.7,0-3,0.4-3.9,1.3c-0.9,0.9-1,2.2-1,2.5L253.8,736z"/>
	</g>
	<g>
		<path class="st17" d="M246.2,775.6h-25.7c-0.1,0-6.5-0.1-6.5-7.4l0-30.2c0.2-1.2,1.3-3.5,4.3-3.5c2.7,0,4.1,1.2,4.1,3.6v25
			c0.3,0.6,2.2,4.3,10.4,4.3c9,0,11.2-4,11.4-4.3V738c0.1-1.2,0.9-3.6,3.8-3.6c2,0,3.3,1.1,4,3.2c0,0,0,0.1,0,0.1l0,0
			c0.2,0.8,0.2,4.7,0.1,31c0,0.1,0.2,3.1-1.6,5.1C249.4,775,248,775.6,246.2,775.6z M215.3,738.1v30.1c0,6,4.9,6.1,5.1,6.1h25.7
			c1.4,0,2.5-0.4,3.3-1.2c1.5-1.6,1.3-4.1,1.3-4.1c0-11.7,0.1-29.1,0-30.6c0-0.1,0-0.1-0.1-0.2c-0.3-1-0.9-2.2-2.7-2.2
			c-2.3,0-2.4,2.1-2.4,2.2l0,25c0,1.1-3.3,5.6-12.8,5.6c-9.9,0-11.7-5-11.7-5.3l0-0.1V738c0-0.8,0-2.2-2.7-2.2
			C215.9,735.8,215.4,737.7,215.3,738.1z"/>
		<path class="st17" d="M217,736c0-0.1-0.1-2.1,1.4-3.6c1.1-1.2,2.7-1.7,4.9-1.7l21,0c1.7,0.3,4.9,1.7,4.9,5.3l-1.4-0.2
			c0-2.8-3.3-3.6-3.7-3.7h-20.9c-1.7,0-3,0.4-3.9,1.3c-0.9,0.9-1,2.2-1,2.5L217,736z"/>
	</g>
	<g>
		<g>
			<path class="st17" d="M283,675h-25.7c-0.1,0-6.5-0.1-6.5-7.4l0-30.2c0.2-1.2,1.3-3.5,4.3-3.5c2.7,0,4.1,1.2,4.1,3.6v25
				c0.3,0.6,2.2,4.3,10.4,4.3c9,0,11.2-4,11.4-4.3v-24.9c0.1-1.2,0.9-3.6,3.8-3.6c2,0,3.3,1.1,4,3.2c0,0.1,0,0.1,0,0.1l0,0
				c0.2,0.8,0.2,4.7,0.1,31c0,0.1,0.2,3.1-1.6,5.1C286.3,674.4,284.8,675,283,675z M252.2,637.5v30.1c0,6,4.9,6.1,5.1,6.1H283
				c1.4,0,2.5-0.4,3.3-1.2c1.5-1.6,1.3-4.1,1.3-4.1c0-11.7,0.1-29.1,0-30.6c0-0.1,0-0.1-0.1-0.2c-0.3-1-0.9-2.2-2.7-2.2
				c-2.2,0-2.4,2-2.4,2.2v25c0,1.1-3.3,5.6-12.8,5.6c-9.9,0-11.7-5-11.7-5.3l0-0.1v-25.2c0-0.8,0-2.2-2.7-2.2
				C252.7,635.2,252.2,637.2,252.2,637.5z"/>
			<path class="st17" d="M253.8,635.4c0-0.1-0.1-2,1.4-3.6c1.1-1.2,2.7-1.7,4.9-1.7l21,0c1.7,0.3,4.9,1.7,4.9,5.3h-1.4
				c0-3.1-3.3-3.8-3.7-3.9H260c-1.7,0-3,0.4-3.9,1.3c-1.1,1.1-1,2.6-1,2.6L253.8,635.4z"/>
		</g>
	</g>
	<g>
		<path class="st17" d="M246.2,624.7h-25.7c-0.1,0-6.5-0.1-6.5-7.4l0-30.2c0.2-1.2,1.3-3.5,4.3-3.5c2.7,0,4.1,1.2,4.1,3.6v25
			c0.3,0.6,2.2,4.3,10.4,4.3c9,0,11.2-4,11.4-4.3v-24.9c0.1-1.2,0.9-3.6,3.8-3.6c2,0,3.3,1.1,4,3.2c0,0,0,0.1,0,0.1l0,0
			c0.2,0.8,0.2,4.7,0.1,31c0,0.1,0.2,3.1-1.6,5.1C249.4,624.1,248,624.7,246.2,624.7z M215.3,587.2v30.1c0,6,4.9,6.1,5.1,6.1h25.7
			c1.4,0,2.5-0.4,3.3-1.2c1.5-1.6,1.3-4.1,1.3-4.1c0-11.7,0.1-29.1,0-30.6c0-0.1,0-0.1-0.1-0.2c-0.3-1-0.9-2.2-2.7-2.2
			c-2.3,0-2.4,2.1-2.4,2.2l0,25c0,1.1-3.3,5.6-12.8,5.6c-9.9,0-11.7-5-11.7-5.3l0-0.1v-25.2c0-0.8,0-2.2-2.7-2.2
			C215.9,584.9,215.4,586.8,215.3,587.2z"/>
		<path class="st17" d="M217,585.1c0-0.1-0.1-2,1.4-3.6c1.1-1.2,2.7-1.7,4.9-1.7l21,0c1.7,0.3,4.9,1.7,4.9,5.3l-1.4-0.2
			c0-2.8-3.3-3.6-3.7-3.7h-20.9c-1.7,0-3,0.4-3.9,1.3c-0.9,0.9-1,2.2-1,2.5L217,585.1z"/>
	</g>
	<g>
		<g>
			<path class="st17" d="M246.2,675h-25.7c-0.1,0-6.5-0.1-6.5-7.4l0-30.2c0.2-1.2,1.3-3.5,4.3-3.5c2.7,0,4.1,1.2,4.1,3.6v25
				c0.3,0.6,2.2,4.3,10.4,4.3c9,0,11.2-4,11.4-4.3v-24.9c0.1-1.2,0.9-3.6,3.8-3.6c2,0,3.3,1.1,4,3.2c0,0.1,0,0.1,0,0.1l0,0
				c0.2,0.8,0.2,4.7,0.1,31c0,0.1,0.2,3.1-1.6,5.1C249.4,674.4,248,675,246.2,675z M215.3,637.5v30.1c0,6,4.9,6.1,5.1,6.1h25.7
				c1.4,0,2.5-0.4,3.3-1.2c1.5-1.6,1.3-4.1,1.3-4.1c0-11.7,0.1-29.1,0-30.6c0-0.1,0-0.1-0.1-0.2c-0.3-1-0.9-2.2-2.7-2.2
				c-2.2,0-2.4,2-2.4,2.2v25c0,1.1-3.3,5.6-12.8,5.6c-9.9,0-11.7-5-11.7-5.3l0-0.1v-25.2c0-0.8,0-2.2-2.7-2.2
				C215.9,635.2,215.4,637.2,215.3,637.5z"/>
			<path class="st17" d="M217,635.4c0-0.1-0.1-2,1.4-3.6c1.1-1.2,2.7-1.7,4.9-1.7l21,0c1.7,0.3,4.9,1.7,4.9,5.3h-1.4
				c0-3.1-3.3-3.8-3.7-3.9h-20.9c-1.7,0-3,0.4-3.9,1.3c-1.1,1.1-1,2.6-1,2.6L217,635.4z"/>
		</g>
	</g>
	<g>
		<g>
			<path class="st17" d="M167.8,725.3h-25.7c-0.1,0-6.5-0.1-6.5-7.4l0-30.2c0.2-1.2,1.3-3.5,4.3-3.5c2.7,0,4.1,1.2,4.1,3.6v25
				c0.3,0.6,2.2,4.3,10.4,4.3c9,0,11.2-4,11.4-4.3v-24.9c0.1-1.2,0.9-3.6,3.8-3.6c2,0,3.3,1.1,4,3.2c0,0.1,0,0.1,0,0.1l0,0
				c0.2,0.8,0.2,4.7,0.1,31c0,0.1,0.2,3.1-1.6,5.1C171.1,724.7,169.6,725.3,167.8,725.3z M137,687.8v30.1c0,6,4.9,6.1,5.1,6.1h25.7
				c1.4,0,2.5-0.4,3.3-1.2c1.5-1.6,1.3-4.1,1.3-4.1c0-11.7,0.1-29.1,0-30.6c0-0.1,0-0.1-0.1-0.2c-0.3-1-0.9-2.2-2.7-2.2
				c-2.2,0-2.4,2-2.4,2.2v25c0,1.1-3.3,5.6-12.8,5.6c-9.9,0-11.7-5-11.7-5.3l0-0.1v-25.2c0-0.8,0-2.2-2.7-2.2
				C137.5,685.5,137,687.5,137,687.8z"/>
			<path class="st17" d="M138.6,685.7c0-0.1-0.1-2,1.4-3.6c1.1-1.2,2.7-1.7,4.9-1.7l21,0c1.7,0.3,4.9,1.7,4.9,5.3h-1.4
				c0-3.1-3.3-3.8-3.7-3.9h-20.9c-1.7,0-3,0.4-3.9,1.3c-1.1,1.1-1,2.6-1,2.6L138.6,685.7z"/>
		</g>
	</g>
	<g>
		<g>
			<path class="st17" d="M283,725.3h-25.7c-0.1,0-6.5-0.1-6.5-7.4l0-30.2c0.2-1.2,1.3-3.5,4.3-3.5c2.7,0,4.1,1.2,4.1,3.6v25
				c0.3,0.6,2.2,4.3,10.4,4.3c9,0,11.2-4,11.4-4.3v-24.9c0.1-1.2,0.9-3.6,3.8-3.6c2,0,3.3,1.1,4,3.2c0,0.1,0,0.1,0,0.1l0,0
				c0.2,0.8,0.2,4.7,0.1,31c0,0.1,0.2,3.1-1.6,5.1C286.3,724.7,284.8,725.3,283,725.3z M252.2,687.8v30.1c0,6,4.9,6.1,5.1,6.1H283
				c1.4,0,2.5-0.4,3.3-1.2c1.5-1.6,1.3-4.1,1.3-4.1c0-11.7,0.1-29.1,0-30.6c0-0.1,0-0.1-0.1-0.2c-0.3-1-0.9-2.2-2.7-2.2
				c-2.2,0-2.4,2-2.4,2.2v25c0,1.1-3.3,5.6-12.8,5.6c-9.9,0-11.7-5-11.7-5.3l0-0.1v-25.2c0-0.8,0-2.2-2.7-2.2
				C252.7,685.5,252.2,687.5,252.2,687.8z"/>
			<path class="st17" d="M253.8,685.7c0-0.1-0.1-2,1.4-3.6c1.1-1.2,2.7-1.7,4.9-1.7l21,0c1.7,0.3,4.9,1.7,4.9,5.3h-1.4
				c0-3.1-3.3-3.8-3.7-3.9H260c-1.7,0-3,0.4-3.9,1.3c-1.1,1.1-1,2.6-1,2.6L253.8,685.7z"/>
		</g>
	</g>
	<g>
		<g>
			<path class="st17" d="M246.2,725.3h-25.7c-0.1,0-6.5-0.1-6.5-7.4l0-30.2c0.2-1.2,1.3-3.5,4.3-3.5c2.7,0,4.1,1.2,4.1,3.6v25
				c0.3,0.6,2.2,4.3,10.4,4.3c9,0,11.2-4,11.4-4.3v-24.9c0.1-1.2,0.9-3.6,3.8-3.6c2,0,3.3,1.1,4,3.2c0,0.1,0,0.1,0,0.1l0,0
				c0.2,0.8,0.2,4.7,0.1,31c0,0.1,0.2,3.1-1.6,5.1C249.4,724.7,248,725.3,246.2,725.3z M215.3,687.8v30.1c0,6,4.9,6.1,5.1,6.1h25.7
				c1.4,0,2.5-0.4,3.3-1.2c1.5-1.6,1.3-4.1,1.3-4.1c0-11.7,0.1-29.1,0-30.6c0-0.1,0-0.1-0.1-0.2c-0.3-1-0.9-2.2-2.7-2.2
				c-2.2,0-2.4,2-2.4,2.2v25c0,1.1-3.3,5.6-12.8,5.6c-9.9,0-11.7-5-11.7-5.3l0-0.1v-25.2c0-0.8,0-2.2-2.7-2.2
				C215.9,685.5,215.4,687.5,215.3,687.8z"/>
			<path class="st17" d="M217,685.7c0-0.1-0.1-2,1.4-3.6c1.1-1.2,2.7-1.7,4.9-1.7l21,0c1.7,0.3,4.9,1.7,4.9,5.3h-1.4
				c0-3.1-3.3-3.8-3.7-3.9h-20.9c-1.7,0-3,0.4-3.9,1.3c-1.1,1.1-1,2.6-1,2.6L217,685.7z"/>
		</g>
	</g>
	<g>
		<path class="st20" d="M283,345.8h-25.7c-0.1,0-6.5-0.1-6.5-7.4l0-30.2c0.2-1.2,1.3-3.5,4.3-3.5c2.7,0,4.1,1.2,4.1,3.6v25
			c0.3,0.6,2.2,4.3,10.4,4.3c9,0,11.2-4,11.4-4.3v-24.9c0.1-1.2,0.9-3.6,3.8-3.6c2,0,3.3,1.1,4,3.2c0,0,0,0.1,0,0.1l0,0
			c0.2,0.8,0.2,4.7,0.1,31c0,0.1,0.2,3.1-1.6,5.1C286.3,345.2,284.8,345.8,283,345.8z M252.2,308.3v30.1c0,6,4.9,6.1,5.1,6.1H283
			c1.4,0,2.5-0.4,3.3-1.2c1.5-1.6,1.3-4.1,1.3-4.1c0-11.7,0.1-29.1,0-30.6c0-0.1,0-0.1-0.1-0.2c-0.3-1-0.9-2.2-2.7-2.2
			c-2.3,0-2.4,2.1-2.4,2.2l0,25c0,1.1-3.3,5.6-12.8,5.6c-9.9,0-11.7-5-11.7-5.3l0-0.1v-25.2c0-0.8,0-2.2-2.7-2.2
			C252.7,306,252.2,307.9,252.2,308.3z"/>
		<path class="st20" d="M253.8,306.1c0-0.1-0.1-2,1.4-3.6c1.1-1.2,2.7-1.7,4.9-1.7l21,0c1.7,0.3,4.9,1.7,4.9,5.3l-1.4-0.2
			c0-2.8-3.3-3.6-3.7-3.7H260c-1.7,0-3,0.4-3.9,1.3c-0.9,0.9-1,2.2-1,2.5L253.8,306.1z"/>
	</g>
	<g>
		<path class="st20" d="M167.8,825.9h-25.7c-0.1,0-6.5-0.1-6.5-7.4l0-30.2c0.2-1.2,1.3-3.5,4.3-3.5c2.7,0,4.1,1.2,4.1,3.6v25
			c0.3,0.6,2.2,4.3,10.4,4.3c9,0,11.2-4,11.4-4.3v-24.9c0.1-1.2,0.9-3.6,3.8-3.6c2,0,3.3,1.1,4,3.2c0,0,0,0.1,0,0.1l0,0
			c0.2,0.8,0.2,4.7,0.1,31c0,0.1,0.2,3.1-1.6,5.1C171.1,825.3,169.6,825.9,167.8,825.9z M137,788.4v30.1c0,6,4.9,6.1,5.1,6.1h25.7
			c1.4,0,2.5-0.4,3.3-1.2c1.5-1.6,1.3-4.1,1.3-4.1c0-11.7,0.1-29.1,0-30.6c0-0.1,0-0.1-0.1-0.2c-0.3-1-0.9-2.2-2.7-2.2
			c-2.3,0-2.4,2.1-2.4,2.2l0,25c0,1.1-3.3,5.6-12.8,5.6c-9.9,0-11.7-5-11.7-5.3l0-0.1v-25.2c0-0.8,0-2.2-2.7-2.2
			C137.5,786.1,137,788,137,788.4z"/>
		<path class="st20" d="M138.6,786.3c0-0.1-0.1-2,1.4-3.6c1.1-1.2,2.7-1.7,4.9-1.7l21,0c1.7,0.3,4.9,1.7,4.9,5.3l-1.4-0.2
			c0-2.8-3.3-3.6-3.7-3.7h-20.9c-1.7,0-3,0.4-3.9,1.3c-0.9,0.9-1,2.2-1,2.5L138.6,786.3z"/>
	</g>
</g>
<g id="power">
</g>
<g id="seat_letters">
	<g>
		<g>
			<path class="st11" d="M157.6,655h-4.9l-1.2,3.4h-2.1l4.7-12.9h2.2l4.7,12.9h-2.1L157.6,655z M153.2,653.3h3.9l-1.9-5.4h-0.2
				L153.2,653.3z"/>
		</g>
	</g>
	<g>
		<g>
			<path class="st21" d="M157.3,275.8h-4.5l-1,3.1h-2.7l4.5-12.9h3.2l4.5,12.9h-2.9L157.3,275.8z M153.4,273.8h3.4l-1.6-5.1H155
				L153.4,273.8z"/>
		</g>
	</g>
	<g>
		<g>
			<path class="st21" d="M157.3,326.1h-4.5l-1,3.1h-2.7l4.5-12.9h3.2l4.5,12.9h-2.9L157.3,326.1z M153.4,324.1h3.4l-1.6-5.1H155
				L153.4,324.1z"/>
		</g>
	</g>
	<g>
		<g>
			<path class="st11" d="M157.6,376.1h-4.9l-1.2,3.4h-2.1l4.7-12.9h2.2l4.7,12.9h-2.1L157.6,376.1z M153.2,374.4h3.9l-1.9-5.4h-0.2
				L153.2,374.4z"/>
		</g>
	</g>
	<g>
		<g>
			<path class="st11" d="M157.6,426.4h-4.9l-1.2,3.4h-2.1l4.7-12.9h2.2l4.7,12.9h-2.1L157.6,426.4z M153.2,424.7h3.9l-1.9-5.4h-0.2
				L153.2,424.7z"/>
		</g>
	</g>
	<g>
		<g>
			<path class="st21" d="M157.3,477h-4.5l-1,3.1h-2.7l4.5-12.9h3.2l4.5,12.9h-2.9L157.3,477z M153.4,474.9h3.4l-1.6-5.1H155
				L153.4,474.9z"/>
		</g>
	</g>
	<g>
		<g>
			<path class="st21" d="M157.3,806.3h-4.5l-1,3.1h-2.7l4.5-12.9h3.2l4.5,12.9h-2.9L157.3,806.3z M153.4,804.2h3.4l-1.6-5.1H155
				L153.4,804.2z"/>
		</g>
	</g>
	<g>
		<g>
			<path class="st11" d="M157.6,604.7h-4.9l-1.2,3.4h-2.1l4.7-12.9h2.2l4.7,12.9h-2.1L157.6,604.7z M153.2,603h3.9l-1.9-5.4h-0.2
				L153.2,603z"/>
		</g>
	</g>
	<g>
		<g>
			<path class="st11" d="M157.6,755.6h-4.9l-1.2,3.4h-2.1l4.7-12.9h2.2l4.7,12.9h-2.1L157.6,755.6z M153.2,753.9h3.9l-1.9-5.4h-0.2
				L153.2,753.9z"/>
		</g>
	</g>
	<g>
		<g>
			<path class="st21" d="M234.1,266c1.9,0,3.4,0.6,4.5,1.7c1.1,1.1,1.6,2.7,1.6,4.7c0,2.1-0.5,3.7-1.6,4.8c-1.1,1.1-2.5,1.7-4.5,1.7
				H229V266H234.1z M231.7,276.6h1.9c1.2,0,2.1-0.4,2.8-1.1c0.6-0.7,1-1.8,1-3.1c0-1.3-0.3-2.3-1-3c-0.7-0.7-1.6-1.1-2.7-1.1h-1.9
				V276.6z"/>
		</g>
	</g>
	<g>
		<g>
			<path class="st11" d="M266.7,278.9V266h8v1.8h-6v4h5.5v1.8h-5.5v5.3H266.7z"/>
		</g>
	</g>
	<g>
		<g>
			<path class="st11" d="M233.8,316.3c1.9,0,3.4,0.6,4.5,1.7c1.1,1.1,1.6,2.7,1.6,4.7c0,2.1-0.5,3.7-1.6,4.8
				c-1.1,1.1-2.6,1.7-4.5,1.7h-4.7v-12.9H233.8z M231.2,327.4h2.4c1.4,0,2.4-0.4,3.1-1.2c0.7-0.8,1.1-2,1.1-3.4
				c0-1.5-0.4-2.6-1.1-3.4c-0.7-0.8-1.8-1.2-3.1-1.2h-2.4V327.4z"/>
		</g>
	</g>
	<g>
		<g>
			<path class="st21" d="M266.5,329.2v-12.9h8.4v2.3h-5.7v3.4h5.2v2.2h-5.2v5H266.5z"/>
		</g>
	</g>
	<g>
		<g>
			<path class="st11" d="M233.8,366.6c1.9,0,3.4,0.6,4.5,1.7c1.1,1.1,1.6,2.7,1.6,4.7c0,2.1-0.5,3.7-1.6,4.8
				c-1.1,1.1-2.6,1.7-4.5,1.7h-4.7v-12.9H233.8z M231.2,377.7h2.4c1.4,0,2.4-0.4,3.1-1.2c0.7-0.8,1.1-2,1.1-3.4
				c0-1.5-0.4-2.6-1.1-3.4c-0.7-0.8-1.8-1.2-3.1-1.2h-2.4V377.7z"/>
		</g>
	</g>
	<g>
		<g>
			<path class="st11" d="M266.7,379.5v-12.9h8v1.8h-6v4h5.5v1.8h-5.5v5.3H266.7z"/>
		</g>
	</g>
	<g>
		<g>
			<path class="st11" d="M233.8,416.9c1.9,0,3.4,0.6,4.5,1.7c1.1,1.1,1.6,2.7,1.6,4.7c0,2.1-0.5,3.7-1.6,4.8
				c-1.1,1.1-2.6,1.7-4.5,1.7h-4.7v-12.9H233.8z M231.2,428h2.4c1.4,0,2.4-0.4,3.1-1.2c0.7-0.8,1.1-2,1.1-3.4c0-1.5-0.4-2.6-1.1-3.4
				c-0.7-0.8-1.8-1.2-3.1-1.2h-2.4V428z"/>
		</g>
	</g>
	<g>
		<g>
			<path class="st11" d="M266.7,429.8v-12.9h8v1.8h-6v4h5.5v1.8h-5.5v5.3H266.7z"/>
		</g>
	</g>
	<g>
		<g>
			<path class="st21" d="M234.1,467.2c1.9,0,3.4,0.6,4.5,1.7c1.1,1.1,1.6,2.7,1.6,4.7c0,2.1-0.5,3.7-1.6,4.8
				c-1.1,1.1-2.5,1.7-4.5,1.7H229v-12.9H234.1z M231.7,477.8h1.9c1.2,0,2.1-0.4,2.8-1.1c0.6-0.7,1-1.8,1-3.1c0-1.3-0.3-2.3-1-3
				c-0.7-0.7-1.6-1.1-2.7-1.1h-1.9V477.8z"/>
		</g>
	</g>
	<g>
		<g>
			<path class="st21" d="M266.5,480.1v-12.9h8.4v2.3h-5.7v3.4h5.2v2.2h-5.2v5H266.5z"/>
		</g>
	</g>
	<g>
		<g>
			<path class="st21" d="M234.1,796.4c1.9,0,3.4,0.6,4.5,1.7c1.1,1.1,1.6,2.7,1.6,4.7c0,2.1-0.5,3.7-1.6,4.8
				c-1.1,1.1-2.5,1.7-4.5,1.7H229v-12.9H234.1z M231.7,807h1.9c1.2,0,2.1-0.4,2.8-1.1c0.6-0.7,1-1.8,1-3.1c0-1.3-0.3-2.3-1-3
				c-0.7-0.7-1.6-1.1-2.7-1.1h-1.9V807z"/>
		</g>
	</g>
	<g>
		<g>
			<path class="st21" d="M188.5,807.9c-1.1-1.2-1.6-2.9-1.6-5s0.5-3.7,1.6-5c1.1-1.2,2.6-1.8,4.4-1.8c1.5,0,2.8,0.5,3.9,1.4
				c1,0.9,1.6,2.1,1.7,3.5h-2.6c-0.1-0.7-0.5-1.3-1-1.8c-0.5-0.4-1.2-0.7-2-0.7c-1,0-1.8,0.4-2.4,1.2c-0.6,0.8-0.9,1.9-0.9,3.2
				s0.3,2.4,0.9,3.2c0.6,0.8,1.4,1.2,2.4,1.2c0.8,0,1.4-0.2,2-0.6c0.5-0.4,0.9-1,1-1.7h2.6c-0.1,1.4-0.7,2.5-1.7,3.4
				c-1,0.9-2.3,1.3-3.9,1.3C191.1,809.7,189.6,809.1,188.5,807.9z"/>
		</g>
	</g>
	<g>
		<g>
			<path class="st21" d="M266.5,809.3v-12.9h8.4v2.3h-5.7v3.4h5.2v2.2h-5.2v5H266.5z"/>
		</g>
	</g>
	<g>
		<g>
			<path class="st21" d="M157.3,554.8h-4.5l-1,3.1h-2.7l4.5-12.9h3.2l4.5,12.9h-2.9L157.3,554.8z M153.4,552.7h3.4l-1.6-5.1H155
				L153.4,552.7z"/>
		</g>
	</g>
	<g>
		<g>
			<path class="st21" d="M234.1,544.9c1.9,0,3.4,0.6,4.5,1.7c1.1,1.1,1.6,2.7,1.6,4.7c0,2.1-0.5,3.7-1.6,4.8
				c-1.1,1.1-2.5,1.7-4.5,1.7H229v-12.9H234.1z M231.7,555.5h1.9c1.2,0,2.1-0.4,2.8-1.1c0.6-0.7,1-1.8,1-3.1c0-1.3-0.3-2.3-1-3
				c-0.7-0.7-1.6-1.1-2.7-1.1h-1.9V555.5z"/>
		</g>
	</g>
	<g>
		<g>
			<path class="st21" d="M266.5,557.8V545h8.4v2.3h-5.7v3.4h5.2v2.2h-5.2v5H266.5z"/>
		</g>
	</g>
	<g>
		<g>
			<path class="st11" d="M233.8,595.2c1.9,0,3.4,0.6,4.5,1.7c1.1,1.1,1.6,2.7,1.6,4.7c0,2.1-0.5,3.7-1.6,4.8
				c-1.1,1.1-2.6,1.7-4.5,1.7h-4.7v-12.9H233.8z M231.2,606.3h2.4c1.4,0,2.4-0.4,3.1-1.2c0.7-0.8,1.1-2,1.1-3.4
				c0-1.5-0.4-2.6-1.1-3.4c-0.7-0.8-1.8-1.2-3.1-1.2h-2.4V606.3z"/>
		</g>
	</g>
	<g>
		<g>
			<path class="st11" d="M266.7,608.1v-12.9h8v1.8h-6v4h5.5v1.8h-5.5v5.3H266.7z"/>
		</g>
	</g>
	<g>
		<g>
			<path class="st11" d="M233.8,645.5c1.9,0,3.4,0.6,4.5,1.7c1.1,1.1,1.6,2.7,1.6,4.7c0,2.1-0.5,3.7-1.6,4.8
				c-1.1,1.1-2.6,1.7-4.5,1.7h-4.7v-12.9H233.8z M231.2,656.6h2.4c1.4,0,2.4-0.4,3.1-1.2c0.7-0.8,1.1-2,1.1-3.4
				c0-1.5-0.4-2.6-1.1-3.4c-0.7-0.8-1.8-1.2-3.1-1.2h-2.4V656.6z"/>
		</g>
	</g>
	<g>
		<g>
			<path class="st11" d="M266.7,658.4v-12.9h8v1.8h-6v4h5.5v1.8h-5.5v5.3H266.7z"/>
		</g>
	</g>
	<g>
		<g>
			<path class="st11" d="M157.6,705.3h-4.9l-1.2,3.4h-2.1l4.7-12.9h2.2l4.7,12.9h-2.1L157.6,705.3z M153.2,703.6h3.9l-1.9-5.4h-0.2
				L153.2,703.6z"/>
		</g>
	</g>
	<g>
		<g>
			<path class="st11" d="M233.8,695.8c1.9,0,3.4,0.6,4.5,1.7c1.1,1.1,1.6,2.7,1.6,4.7c0,2.1-0.5,3.7-1.6,4.8
				c-1.1,1.1-2.6,1.7-4.5,1.7h-4.7v-12.9H233.8z M231.2,706.9h2.4c1.4,0,2.4-0.4,3.1-1.2c0.7-0.8,1.1-2,1.1-3.4
				c0-1.5-0.4-2.6-1.1-3.4c-0.7-0.8-1.8-1.2-3.1-1.2h-2.4V706.9z"/>
		</g>
	</g>
	<g>
		<g>
			<path class="st11" d="M266.7,708.7v-12.9h8v1.8h-6v4h5.5v1.8h-5.5v5.3H266.7z"/>
		</g>
	</g>
	<g>
		<g>
			<path class="st11" d="M233.8,746.1c1.9,0,3.4,0.6,4.5,1.7c1.1,1.1,1.6,2.7,1.6,4.7c0,2.1-0.5,3.7-1.6,4.8
				c-1.1,1.1-2.6,1.7-4.5,1.7h-4.7v-12.9H233.8z M231.2,757.2h2.4c1.4,0,2.4-0.4,3.1-1.2c0.7-0.8,1.1-2,1.1-3.4
				c0-1.5-0.4-2.6-1.1-3.4c-0.7-0.8-1.8-1.2-3.1-1.2h-2.4V757.2z"/>
		</g>
	</g>
	<g>
		<g>
			<path class="st11" d="M266.7,759v-12.9h8v1.8h-6v4h5.5v1.8h-5.5v5.3H266.7z"/>
		</g>
	</g>
</g>
<g id="rooms">
	<path class="st22" d="M273.3,166.3c-20-42.9-47.8-48.8-57.7-49.4c-0.5,0.5-0.7,0.7-1.2,1.1l0,48.9c0,0.7,0.6,1.3,1.3,1.3h56.4
		C273.1,168.1,273.7,167.2,273.3,166.3z"/>
	<g>
		<g>
			<defs>
				<rect id="SVGID_25_" x="228.9" y="140.4" width="14.5" height="13"/>
			</defs>
			<defs>
				<path id="SVGID_26_" d="M230.6,143.2L230.6,143.2L230.6,143.2c0.2,0.1,0.3,0.3,0.2,0.5l-1.1,2.9l0,0c-0.1,0.2-0.3,0.3-0.5,0.2
					l0,0l0,0c-0.2-0.1-0.3-0.3-0.2-0.5l1.1-2.9l0,0C230.1,143.2,230.4,143.1,230.6,143.2L230.6,143.2z"/>
			</defs>
			<clipPath id="SVGID_27_">
				<use xlink:href="#SVGID_25_"  style="overflow:visible;"/>
			</clipPath>
			<clipPath id="SVGID_28_" class="st23">
				<use xlink:href="#SVGID_26_"  style="overflow:visible;"/>
			</clipPath>
			
				<rect x="226.1" y="142.8" transform="matrix(0.3418 -0.9398 0.9398 0.3418 15.0169 311.5219)" class="st24" width="7.6" height="4.5"/>
		</g>
		<g>
			<defs>
				<rect id="SVGID_29_" x="228.9" y="140.4" width="14.5" height="13"/>
			</defs>
			<defs>
				<path id="SVGID_30_" d="M231,148.7L231,148.7L231,148.7c0.3,0,0.5,0.2,0.5,0.5v3.5l0,0c0,0.3-0.2,0.5-0.5,0.5l0,0l0,0
					c-0.3,0-0.5-0.2-0.5-0.5v-3.5l0,0C230.5,148.9,230.7,148.7,231,148.7L231,148.7z"/>
			</defs>
			<clipPath id="SVGID_31_">
				<use xlink:href="#SVGID_29_"  style="overflow:visible;"/>
			</clipPath>
			<clipPath id="SVGID_32_" class="st25">
				<use xlink:href="#SVGID_30_"  style="overflow:visible;"/>
			</clipPath>
			<rect x="228.6" y="146.8" class="st26" width="4.8" height="8.2"/>
		</g>
		<g>
			<defs>
				<rect id="SVGID_33_" x="228.9" y="140.4" width="14.5" height="13"/>
			</defs>
			<defs>
				<path id="SVGID_34_" d="M232.5,148.7L232.5,148.7L232.5,148.7c0.3,0,0.5,0.2,0.5,0.5v3.5l0,0c0,0.3-0.2,0.5-0.5,0.5l0,0l0,0
					c-0.3,0-0.5-0.2-0.5-0.5v-3.5l0,0C231.9,148.9,232.2,148.7,232.5,148.7L232.5,148.7z"/>
			</defs>
			<clipPath id="SVGID_35_">
				<use xlink:href="#SVGID_33_"  style="overflow:visible;"/>
			</clipPath>
			<clipPath id="SVGID_36_" class="st27">
				<use xlink:href="#SVGID_34_"  style="overflow:visible;"/>
			</clipPath>
			<rect x="230.1" y="146.8" class="st28" width="4.8" height="8.2"/>
		</g>
		<g>
			<defs>
				<rect id="SVGID_37_" x="228.9" y="140.4" width="14.5" height="13"/>
			</defs>
			<defs>
				<path id="SVGID_38_" d="M232.9,143.2L232.9,143.2L232.9,143.2c0.2-0.1,0.4,0,0.5,0.2l1.1,2.9l0,0c0.1,0.2,0,0.5-0.2,0.5l0,0l0,0
					c-0.2,0.1-0.5,0-0.5-0.2l-1.1-2.9l0,0C232.6,143.5,232.7,143.3,232.9,143.2L232.9,143.2z"/>
			</defs>
			<clipPath id="SVGID_39_">
				<use xlink:href="#SVGID_37_"  style="overflow:visible;"/>
			</clipPath>
			<clipPath id="SVGID_40_" class="st29">
				<use xlink:href="#SVGID_38_"  style="overflow:visible;"/>
			</clipPath>
			
				<rect x="231.3" y="141.2" transform="matrix(0.9398 -0.3418 0.3418 0.9398 -35.5019 88.5717)" class="st30" width="4.5" height="7.6"/>
		</g>
		<g>
			<defs>
				<rect id="SVGID_41_" x="228.9" y="140.4" width="14.5" height="13"/>
			</defs>
			<defs>
				<path id="SVGID_42_" d="M230.5,143.1h2.4l0,0c0.2,0,0.4,0.2,0.4,0.4c0,0,0,0,0,0l-0.4,2.9h-2.5l-0.4-2.9l0,0
					C230.1,143.3,230.3,143.1,230.5,143.1C230.5,143.1,230.5,143.1,230.5,143.1L230.5,143.1z"/>
			</defs>
			<clipPath id="SVGID_43_">
				<use xlink:href="#SVGID_41_"  style="overflow:visible;"/>
			</clipPath>
			<clipPath id="SVGID_44_" class="st31">
				<use xlink:href="#SVGID_42_"  style="overflow:visible;"/>
			</clipPath>
			<rect x="228.3" y="141.2" class="st32" width="6.9" height="7"/>
		</g>
		<g>
			<defs>
				<rect id="SVGID_45_" x="228.9" y="140.4" width="14.5" height="13"/>
			</defs>
			<defs>
				<path id="SVGID_46_" d="M230.2,149.1h3.2l0,0c0.2,0,0.4-0.2,0.4-0.4c0,0,0-0.1,0-0.1l-0.7-2.8h-2.5l-0.7,2.8l0,0
					C229.7,148.8,229.9,149,230.2,149.1C230.1,149.1,230.1,149.1,230.2,149.1L230.2,149.1z"/>
			</defs>
			<clipPath id="SVGID_47_">
				<use xlink:href="#SVGID_45_"  style="overflow:visible;"/>
			</clipPath>
			<clipPath id="SVGID_48_" class="st33">
				<use xlink:href="#SVGID_46_"  style="overflow:visible;"/>
			</clipPath>
			<rect x="227.9" y="143.9" class="st34" width="7.6" height="7"/>
		</g>
		<g>
			<defs>
				<rect id="SVGID_49_" x="228.9" y="140.4" width="14.5" height="13"/>
			</defs>
			<defs>
				<path id="SVGID_50_" d="M231.8,142.7c0.6,0,1.1-0.5,1.1-1.1c0-0.6-0.5-1.1-1.1-1.1c-0.6,0-1.1,0.5-1.1,1.1
					C230.7,142.2,231.2,142.7,231.8,142.7L231.8,142.7z"/>
			</defs>
			<clipPath id="SVGID_51_">
				<use xlink:href="#SVGID_49_"  style="overflow:visible;"/>
			</clipPath>
			<clipPath id="SVGID_52_" class="st35">
				<use xlink:href="#SVGID_50_"  style="overflow:visible;"/>
			</clipPath>
			<rect x="228.8" y="138.6" class="st36" width="6" height="6"/>
		</g>
		<g>
			<defs>
				<rect id="SVGID_53_" x="228.9" y="140.4" width="14.5" height="13"/>
			</defs>
			<defs>
				<path id="SVGID_54_" d="M239.2,143.2L239.2,143.2L239.2,143.2c0.2,0.1,0.3,0.3,0.2,0.5l-1.1,2.9l0,0c-0.1,0.2-0.3,0.3-0.5,0.2
					l0,0l0,0c-0.2-0.1-0.3-0.3-0.2-0.5l1.1-2.9l0,0C238.8,143.2,239,143.1,239.2,143.2L239.2,143.2z"/>
			</defs>
			<clipPath id="SVGID_55_">
				<use xlink:href="#SVGID_53_"  style="overflow:visible;"/>
			</clipPath>
			<clipPath id="SVGID_56_" class="st37">
				<use xlink:href="#SVGID_54_"  style="overflow:visible;"/>
			</clipPath>
			
				<rect x="234.7" y="142.8" transform="matrix(0.3417 -0.9398 0.9398 0.3417 20.7266 319.67)" class="st38" width="7.6" height="4.5"/>
		</g>
		<g>
			<defs>
				<rect id="SVGID_57_" x="228.9" y="140.4" width="14.5" height="13"/>
			</defs>
			<defs>
				<path id="SVGID_58_" d="M239.6,146.6L239.6,146.6L239.6,146.6c0.3,0,0.5,0.2,0.5,0.5v5.5l0,0c0,0.3-0.2,0.5-0.5,0.5l0,0l0,0
					c-0.3,0-0.5-0.2-0.5-0.5v-5.5l0,0C239.1,146.8,239.4,146.6,239.6,146.6L239.6,146.6z"/>
			</defs>
			<clipPath id="SVGID_59_">
				<use xlink:href="#SVGID_57_"  style="overflow:visible;"/>
			</clipPath>
			<clipPath id="SVGID_60_" class="st39">
				<use xlink:href="#SVGID_58_"  style="overflow:visible;"/>
			</clipPath>
			<rect x="237.3" y="144.7" class="st40" width="4.7" height="10.3"/>
		</g>
		<g>
			<defs>
				<rect id="SVGID_61_" x="228.9" y="140.4" width="14.5" height="13"/>
			</defs>
			<defs>
				<path id="SVGID_62_" d="M241.1,146.6L241.1,146.6L241.1,146.6c0.3,0,0.5,0.2,0.5,0.5v5.5l0,0c0,0.3-0.2,0.5-0.5,0.5l0,0l0,0
					c-0.3,0-0.5-0.2-0.5-0.5v-5.5l0,0C240.6,146.8,240.8,146.6,241.1,146.6L241.1,146.6z"/>
			</defs>
			<clipPath id="SVGID_63_">
				<use xlink:href="#SVGID_61_"  style="overflow:visible;"/>
			</clipPath>
			<clipPath id="SVGID_64_" class="st41">
				<use xlink:href="#SVGID_62_"  style="overflow:visible;"/>
			</clipPath>
			<rect x="238.7" y="144.7" class="st42" width="4.8" height="10.3"/>
		</g>
		<g>
			<defs>
				<rect id="SVGID_65_" x="228.9" y="140.4" width="14.5" height="13"/>
			</defs>
			<defs>
				<path id="SVGID_66_" d="M241.6,143.2L241.6,143.2L241.6,143.2c0.2-0.1,0.4,0,0.5,0.2l1.1,2.9l0,0c0.1,0.2,0,0.5-0.2,0.5l0,0l0,0
					c-0.2,0.1-0.4,0-0.5-0.2l-1.1-2.9l0,0C241.3,143.5,241.4,143.3,241.6,143.2L241.6,143.2z"/>
			</defs>
			<clipPath id="SVGID_67_">
				<use xlink:href="#SVGID_65_"  style="overflow:visible;"/>
			</clipPath>
			<clipPath id="SVGID_68_" class="st43">
				<use xlink:href="#SVGID_66_"  style="overflow:visible;"/>
			</clipPath>
			
				<rect x="240" y="141.2" transform="matrix(0.9398 -0.3418 0.3418 0.9398 -34.9847 91.5375)" class="st44" width="4.5" height="7.6"/>
		</g>
		<g>
			<defs>
				<rect id="SVGID_69_" x="228.9" y="140.4" width="14.5" height="13"/>
			</defs>
			<defs>
				<path id="SVGID_70_" d="M239.1,143.1h2.5l0,0c0.2,0,0.4,0.2,0.4,0.4c0,0,0,0,0,0l-0.2,4.2l0,0c0,0.2-0.2,0.4-0.4,0.4h-2.2l0,0
					c-0.2,0-0.4-0.2-0.4-0.4l-0.2-4.2l0,0C238.7,143.3,238.9,143.1,239.1,143.1C239.1,143.1,239.1,143.1,239.1,143.1L239.1,143.1z"
					/>
			</defs>
			<clipPath id="SVGID_71_">
				<use xlink:href="#SVGID_69_"  style="overflow:visible;"/>
			</clipPath>
			<clipPath id="SVGID_72_" class="st45">
				<use xlink:href="#SVGID_70_"  style="overflow:visible;"/>
			</clipPath>
			<rect x="236.9" y="141.2" class="st46" width="7" height="8.7"/>
		</g>
		<g>
			<defs>
				<rect id="SVGID_73_" x="228.9" y="140.4" width="14.5" height="13"/>
			</defs>
			<defs>
				<path id="SVGID_74_" d="M240.5,142.7c0.6,0,1.1-0.5,1.1-1.1c0-0.6-0.5-1.1-1.1-1.1c-0.6,0-1.1,0.5-1.1,1.1
					C239.3,142.2,239.8,142.7,240.5,142.7L240.5,142.7z"/>
			</defs>
			<clipPath id="SVGID_75_">
				<use xlink:href="#SVGID_73_"  style="overflow:visible;"/>
			</clipPath>
			<clipPath id="SVGID_76_" class="st47">
				<use xlink:href="#SVGID_74_"  style="overflow:visible;"/>
			</clipPath>
			<rect x="237.5" y="138.6" class="st48" width="6" height="6"/>
		</g>
		<g>
			<defs>
				<rect id="SVGID_77_" x="235.8" y="140.4" width="0.6" height="13"/>
			</defs>
			<clipPath id="SVGID_78_">
				<use xlink:href="#SVGID_77_"  style="overflow:visible;"/>
			</clipPath>
			<rect x="234" y="138.6" class="st49" width="4.3" height="16.7"/>
		</g>
	</g>
	<g>
		<path class="st22" d="M286.6,206.2c-1.4-6.1-2.9-11.8-4.6-17.1h-66.6c-0.7,0-1.3,0.6-1.3,1.3v34.2c0,0.7,0.6,1.3,1.3,1.3h75.1
			C290.1,220.4,289,212.6,286.6,206.2z"/>
		<g>
			<g>
				<defs>
					<rect id="SVGID_79_" x="243.9" y="204" width="13.6" height="8"/>
				</defs>
				<defs>
					<path id="SVGID_80_" d="M250.2,211.9c3.5,0,6.3-0.3,6.3-0.7c0-0.4-2.8-0.7-6.3-0.7c-3.5,0-6.3,0.3-6.3,0.7
						C243.9,211.6,246.7,211.9,250.2,211.9L250.2,211.9z"/>
				</defs>
				<clipPath id="SVGID_81_">
					<use xlink:href="#SVGID_79_"  style="overflow:visible;"/>
				</clipPath>
				<clipPath id="SVGID_82_" class="st50">
					<use xlink:href="#SVGID_80_"  style="overflow:visible;"/>
				</clipPath>
				<rect x="242.2" y="208.9" class="st51" width="15.9" height="4.6"/>
			</g>
			<g>
				<defs>
					<rect id="SVGID_83_" x="243.9" y="204" width="13.6" height="8"/>
				</defs>
				<defs>
					<path id="SVGID_84_" d="M246.1,204h8.1l0,0c0.2,0,0.3,0.1,0.3,0.3c0.3,1.4,0.4,2.7,0.3,3.7c-0.1,1.1-0.6,2.1-1.6,3.2l0,0
						c-0.1,0.1-0.2,0.1-0.2,0.1h-5.7l0,0c-0.1,0-0.2,0-0.2-0.1c-0.9-0.9-1.4-2-1.6-3.2c-0.1-1.2,0-2.5,0.3-3.7l0,0
						C245.9,204.1,246,204,246.1,204L246.1,204z"/>
				</defs>
				<clipPath id="SVGID_85_">
					<use xlink:href="#SVGID_83_"  style="overflow:visible;"/>
				</clipPath>
				<clipPath id="SVGID_86_" class="st52">
					<use xlink:href="#SVGID_84_"  style="overflow:visible;"/>
				</clipPath>
				<rect x="243.8" y="202.3" class="st53" width="12.7" height="10.6"/>
			</g>
			<g>
				<defs>
					<rect id="SVGID_87_" x="243.9" y="204" width="13.6" height="8"/>
				</defs>
				<clipPath id="SVGID_88_">
					<use xlink:href="#SVGID_87_"  style="overflow:visible;"/>
				</clipPath>
				<path class="st54" d="M255.5,209.6c-1.1,0-2-0.9-2-2c0-1.1,0.9-2,2-2c1.1,0,2,0.9,2,2C257.5,208.7,256.6,209.6,255.5,209.6z
					 M255.5,206.3c-0.7,0-1.3,0.6-1.3,1.3c0,0.7,0.6,1.3,1.3,1.3c0.7,0,1.3-0.6,1.3-1.3C256.8,206.9,256.2,206.3,255.5,206.3z"/>
			</g>
		</g>
	</g>
</g>
<g id="exits">
	<g>
		<g>
			<g>
				<defs>
					<polygon id="SVGID_89_" points="131.4,199.2 138.4,199.2 131.4,207.5 138.4,215.7 131.4,215.7 124.3,207.5 131.4,199.2 					
						"/>
				</defs>
				<use xlink:href="#SVGID_89_"  style="overflow:visible;fill-rule:evenodd;clip-rule:evenodd;fill:#BDBDBD;"/>
				<clipPath id="SVGID_90_">
					<use xlink:href="#SVGID_89_"  style="overflow:visible;"/>
				</clipPath>
				<rect x="122" y="196.9" class="st55" width="18.7" height="21.1"/>
			</g>
			<g>
				<defs>
					<polygon id="SVGID_91_" points="141.6,199.2 148.7,199.2 141.6,207.5 148.7,215.7 141.6,215.7 134.6,207.5 141.6,199.2 					
						"/>
				</defs>
				<use xlink:href="#SVGID_91_"  style="overflow:visible;fill-rule:evenodd;clip-rule:evenodd;fill:#BDBDBD;"/>
				<clipPath id="SVGID_92_">
					<use xlink:href="#SVGID_91_"  style="overflow:visible;"/>
				</clipPath>
				<rect x="132.3" y="196.9" class="st56" width="18.7" height="21.1"/>
			</g>
		</g>
		<g>
			<path class="st11" d="M153.7,210.8h-4.4v-6.4h4.4v1.3h-2.8v1.3h2.6v1.2h-2.6v1.3h2.8V210.8z"/>
			<path class="st11" d="M158,207.5l-2-3.2h1.9l1.2,2.1h0.1l1.2-2.1h1.8l-2.1,3.2l2,3.2h-1.8l-1.2-2H159l-1.2,2h-1.7L158,207.5z"/>
			<path class="st11" d="M164.7,210.8v-6.4h1.6v6.4H164.7z"/>
			<path class="st11" d="M170.8,210.8v-5.1h-1.9v-1.3h5.4v1.3h-1.9v5.1H170.8z"/>
		</g>
	</g>
	<g>
		<g>
			<g>
				<defs>
					<polygon id="SVGID_93_" points="131.4,504.2 138.4,504.2 131.4,512.4 138.4,520.7 131.4,520.7 124.3,512.4 131.4,504.2 					
						"/>
				</defs>
				<use xlink:href="#SVGID_93_"  style="overflow:visible;fill-rule:evenodd;clip-rule:evenodd;fill:#BDBDBD;"/>
				<clipPath id="SVGID_94_">
					<use xlink:href="#SVGID_93_"  style="overflow:visible;"/>
				</clipPath>
				<rect x="122" y="501.9" class="st57" width="18.7" height="21.1"/>
			</g>
			<g>
				<defs>
					<polygon id="SVGID_95_" points="141.6,504.2 148.7,504.2 141.6,512.4 148.7,520.7 141.6,520.7 134.6,512.4 141.6,504.2 					
						"/>
				</defs>
				<use xlink:href="#SVGID_95_"  style="overflow:visible;fill-rule:evenodd;clip-rule:evenodd;fill:#BDBDBD;"/>
				<clipPath id="SVGID_96_">
					<use xlink:href="#SVGID_95_"  style="overflow:visible;"/>
				</clipPath>
				<rect x="132.3" y="501.9" class="st58" width="18.7" height="21.1"/>
			</g>
		</g>
		<g>
			<path class="st11" d="M153.7,515.7h-4.4v-6.4h4.4v1.3h-2.8v1.3h2.6v1.2h-2.6v1.3h2.8V515.7z"/>
			<path class="st11" d="M158,512.5l-2-3.2h1.9l1.2,2.1h0.1l1.2-2.1h1.8l-2.1,3.2l2,3.2h-1.8l-1.2-2H159l-1.2,2h-1.7L158,512.5z"/>
			<path class="st11" d="M164.7,515.7v-6.4h1.6v6.4H164.7z"/>
			<path class="st11" d="M170.8,515.7v-5.1h-1.9v-1.3h5.4v1.3h-1.9v5.1H170.8z"/>
		</g>
	</g>
	<g>
		<g>
			<g>
				<defs>
					<polygon id="SVGID_97_" points="293.1,504.2 286,504.2 293.1,512.4 286,520.7 293.1,520.7 300.1,512.4 293.1,504.2 					"/>
				</defs>
				<use xlink:href="#SVGID_97_"  style="overflow:visible;fill-rule:evenodd;clip-rule:evenodd;fill:#BDBDBD;"/>
				<clipPath id="SVGID_98_">
					<use xlink:href="#SVGID_97_"  style="overflow:visible;"/>
				</clipPath>
				<rect x="283.7" y="501.9" class="st59" width="18.7" height="21.1"/>
			</g>
			<g>
				<defs>
					<polygon id="SVGID_99_" points="282.8,504.2 275.8,504.2 282.8,512.4 275.8,520.7 282.8,520.7 289.9,512.4 282.8,504.2 					
						"/>
				</defs>
				<use xlink:href="#SVGID_99_"  style="overflow:visible;fill-rule:evenodd;clip-rule:evenodd;fill:#BDBDBD;"/>
				<clipPath id="SVGID_100_">
					<use xlink:href="#SVGID_99_"  style="overflow:visible;"/>
				</clipPath>
				<rect x="273.5" y="501.9" class="st60" width="18.7" height="21.1"/>
			</g>
		</g>
		<g>
			<path class="st11" d="M255,516.4h-4.4V510h4.4v1.3h-2.8v1.3h2.6v1.2h-2.6v1.3h2.8V516.4z"/>
			<path class="st11" d="M259.4,513.1l-2-3.2h1.9l1.2,2.1h0.1l1.2-2.1h1.8l-2.1,3.2l2,3.2h-1.8l-1.2-2h-0.1l-1.2,2h-1.7L259.4,513.1
				z"/>
			<path class="st11" d="M266.1,516.4V510h1.6v6.4H266.1z"/>
			<path class="st11" d="M272.1,516.4v-5.1h-1.9V510h5.4v1.3h-1.9v5.1H272.1z"/>
		</g>
	</g>
</g>
<g id="numbers">
	<g>
		<g>
			<path class="st11" d="M126.5,275.7c0-0.4,0.1-0.8,0.4-1c0.3-0.3,0.6-0.4,1.1-0.4c0.4,0,0.8,0.1,1.1,0.4c0.3,0.2,0.4,0.6,0.4,0.9
				c0,0.2-0.1,0.5-0.2,0.7c-0.1,0.2-0.4,0.5-0.8,0.9l-1,1v0.1h2.1v0.6h-3v-0.5l1.5-1.6c0.3-0.3,0.5-0.5,0.6-0.7
				c0.1-0.2,0.2-0.3,0.2-0.5c0-0.2-0.1-0.4-0.2-0.5c-0.2-0.1-0.4-0.2-0.6-0.2c-0.2,0-0.4,0.1-0.6,0.2c-0.2,0.1-0.2,0.3-0.2,0.6v0
				L126.5,275.7L126.5,275.7z"/>
			<path class="st11" d="M127.5,326.6h0.5c0.2,0,0.4-0.1,0.6-0.2s0.2-0.3,0.2-0.5c0-0.2-0.1-0.4-0.2-0.5c-0.1-0.1-0.3-0.2-0.6-0.2
				c-0.2,0-0.4,0.1-0.6,0.2c-0.2,0.1-0.2,0.3-0.3,0.5h-0.7c0-0.4,0.2-0.7,0.4-1c0.3-0.2,0.6-0.4,1.1-0.4c0.4,0,0.8,0.1,1.1,0.3
				c0.3,0.2,0.4,0.5,0.4,0.9c0,0.3-0.1,0.5-0.2,0.7c-0.1,0.2-0.3,0.3-0.6,0.4v0.1c0.3,0,0.5,0.2,0.7,0.4c0.2,0.2,0.3,0.4,0.3,0.7
				c0,0.4-0.2,0.7-0.5,1c-0.3,0.3-0.7,0.4-1.2,0.4c-0.5,0-0.9-0.1-1.2-0.4c-0.3-0.2-0.5-0.6-0.5-1h0.7c0,0.2,0.1,0.4,0.3,0.5
				c0.2,0.1,0.4,0.2,0.7,0.2c0.3,0,0.5-0.1,0.7-0.2c0.2-0.1,0.3-0.3,0.3-0.5c0-0.2-0.1-0.4-0.3-0.6c-0.2-0.1-0.4-0.2-0.7-0.2h-0.6
				V326.6z"/>
			<path class="st11" d="M128.5,378.6h-2.2V378c0.4-0.6,1-1.6,1.9-3h1v3h0.6v0.6h-0.6v0.9h-0.7V378.6z M127,378h1.5v-2.4h0
				C128,376.4,127.5,377.2,127,378L127,378z"/>
			<path class="st11" d="M127,429.5c-0.3-0.3-0.4-0.6-0.5-1h0.7c0,0.2,0.1,0.4,0.3,0.5c0.2,0.1,0.4,0.2,0.6,0.2
				c0.3,0,0.5-0.1,0.7-0.3c0.2-0.2,0.3-0.4,0.3-0.7s-0.1-0.5-0.3-0.7c-0.2-0.2-0.4-0.3-0.7-0.3c-0.4,0-0.7,0.2-0.9,0.5h-0.6l0.2-2.6
				h2.6v0.6h-2.1l-0.1,1.3h0.1c0.2-0.3,0.5-0.4,1-0.4c0.4,0,0.8,0.1,1.1,0.4c0.3,0.3,0.4,0.6,0.4,1.1c0,0.5-0.1,0.8-0.5,1.1
				c-0.3,0.3-0.7,0.4-1.2,0.4C127.6,429.9,127.3,429.8,127,429.5z"/>
			<path class="st11" d="M126.6,479.3c-0.2-0.4-0.3-0.8-0.3-1.4c0-0.8,0.2-1.4,0.5-1.8c0.3-0.4,0.8-0.6,1.3-0.6c0.4,0,0.7,0.1,1,0.3
				c0.3,0.2,0.5,0.5,0.5,0.9H129c-0.1-0.2-0.2-0.3-0.3-0.4c-0.1-0.1-0.3-0.2-0.5-0.2c-0.3,0-0.6,0.1-0.8,0.5
				c-0.2,0.3-0.3,0.7-0.3,1.3h0.1c0.2-0.5,0.6-0.7,1.2-0.7c0.4,0,0.8,0.1,1.1,0.4c0.3,0.3,0.4,0.6,0.4,1.1c0,0.5-0.2,0.8-0.5,1.1
				c-0.3,0.3-0.7,0.4-1.2,0.4C127.4,480.2,126.9,479.9,126.6,479.3z M128.8,479.3c0.2-0.2,0.3-0.4,0.3-0.7c0-0.3-0.1-0.5-0.3-0.7
				c-0.2-0.2-0.4-0.3-0.7-0.3c-0.3,0-0.5,0.1-0.7,0.3c-0.2,0.2-0.3,0.4-0.3,0.7c0,0.3,0.1,0.5,0.3,0.7c0.2,0.2,0.4,0.3,0.7,0.3
				C128.4,479.6,128.6,479.5,128.8,479.3z"/>
		</g>
	</g>
	<g>
		<g>
			<path class="st11" d="M128.9,554L128.9,554l-2.3-0.1v-0.6h3v0.6l-2,3.9h-0.7L128.9,554z"/>
			<path class="st11" d="M126.8,607.9c-0.3-0.2-0.5-0.6-0.5-1c0-0.3,0.1-0.5,0.3-0.7c0.2-0.2,0.4-0.3,0.7-0.4v-0.1
				c-0.2-0.1-0.4-0.2-0.6-0.4c-0.1-0.2-0.2-0.4-0.2-0.6c0-0.4,0.1-0.6,0.4-0.9c0.3-0.2,0.6-0.3,1.1-0.3c0.4,0,0.8,0.1,1.1,0.3
				s0.4,0.5,0.4,0.9c0,0.2-0.1,0.5-0.2,0.6s-0.3,0.3-0.6,0.4v0.1c0.3,0.1,0.5,0.2,0.7,0.4c0.2,0.2,0.3,0.5,0.3,0.8
				c0,0.4-0.2,0.7-0.5,1c-0.3,0.2-0.7,0.4-1.2,0.4C127.6,608.2,127.2,608.1,126.8,607.9z M128.8,607.4c0.2-0.1,0.3-0.3,0.3-0.6
				c0-0.2-0.1-0.4-0.3-0.6s-0.4-0.2-0.7-0.2c-0.3,0-0.5,0.1-0.7,0.2c-0.2,0.1-0.3,0.3-0.3,0.6c0,0.2,0.1,0.4,0.3,0.6
				c0.2,0.1,0.4,0.2,0.7,0.2C128.4,607.7,128.6,607.6,128.8,607.4z M128.7,605.3c0.2-0.1,0.2-0.3,0.2-0.5c0-0.2-0.1-0.4-0.2-0.5
				c-0.2-0.1-0.4-0.2-0.6-0.2c-0.2,0-0.4,0.1-0.6,0.2c-0.2,0.1-0.2,0.3-0.2,0.5c0,0.2,0.1,0.4,0.2,0.5c0.1,0.1,0.3,0.2,0.6,0.2
				C128.3,605.5,128.5,605.4,128.7,605.3z"/>
			<path class="st11" d="M127,658.2c-0.3-0.2-0.5-0.5-0.5-0.9h0.7c0.1,0.2,0.2,0.3,0.3,0.4c0.1,0.1,0.3,0.2,0.5,0.2
				c0.3,0,0.6-0.1,0.8-0.5c0.2-0.3,0.3-0.7,0.3-1.3H129c-0.2,0.5-0.6,0.7-1.2,0.7c-0.4,0-0.8-0.1-1.1-0.4c-0.3-0.3-0.4-0.6-0.4-1.1
				c0-0.5,0.2-0.8,0.5-1.1c0.3-0.3,0.7-0.4,1.2-0.4c0.7,0,1.2,0.3,1.5,0.9c0.2,0.4,0.3,0.8,0.3,1.4c0,0.8-0.2,1.4-0.5,1.8
				c-0.3,0.4-0.8,0.6-1.3,0.6C127.6,658.5,127.2,658.4,127,658.2z M128.7,656c0.2-0.2,0.3-0.4,0.3-0.7c0-0.3-0.1-0.5-0.3-0.7
				c-0.2-0.2-0.4-0.3-0.7-0.3c-0.3,0-0.5,0.1-0.7,0.3s-0.3,0.4-0.3,0.7c0,0.3,0.1,0.5,0.3,0.7c0.2,0.2,0.4,0.3,0.7,0.3
				C128.3,656.3,128.5,656.2,128.7,656z"/>
			<path class="st11" d="M126,705L126,705l-1.2,0.8v-0.7l1.2-0.8h0.7v4.5H126V705z"/>
			<path class="st11" d="M128.3,708.2c-0.3-0.4-0.4-1-0.4-1.7c0-0.7,0.1-1.3,0.4-1.7c0.3-0.4,0.7-0.6,1.2-0.6c0.5,0,0.9,0.2,1.2,0.6
				c0.3,0.4,0.4,1,0.4,1.7c0,0.7-0.1,1.3-0.4,1.7c-0.3,0.4-0.7,0.6-1.2,0.6C129,708.8,128.6,708.6,128.3,708.2z M130.3,707.8
				c0.2-0.3,0.2-0.7,0.2-1.3c0-0.6-0.1-1-0.3-1.3c-0.2-0.3-0.4-0.5-0.7-0.5s-0.5,0.1-0.7,0.5c-0.2,0.3-0.3,0.7-0.3,1.3
				c0,0.6,0.1,1,0.3,1.3c0.2,0.3,0.4,0.5,0.7,0.5S130.1,708.1,130.3,707.8z"/>
			<path class="st11" d="M126.6,755.3L126.6,755.3l-1.2,0.8v-0.7l1.2-0.8h0.7v4.5h-0.7V755.3z"/>
			<path class="st11" d="M129.6,755.3L129.6,755.3l-1.2,0.8v-0.7l1.2-0.8h0.7v4.5h-0.7V755.3z"/>
			<path class="st11" d="M126.1,805.6L126.1,805.6l-1.2,0.8v-0.7l1.2-0.8h0.7v4.5h-0.7V805.6z"/>
			<path class="st11" d="M128,806.1c0-0.4,0.1-0.8,0.4-1c0.3-0.3,0.6-0.4,1.1-0.4c0.4,0,0.8,0.1,1.1,0.4c0.3,0.2,0.4,0.6,0.4,0.9
				c0,0.2-0.1,0.5-0.2,0.7c-0.1,0.2-0.4,0.5-0.8,0.9l-1,1v0.1h2.1v0.6h-3v-0.5l1.5-1.6c0.3-0.3,0.5-0.5,0.6-0.7
				c0.1-0.2,0.2-0.3,0.2-0.5c0-0.2-0.1-0.4-0.2-0.5c-0.2-0.1-0.4-0.2-0.6-0.2c-0.2,0-0.4,0.1-0.6,0.2c-0.2,0.1-0.2,0.3-0.2,0.6v0
				L128,806.1L128,806.1z"/>
		</g>
	</g>
</g>
</svg>
